%TF.GenerationSoftware,KiCad,Pcbnew,10.0.6*%
%TF.CreationDate,2026-09-15T15:16:31-04:00*%
%TF.ProjectId,detection_board,64657465-6374-4696-9f6e-5f626f617264,rev?*%
%TF.SameCoordinates,Original*%
%TF.FileFunction,Legend,Top*%
%TF.FilePolarity,Positive*%
%FSLAX46Y46*%
G04 Gerber Fmt 4.6, Leading zero omitted, Abs format (unit mm)*
G04 Created by KiCad (PCBNEW 10.0.6) date 2026-09-15 15:16:31*
%MOMM*%
%LPD*%
G01*
G04 APERTURE LIST*
%ADD10C,0.100000*%
%ADD11C,0.200000*%
%ADD12C,0.250000*%
%ADD13C,0.150000*%
%ADD14C,0.120000*%
%ADD15C,0.127000*%
G04 APERTURE END LIST*
D10*
X141600000Y-87105000D02*
X146600000Y-87105000D01*
X146600000Y-93605000D01*
X141600000Y-93605000D01*
X141600000Y-87105000D01*
X145400000Y-64205000D02*
X151400000Y-64205000D01*
X151400000Y-72405000D01*
X145400000Y-72405000D01*
X145400000Y-64205000D01*
X153000000Y-64205000D02*
X159200000Y-64205000D01*
X159200000Y-72405000D01*
X153000000Y-72405000D01*
X153000000Y-64205000D01*
X176900000Y-82105000D02*
X182700000Y-82105000D01*
X182700000Y-87105000D01*
X176900000Y-87105000D01*
X176900000Y-82105000D01*
D11*
X147803006Y-58823521D02*
X147945863Y-58871140D01*
X147945863Y-58871140D02*
X147993482Y-58918759D01*
X147993482Y-58918759D02*
X148041101Y-59013997D01*
X148041101Y-59013997D02*
X148041101Y-59156854D01*
X148041101Y-59156854D02*
X147993482Y-59252092D01*
X147993482Y-59252092D02*
X147945863Y-59299712D01*
X147945863Y-59299712D02*
X147850625Y-59347331D01*
X147850625Y-59347331D02*
X147469673Y-59347331D01*
X147469673Y-59347331D02*
X147469673Y-58347331D01*
X147469673Y-58347331D02*
X147803006Y-58347331D01*
X147803006Y-58347331D02*
X147898244Y-58394950D01*
X147898244Y-58394950D02*
X147945863Y-58442569D01*
X147945863Y-58442569D02*
X147993482Y-58537807D01*
X147993482Y-58537807D02*
X147993482Y-58633045D01*
X147993482Y-58633045D02*
X147945863Y-58728283D01*
X147945863Y-58728283D02*
X147898244Y-58775902D01*
X147898244Y-58775902D02*
X147803006Y-58823521D01*
X147803006Y-58823521D02*
X147469673Y-58823521D01*
X148469673Y-59347331D02*
X148469673Y-58680664D01*
X148469673Y-58871140D02*
X148517292Y-58775902D01*
X148517292Y-58775902D02*
X148564911Y-58728283D01*
X148564911Y-58728283D02*
X148660149Y-58680664D01*
X148660149Y-58680664D02*
X148755387Y-58680664D01*
X149517292Y-59347331D02*
X149517292Y-58823521D01*
X149517292Y-58823521D02*
X149469673Y-58728283D01*
X149469673Y-58728283D02*
X149374435Y-58680664D01*
X149374435Y-58680664D02*
X149183959Y-58680664D01*
X149183959Y-58680664D02*
X149088721Y-58728283D01*
X149517292Y-59299712D02*
X149422054Y-59347331D01*
X149422054Y-59347331D02*
X149183959Y-59347331D01*
X149183959Y-59347331D02*
X149088721Y-59299712D01*
X149088721Y-59299712D02*
X149041102Y-59204473D01*
X149041102Y-59204473D02*
X149041102Y-59109235D01*
X149041102Y-59109235D02*
X149088721Y-59013997D01*
X149088721Y-59013997D02*
X149183959Y-58966378D01*
X149183959Y-58966378D02*
X149422054Y-58966378D01*
X149422054Y-58966378D02*
X149517292Y-58918759D01*
X149993483Y-58680664D02*
X149993483Y-59347331D01*
X149993483Y-58775902D02*
X150041102Y-58728283D01*
X150041102Y-58728283D02*
X150136340Y-58680664D01*
X150136340Y-58680664D02*
X150279197Y-58680664D01*
X150279197Y-58680664D02*
X150374435Y-58728283D01*
X150374435Y-58728283D02*
X150422054Y-58823521D01*
X150422054Y-58823521D02*
X150422054Y-59347331D01*
X151326816Y-59347331D02*
X151326816Y-58347331D01*
X151326816Y-59299712D02*
X151231578Y-59347331D01*
X151231578Y-59347331D02*
X151041102Y-59347331D01*
X151041102Y-59347331D02*
X150945864Y-59299712D01*
X150945864Y-59299712D02*
X150898245Y-59252092D01*
X150898245Y-59252092D02*
X150850626Y-59156854D01*
X150850626Y-59156854D02*
X150850626Y-58871140D01*
X150850626Y-58871140D02*
X150898245Y-58775902D01*
X150898245Y-58775902D02*
X150945864Y-58728283D01*
X150945864Y-58728283D02*
X151041102Y-58680664D01*
X151041102Y-58680664D02*
X151231578Y-58680664D01*
X151231578Y-58680664D02*
X151326816Y-58728283D01*
X151945864Y-59347331D02*
X151850626Y-59299712D01*
X151850626Y-59299712D02*
X151803007Y-59252092D01*
X151803007Y-59252092D02*
X151755388Y-59156854D01*
X151755388Y-59156854D02*
X151755388Y-58871140D01*
X151755388Y-58871140D02*
X151803007Y-58775902D01*
X151803007Y-58775902D02*
X151850626Y-58728283D01*
X151850626Y-58728283D02*
X151945864Y-58680664D01*
X151945864Y-58680664D02*
X152088721Y-58680664D01*
X152088721Y-58680664D02*
X152183959Y-58728283D01*
X152183959Y-58728283D02*
X152231578Y-58775902D01*
X152231578Y-58775902D02*
X152279197Y-58871140D01*
X152279197Y-58871140D02*
X152279197Y-59156854D01*
X152279197Y-59156854D02*
X152231578Y-59252092D01*
X152231578Y-59252092D02*
X152183959Y-59299712D01*
X152183959Y-59299712D02*
X152088721Y-59347331D01*
X152088721Y-59347331D02*
X151945864Y-59347331D01*
X152707769Y-58680664D02*
X152707769Y-59347331D01*
X152707769Y-58775902D02*
X152755388Y-58728283D01*
X152755388Y-58728283D02*
X152850626Y-58680664D01*
X152850626Y-58680664D02*
X152993483Y-58680664D01*
X152993483Y-58680664D02*
X153088721Y-58728283D01*
X153088721Y-58728283D02*
X153136340Y-58823521D01*
X153136340Y-58823521D02*
X153136340Y-59347331D01*
X154707769Y-58823521D02*
X154850626Y-58871140D01*
X154850626Y-58871140D02*
X154898245Y-58918759D01*
X154898245Y-58918759D02*
X154945864Y-59013997D01*
X154945864Y-59013997D02*
X154945864Y-59156854D01*
X154945864Y-59156854D02*
X154898245Y-59252092D01*
X154898245Y-59252092D02*
X154850626Y-59299712D01*
X154850626Y-59299712D02*
X154755388Y-59347331D01*
X154755388Y-59347331D02*
X154374436Y-59347331D01*
X154374436Y-59347331D02*
X154374436Y-58347331D01*
X154374436Y-58347331D02*
X154707769Y-58347331D01*
X154707769Y-58347331D02*
X154803007Y-58394950D01*
X154803007Y-58394950D02*
X154850626Y-58442569D01*
X154850626Y-58442569D02*
X154898245Y-58537807D01*
X154898245Y-58537807D02*
X154898245Y-58633045D01*
X154898245Y-58633045D02*
X154850626Y-58728283D01*
X154850626Y-58728283D02*
X154803007Y-58775902D01*
X154803007Y-58775902D02*
X154707769Y-58823521D01*
X154707769Y-58823521D02*
X154374436Y-58823521D01*
X155422055Y-59299712D02*
X155422055Y-59347331D01*
X155422055Y-59347331D02*
X155374436Y-59442569D01*
X155374436Y-59442569D02*
X155326817Y-59490188D01*
X156564912Y-59061616D02*
X157041102Y-59061616D01*
X156469674Y-59347331D02*
X156803007Y-58347331D01*
X156803007Y-58347331D02*
X157136340Y-59347331D01*
X157469674Y-58680664D02*
X157469674Y-59347331D01*
X157469674Y-58775902D02*
X157517293Y-58728283D01*
X157517293Y-58728283D02*
X157612531Y-58680664D01*
X157612531Y-58680664D02*
X157755388Y-58680664D01*
X157755388Y-58680664D02*
X157850626Y-58728283D01*
X157850626Y-58728283D02*
X157898245Y-58823521D01*
X157898245Y-58823521D02*
X157898245Y-59347331D01*
X158374436Y-59347331D02*
X158374436Y-58680664D01*
X158374436Y-58347331D02*
X158326817Y-58394950D01*
X158326817Y-58394950D02*
X158374436Y-58442569D01*
X158374436Y-58442569D02*
X158422055Y-58394950D01*
X158422055Y-58394950D02*
X158374436Y-58347331D01*
X158374436Y-58347331D02*
X158374436Y-58442569D01*
X158850626Y-59347331D02*
X158850626Y-58680664D01*
X158850626Y-58871140D02*
X158898245Y-58775902D01*
X158898245Y-58775902D02*
X158945864Y-58728283D01*
X158945864Y-58728283D02*
X159041102Y-58680664D01*
X159041102Y-58680664D02*
X159136340Y-58680664D01*
X159898245Y-58680664D02*
X159898245Y-59347331D01*
X159469674Y-58680664D02*
X159469674Y-59204473D01*
X159469674Y-59204473D02*
X159517293Y-59299712D01*
X159517293Y-59299712D02*
X159612531Y-59347331D01*
X159612531Y-59347331D02*
X159755388Y-59347331D01*
X159755388Y-59347331D02*
X159850626Y-59299712D01*
X159850626Y-59299712D02*
X159898245Y-59252092D01*
X160803007Y-59347331D02*
X160803007Y-58347331D01*
X160803007Y-59299712D02*
X160707769Y-59347331D01*
X160707769Y-59347331D02*
X160517293Y-59347331D01*
X160517293Y-59347331D02*
X160422055Y-59299712D01*
X160422055Y-59299712D02*
X160374436Y-59252092D01*
X160374436Y-59252092D02*
X160326817Y-59156854D01*
X160326817Y-59156854D02*
X160326817Y-58871140D01*
X160326817Y-58871140D02*
X160374436Y-58775902D01*
X160374436Y-58775902D02*
X160422055Y-58728283D01*
X160422055Y-58728283D02*
X160517293Y-58680664D01*
X160517293Y-58680664D02*
X160707769Y-58680664D01*
X160707769Y-58680664D02*
X160803007Y-58728283D01*
X161279198Y-59347331D02*
X161279198Y-58347331D01*
X161707769Y-59347331D02*
X161707769Y-58823521D01*
X161707769Y-58823521D02*
X161660150Y-58728283D01*
X161660150Y-58728283D02*
X161564912Y-58680664D01*
X161564912Y-58680664D02*
X161422055Y-58680664D01*
X161422055Y-58680664D02*
X161326817Y-58728283D01*
X161326817Y-58728283D02*
X161279198Y-58775902D01*
X163517293Y-59252092D02*
X163469674Y-59299712D01*
X163469674Y-59299712D02*
X163326817Y-59347331D01*
X163326817Y-59347331D02*
X163231579Y-59347331D01*
X163231579Y-59347331D02*
X163088722Y-59299712D01*
X163088722Y-59299712D02*
X162993484Y-59204473D01*
X162993484Y-59204473D02*
X162945865Y-59109235D01*
X162945865Y-59109235D02*
X162898246Y-58918759D01*
X162898246Y-58918759D02*
X162898246Y-58775902D01*
X162898246Y-58775902D02*
X162945865Y-58585426D01*
X162945865Y-58585426D02*
X162993484Y-58490188D01*
X162993484Y-58490188D02*
X163088722Y-58394950D01*
X163088722Y-58394950D02*
X163231579Y-58347331D01*
X163231579Y-58347331D02*
X163326817Y-58347331D01*
X163326817Y-58347331D02*
X163469674Y-58394950D01*
X163469674Y-58394950D02*
X163517293Y-58442569D01*
X163993484Y-59299712D02*
X163993484Y-59347331D01*
X163993484Y-59347331D02*
X163945865Y-59442569D01*
X163945865Y-59442569D02*
X163898246Y-59490188D01*
X147945863Y-60957275D02*
X147469673Y-60957275D01*
X147469673Y-60957275D02*
X147469673Y-59957275D01*
X148707768Y-60957275D02*
X148707768Y-60433465D01*
X148707768Y-60433465D02*
X148660149Y-60338227D01*
X148660149Y-60338227D02*
X148564911Y-60290608D01*
X148564911Y-60290608D02*
X148374435Y-60290608D01*
X148374435Y-60290608D02*
X148279197Y-60338227D01*
X148707768Y-60909656D02*
X148612530Y-60957275D01*
X148612530Y-60957275D02*
X148374435Y-60957275D01*
X148374435Y-60957275D02*
X148279197Y-60909656D01*
X148279197Y-60909656D02*
X148231578Y-60814417D01*
X148231578Y-60814417D02*
X148231578Y-60719179D01*
X148231578Y-60719179D02*
X148279197Y-60623941D01*
X148279197Y-60623941D02*
X148374435Y-60576322D01*
X148374435Y-60576322D02*
X148612530Y-60576322D01*
X148612530Y-60576322D02*
X148707768Y-60528703D01*
X149183959Y-60957275D02*
X149183959Y-60290608D01*
X149183959Y-60481084D02*
X149231578Y-60385846D01*
X149231578Y-60385846D02*
X149279197Y-60338227D01*
X149279197Y-60338227D02*
X149374435Y-60290608D01*
X149374435Y-60290608D02*
X149469673Y-60290608D01*
X149803007Y-60957275D02*
X149803007Y-60290608D01*
X149803007Y-60481084D02*
X149850626Y-60385846D01*
X149850626Y-60385846D02*
X149898245Y-60338227D01*
X149898245Y-60338227D02*
X149993483Y-60290608D01*
X149993483Y-60290608D02*
X150088721Y-60290608D01*
X150326817Y-60290608D02*
X150564912Y-60957275D01*
X150803007Y-60290608D02*
X150564912Y-60957275D01*
X150564912Y-60957275D02*
X150469674Y-61195370D01*
X150469674Y-61195370D02*
X150422055Y-61242989D01*
X150422055Y-61242989D02*
X150326817Y-61290608D01*
X151803008Y-59957275D02*
X152374436Y-59957275D01*
X152088722Y-60957275D02*
X152088722Y-59957275D01*
X152755389Y-60909656D02*
X152755389Y-60957275D01*
X152755389Y-60957275D02*
X152707770Y-61052513D01*
X152707770Y-61052513D02*
X152660151Y-61100132D01*
X153898246Y-60909656D02*
X154041103Y-60957275D01*
X154041103Y-60957275D02*
X154279198Y-60957275D01*
X154279198Y-60957275D02*
X154374436Y-60909656D01*
X154374436Y-60909656D02*
X154422055Y-60862036D01*
X154422055Y-60862036D02*
X154469674Y-60766798D01*
X154469674Y-60766798D02*
X154469674Y-60671560D01*
X154469674Y-60671560D02*
X154422055Y-60576322D01*
X154422055Y-60576322D02*
X154374436Y-60528703D01*
X154374436Y-60528703D02*
X154279198Y-60481084D01*
X154279198Y-60481084D02*
X154088722Y-60433465D01*
X154088722Y-60433465D02*
X153993484Y-60385846D01*
X153993484Y-60385846D02*
X153945865Y-60338227D01*
X153945865Y-60338227D02*
X153898246Y-60242989D01*
X153898246Y-60242989D02*
X153898246Y-60147751D01*
X153898246Y-60147751D02*
X153945865Y-60052513D01*
X153945865Y-60052513D02*
X153993484Y-60004894D01*
X153993484Y-60004894D02*
X154088722Y-59957275D01*
X154088722Y-59957275D02*
X154326817Y-59957275D01*
X154326817Y-59957275D02*
X154469674Y-60004894D01*
X155326817Y-60957275D02*
X155326817Y-60433465D01*
X155326817Y-60433465D02*
X155279198Y-60338227D01*
X155279198Y-60338227D02*
X155183960Y-60290608D01*
X155183960Y-60290608D02*
X154993484Y-60290608D01*
X154993484Y-60290608D02*
X154898246Y-60338227D01*
X155326817Y-60909656D02*
X155231579Y-60957275D01*
X155231579Y-60957275D02*
X154993484Y-60957275D01*
X154993484Y-60957275D02*
X154898246Y-60909656D01*
X154898246Y-60909656D02*
X154850627Y-60814417D01*
X154850627Y-60814417D02*
X154850627Y-60719179D01*
X154850627Y-60719179D02*
X154898246Y-60623941D01*
X154898246Y-60623941D02*
X154993484Y-60576322D01*
X154993484Y-60576322D02*
X155231579Y-60576322D01*
X155231579Y-60576322D02*
X155326817Y-60528703D01*
X155803008Y-60957275D02*
X155803008Y-60290608D01*
X155803008Y-60481084D02*
X155850627Y-60385846D01*
X155850627Y-60385846D02*
X155898246Y-60338227D01*
X155898246Y-60338227D02*
X155993484Y-60290608D01*
X155993484Y-60290608D02*
X156088722Y-60290608D01*
X156850627Y-60957275D02*
X156850627Y-60433465D01*
X156850627Y-60433465D02*
X156803008Y-60338227D01*
X156803008Y-60338227D02*
X156707770Y-60290608D01*
X156707770Y-60290608D02*
X156517294Y-60290608D01*
X156517294Y-60290608D02*
X156422056Y-60338227D01*
X156850627Y-60909656D02*
X156755389Y-60957275D01*
X156755389Y-60957275D02*
X156517294Y-60957275D01*
X156517294Y-60957275D02*
X156422056Y-60909656D01*
X156422056Y-60909656D02*
X156374437Y-60814417D01*
X156374437Y-60814417D02*
X156374437Y-60719179D01*
X156374437Y-60719179D02*
X156422056Y-60623941D01*
X156422056Y-60623941D02*
X156517294Y-60576322D01*
X156517294Y-60576322D02*
X156755389Y-60576322D01*
X156755389Y-60576322D02*
X156850627Y-60528703D01*
X157326818Y-60957275D02*
X157326818Y-59957275D01*
X157755389Y-60957275D02*
X157755389Y-60433465D01*
X157755389Y-60433465D02*
X157707770Y-60338227D01*
X157707770Y-60338227D02*
X157612532Y-60290608D01*
X157612532Y-60290608D02*
X157469675Y-60290608D01*
X157469675Y-60290608D02*
X157374437Y-60338227D01*
X157374437Y-60338227D02*
X157326818Y-60385846D01*
X158850628Y-59957275D02*
X159422056Y-59957275D01*
X159136342Y-60957275D02*
X159136342Y-59957275D01*
X159803009Y-60909656D02*
X159803009Y-60957275D01*
X159803009Y-60957275D02*
X159755390Y-61052513D01*
X159755390Y-61052513D02*
X159707771Y-61100132D01*
X147469673Y-62567219D02*
X147469673Y-61567219D01*
X147469673Y-61567219D02*
X147850625Y-61567219D01*
X147850625Y-61567219D02*
X147945863Y-61614838D01*
X147945863Y-61614838D02*
X147993482Y-61662457D01*
X147993482Y-61662457D02*
X148041101Y-61757695D01*
X148041101Y-61757695D02*
X148041101Y-61900552D01*
X148041101Y-61900552D02*
X147993482Y-61995790D01*
X147993482Y-61995790D02*
X147945863Y-62043409D01*
X147945863Y-62043409D02*
X147850625Y-62091028D01*
X147850625Y-62091028D02*
X147469673Y-62091028D01*
X148469673Y-62567219D02*
X148469673Y-61900552D01*
X148469673Y-62091028D02*
X148517292Y-61995790D01*
X148517292Y-61995790D02*
X148564911Y-61948171D01*
X148564911Y-61948171D02*
X148660149Y-61900552D01*
X148660149Y-61900552D02*
X148755387Y-61900552D01*
X149517292Y-62567219D02*
X149517292Y-62043409D01*
X149517292Y-62043409D02*
X149469673Y-61948171D01*
X149469673Y-61948171D02*
X149374435Y-61900552D01*
X149374435Y-61900552D02*
X149183959Y-61900552D01*
X149183959Y-61900552D02*
X149088721Y-61948171D01*
X149517292Y-62519600D02*
X149422054Y-62567219D01*
X149422054Y-62567219D02*
X149183959Y-62567219D01*
X149183959Y-62567219D02*
X149088721Y-62519600D01*
X149088721Y-62519600D02*
X149041102Y-62424361D01*
X149041102Y-62424361D02*
X149041102Y-62329123D01*
X149041102Y-62329123D02*
X149088721Y-62233885D01*
X149088721Y-62233885D02*
X149183959Y-62186266D01*
X149183959Y-62186266D02*
X149422054Y-62186266D01*
X149422054Y-62186266D02*
X149517292Y-62138647D01*
X150422054Y-62519600D02*
X150326816Y-62567219D01*
X150326816Y-62567219D02*
X150136340Y-62567219D01*
X150136340Y-62567219D02*
X150041102Y-62519600D01*
X150041102Y-62519600D02*
X149993483Y-62471980D01*
X149993483Y-62471980D02*
X149945864Y-62376742D01*
X149945864Y-62376742D02*
X149945864Y-62091028D01*
X149945864Y-62091028D02*
X149993483Y-61995790D01*
X149993483Y-61995790D02*
X150041102Y-61948171D01*
X150041102Y-61948171D02*
X150136340Y-61900552D01*
X150136340Y-61900552D02*
X150326816Y-61900552D01*
X150326816Y-61900552D02*
X150422054Y-61948171D01*
X150850626Y-62567219D02*
X150850626Y-61567219D01*
X151279197Y-62567219D02*
X151279197Y-62043409D01*
X151279197Y-62043409D02*
X151231578Y-61948171D01*
X151231578Y-61948171D02*
X151136340Y-61900552D01*
X151136340Y-61900552D02*
X150993483Y-61900552D01*
X150993483Y-61900552D02*
X150898245Y-61948171D01*
X150898245Y-61948171D02*
X150850626Y-61995790D01*
X151755388Y-62567219D02*
X151755388Y-61900552D01*
X151755388Y-61567219D02*
X151707769Y-61614838D01*
X151707769Y-61614838D02*
X151755388Y-61662457D01*
X151755388Y-61662457D02*
X151803007Y-61614838D01*
X151803007Y-61614838D02*
X151755388Y-61567219D01*
X151755388Y-61567219D02*
X151755388Y-61662457D01*
X152898245Y-61567219D02*
X153136340Y-62567219D01*
X153136340Y-62567219D02*
X153326816Y-61852933D01*
X153326816Y-61852933D02*
X153517292Y-62567219D01*
X153517292Y-62567219D02*
X153755388Y-61567219D01*
D12*
X172442858Y-60225958D02*
X172842858Y-60225958D01*
X173014286Y-61168815D02*
X172442858Y-61168815D01*
X172442858Y-61168815D02*
X172442858Y-59368815D01*
X172442858Y-59368815D02*
X173014286Y-59368815D01*
X173700000Y-61168815D02*
X173585715Y-61083101D01*
X173585715Y-61083101D02*
X173528572Y-60911672D01*
X173528572Y-60911672D02*
X173528572Y-59368815D01*
X174614286Y-61083101D02*
X174500000Y-61168815D01*
X174500000Y-61168815D02*
X174271429Y-61168815D01*
X174271429Y-61168815D02*
X174157143Y-61083101D01*
X174157143Y-61083101D02*
X174100000Y-60911672D01*
X174100000Y-60911672D02*
X174100000Y-60225958D01*
X174100000Y-60225958D02*
X174157143Y-60054529D01*
X174157143Y-60054529D02*
X174271429Y-59968815D01*
X174271429Y-59968815D02*
X174500000Y-59968815D01*
X174500000Y-59968815D02*
X174614286Y-60054529D01*
X174614286Y-60054529D02*
X174671429Y-60225958D01*
X174671429Y-60225958D02*
X174671429Y-60397386D01*
X174671429Y-60397386D02*
X174100000Y-60568815D01*
X175700000Y-61083101D02*
X175585714Y-61168815D01*
X175585714Y-61168815D02*
X175357142Y-61168815D01*
X175357142Y-61168815D02*
X175242857Y-61083101D01*
X175242857Y-61083101D02*
X175185714Y-60997386D01*
X175185714Y-60997386D02*
X175128571Y-60825958D01*
X175128571Y-60825958D02*
X175128571Y-60311672D01*
X175128571Y-60311672D02*
X175185714Y-60140243D01*
X175185714Y-60140243D02*
X175242857Y-60054529D01*
X175242857Y-60054529D02*
X175357142Y-59968815D01*
X175357142Y-59968815D02*
X175585714Y-59968815D01*
X175585714Y-59968815D02*
X175700000Y-60054529D01*
X176042856Y-59968815D02*
X176499999Y-59968815D01*
X176214285Y-59368815D02*
X176214285Y-60911672D01*
X176214285Y-60911672D02*
X176271428Y-61083101D01*
X176271428Y-61083101D02*
X176385713Y-61168815D01*
X176385713Y-61168815D02*
X176499999Y-61168815D01*
X176899999Y-61168815D02*
X176899999Y-59968815D01*
X176899999Y-60311672D02*
X176957142Y-60140243D01*
X176957142Y-60140243D02*
X177014285Y-60054529D01*
X177014285Y-60054529D02*
X177128570Y-59968815D01*
X177128570Y-59968815D02*
X177242856Y-59968815D01*
X178157142Y-61168815D02*
X178157142Y-60225958D01*
X178157142Y-60225958D02*
X178099999Y-60054529D01*
X178099999Y-60054529D02*
X177985713Y-59968815D01*
X177985713Y-59968815D02*
X177757142Y-59968815D01*
X177757142Y-59968815D02*
X177642856Y-60054529D01*
X178157142Y-61083101D02*
X178042856Y-61168815D01*
X178042856Y-61168815D02*
X177757142Y-61168815D01*
X177757142Y-61168815D02*
X177642856Y-61083101D01*
X177642856Y-61083101D02*
X177585713Y-60911672D01*
X177585713Y-60911672D02*
X177585713Y-60740243D01*
X177585713Y-60740243D02*
X177642856Y-60568815D01*
X177642856Y-60568815D02*
X177757142Y-60483101D01*
X177757142Y-60483101D02*
X178042856Y-60483101D01*
X178042856Y-60483101D02*
X178157142Y-60397386D01*
X179585713Y-59540243D02*
X179642856Y-59454529D01*
X179642856Y-59454529D02*
X179757142Y-59368815D01*
X179757142Y-59368815D02*
X180042856Y-59368815D01*
X180042856Y-59368815D02*
X180157142Y-59454529D01*
X180157142Y-59454529D02*
X180214284Y-59540243D01*
X180214284Y-59540243D02*
X180271427Y-59711672D01*
X180271427Y-59711672D02*
X180271427Y-59883101D01*
X180271427Y-59883101D02*
X180214284Y-60140243D01*
X180214284Y-60140243D02*
X179528570Y-61168815D01*
X179528570Y-61168815D02*
X180271427Y-61168815D01*
X181014284Y-59368815D02*
X181128570Y-59368815D01*
X181128570Y-59368815D02*
X181242856Y-59454529D01*
X181242856Y-59454529D02*
X181299999Y-59540243D01*
X181299999Y-59540243D02*
X181357141Y-59711672D01*
X181357141Y-59711672D02*
X181414284Y-60054529D01*
X181414284Y-60054529D02*
X181414284Y-60483101D01*
X181414284Y-60483101D02*
X181357141Y-60825958D01*
X181357141Y-60825958D02*
X181299999Y-60997386D01*
X181299999Y-60997386D02*
X181242856Y-61083101D01*
X181242856Y-61083101D02*
X181128570Y-61168815D01*
X181128570Y-61168815D02*
X181014284Y-61168815D01*
X181014284Y-61168815D02*
X180899999Y-61083101D01*
X180899999Y-61083101D02*
X180842856Y-60997386D01*
X180842856Y-60997386D02*
X180785713Y-60825958D01*
X180785713Y-60825958D02*
X180728570Y-60483101D01*
X180728570Y-60483101D02*
X180728570Y-60054529D01*
X180728570Y-60054529D02*
X180785713Y-59711672D01*
X180785713Y-59711672D02*
X180842856Y-59540243D01*
X180842856Y-59540243D02*
X180899999Y-59454529D01*
X180899999Y-59454529D02*
X181014284Y-59368815D01*
X181871427Y-59540243D02*
X181928570Y-59454529D01*
X181928570Y-59454529D02*
X182042856Y-59368815D01*
X182042856Y-59368815D02*
X182328570Y-59368815D01*
X182328570Y-59368815D02*
X182442856Y-59454529D01*
X182442856Y-59454529D02*
X182499998Y-59540243D01*
X182499998Y-59540243D02*
X182557141Y-59711672D01*
X182557141Y-59711672D02*
X182557141Y-59883101D01*
X182557141Y-59883101D02*
X182499998Y-60140243D01*
X182499998Y-60140243D02*
X181814284Y-61168815D01*
X181814284Y-61168815D02*
X182557141Y-61168815D01*
X182957141Y-59368815D02*
X183757141Y-59368815D01*
X183757141Y-59368815D02*
X183242855Y-61168815D01*
X185814284Y-61168815D02*
X185414284Y-60311672D01*
X185128570Y-61168815D02*
X185128570Y-59368815D01*
X185128570Y-59368815D02*
X185585713Y-59368815D01*
X185585713Y-59368815D02*
X185699998Y-59454529D01*
X185699998Y-59454529D02*
X185757141Y-59540243D01*
X185757141Y-59540243D02*
X185814284Y-59711672D01*
X185814284Y-59711672D02*
X185814284Y-59968815D01*
X185814284Y-59968815D02*
X185757141Y-60140243D01*
X185757141Y-60140243D02*
X185699998Y-60225958D01*
X185699998Y-60225958D02*
X185585713Y-60311672D01*
X185585713Y-60311672D02*
X185128570Y-60311672D01*
X186785713Y-61083101D02*
X186671427Y-61168815D01*
X186671427Y-61168815D02*
X186442856Y-61168815D01*
X186442856Y-61168815D02*
X186328570Y-61083101D01*
X186328570Y-61083101D02*
X186271427Y-60911672D01*
X186271427Y-60911672D02*
X186271427Y-60225958D01*
X186271427Y-60225958D02*
X186328570Y-60054529D01*
X186328570Y-60054529D02*
X186442856Y-59968815D01*
X186442856Y-59968815D02*
X186671427Y-59968815D01*
X186671427Y-59968815D02*
X186785713Y-60054529D01*
X186785713Y-60054529D02*
X186842856Y-60225958D01*
X186842856Y-60225958D02*
X186842856Y-60397386D01*
X186842856Y-60397386D02*
X186271427Y-60568815D01*
X187242855Y-59968815D02*
X187528569Y-61168815D01*
X187528569Y-61168815D02*
X187814284Y-59968815D01*
X189071427Y-59368815D02*
X189814284Y-59368815D01*
X189814284Y-59368815D02*
X189414284Y-60054529D01*
X189414284Y-60054529D02*
X189585713Y-60054529D01*
X189585713Y-60054529D02*
X189699999Y-60140243D01*
X189699999Y-60140243D02*
X189757141Y-60225958D01*
X189757141Y-60225958D02*
X189814284Y-60397386D01*
X189814284Y-60397386D02*
X189814284Y-60825958D01*
X189814284Y-60825958D02*
X189757141Y-60997386D01*
X189757141Y-60997386D02*
X189699999Y-61083101D01*
X189699999Y-61083101D02*
X189585713Y-61168815D01*
X189585713Y-61168815D02*
X189242856Y-61168815D01*
X189242856Y-61168815D02*
X189128570Y-61083101D01*
X189128570Y-61083101D02*
X189071427Y-60997386D01*
X174128573Y-64066714D02*
X174128573Y-62266714D01*
X174128573Y-62266714D02*
X174414287Y-62266714D01*
X174414287Y-62266714D02*
X174585716Y-62352428D01*
X174585716Y-62352428D02*
X174700001Y-62523857D01*
X174700001Y-62523857D02*
X174757144Y-62695285D01*
X174757144Y-62695285D02*
X174814287Y-63038142D01*
X174814287Y-63038142D02*
X174814287Y-63295285D01*
X174814287Y-63295285D02*
X174757144Y-63638142D01*
X174757144Y-63638142D02*
X174700001Y-63809571D01*
X174700001Y-63809571D02*
X174585716Y-63981000D01*
X174585716Y-63981000D02*
X174414287Y-64066714D01*
X174414287Y-64066714D02*
X174128573Y-64066714D01*
X175785716Y-63981000D02*
X175671430Y-64066714D01*
X175671430Y-64066714D02*
X175442859Y-64066714D01*
X175442859Y-64066714D02*
X175328573Y-63981000D01*
X175328573Y-63981000D02*
X175271430Y-63809571D01*
X175271430Y-63809571D02*
X175271430Y-63123857D01*
X175271430Y-63123857D02*
X175328573Y-62952428D01*
X175328573Y-62952428D02*
X175442859Y-62866714D01*
X175442859Y-62866714D02*
X175671430Y-62866714D01*
X175671430Y-62866714D02*
X175785716Y-62952428D01*
X175785716Y-62952428D02*
X175842859Y-63123857D01*
X175842859Y-63123857D02*
X175842859Y-63295285D01*
X175842859Y-63295285D02*
X175271430Y-63466714D01*
X176185715Y-62866714D02*
X176642858Y-62866714D01*
X176357144Y-62266714D02*
X176357144Y-63809571D01*
X176357144Y-63809571D02*
X176414287Y-63981000D01*
X176414287Y-63981000D02*
X176528572Y-64066714D01*
X176528572Y-64066714D02*
X176642858Y-64066714D01*
X177500001Y-63981000D02*
X177385715Y-64066714D01*
X177385715Y-64066714D02*
X177157144Y-64066714D01*
X177157144Y-64066714D02*
X177042858Y-63981000D01*
X177042858Y-63981000D02*
X176985715Y-63809571D01*
X176985715Y-63809571D02*
X176985715Y-63123857D01*
X176985715Y-63123857D02*
X177042858Y-62952428D01*
X177042858Y-62952428D02*
X177157144Y-62866714D01*
X177157144Y-62866714D02*
X177385715Y-62866714D01*
X177385715Y-62866714D02*
X177500001Y-62952428D01*
X177500001Y-62952428D02*
X177557144Y-63123857D01*
X177557144Y-63123857D02*
X177557144Y-63295285D01*
X177557144Y-63295285D02*
X176985715Y-63466714D01*
X178585715Y-63981000D02*
X178471429Y-64066714D01*
X178471429Y-64066714D02*
X178242857Y-64066714D01*
X178242857Y-64066714D02*
X178128572Y-63981000D01*
X178128572Y-63981000D02*
X178071429Y-63895285D01*
X178071429Y-63895285D02*
X178014286Y-63723857D01*
X178014286Y-63723857D02*
X178014286Y-63209571D01*
X178014286Y-63209571D02*
X178071429Y-63038142D01*
X178071429Y-63038142D02*
X178128572Y-62952428D01*
X178128572Y-62952428D02*
X178242857Y-62866714D01*
X178242857Y-62866714D02*
X178471429Y-62866714D01*
X178471429Y-62866714D02*
X178585715Y-62952428D01*
X178928571Y-62866714D02*
X179385714Y-62866714D01*
X179100000Y-62266714D02*
X179100000Y-63809571D01*
X179100000Y-63809571D02*
X179157143Y-63981000D01*
X179157143Y-63981000D02*
X179271428Y-64066714D01*
X179271428Y-64066714D02*
X179385714Y-64066714D01*
X179785714Y-64066714D02*
X179785714Y-62866714D01*
X179785714Y-62266714D02*
X179728571Y-62352428D01*
X179728571Y-62352428D02*
X179785714Y-62438142D01*
X179785714Y-62438142D02*
X179842857Y-62352428D01*
X179842857Y-62352428D02*
X179785714Y-62266714D01*
X179785714Y-62266714D02*
X179785714Y-62438142D01*
X180528571Y-64066714D02*
X180414286Y-63981000D01*
X180414286Y-63981000D02*
X180357143Y-63895285D01*
X180357143Y-63895285D02*
X180300000Y-63723857D01*
X180300000Y-63723857D02*
X180300000Y-63209571D01*
X180300000Y-63209571D02*
X180357143Y-63038142D01*
X180357143Y-63038142D02*
X180414286Y-62952428D01*
X180414286Y-62952428D02*
X180528571Y-62866714D01*
X180528571Y-62866714D02*
X180700000Y-62866714D01*
X180700000Y-62866714D02*
X180814286Y-62952428D01*
X180814286Y-62952428D02*
X180871429Y-63038142D01*
X180871429Y-63038142D02*
X180928571Y-63209571D01*
X180928571Y-63209571D02*
X180928571Y-63723857D01*
X180928571Y-63723857D02*
X180871429Y-63895285D01*
X180871429Y-63895285D02*
X180814286Y-63981000D01*
X180814286Y-63981000D02*
X180700000Y-64066714D01*
X180700000Y-64066714D02*
X180528571Y-64066714D01*
X181442857Y-62866714D02*
X181442857Y-64066714D01*
X181442857Y-63038142D02*
X181500000Y-62952428D01*
X181500000Y-62952428D02*
X181614285Y-62866714D01*
X181614285Y-62866714D02*
X181785714Y-62866714D01*
X181785714Y-62866714D02*
X181900000Y-62952428D01*
X181900000Y-62952428D02*
X181957143Y-63123857D01*
X181957143Y-63123857D02*
X181957143Y-64066714D01*
X183842857Y-63123857D02*
X184014285Y-63209571D01*
X184014285Y-63209571D02*
X184071428Y-63295285D01*
X184071428Y-63295285D02*
X184128571Y-63466714D01*
X184128571Y-63466714D02*
X184128571Y-63723857D01*
X184128571Y-63723857D02*
X184071428Y-63895285D01*
X184071428Y-63895285D02*
X184014285Y-63981000D01*
X184014285Y-63981000D02*
X183900000Y-64066714D01*
X183900000Y-64066714D02*
X183442857Y-64066714D01*
X183442857Y-64066714D02*
X183442857Y-62266714D01*
X183442857Y-62266714D02*
X183842857Y-62266714D01*
X183842857Y-62266714D02*
X183957143Y-62352428D01*
X183957143Y-62352428D02*
X184014285Y-62438142D01*
X184014285Y-62438142D02*
X184071428Y-62609571D01*
X184071428Y-62609571D02*
X184071428Y-62781000D01*
X184071428Y-62781000D02*
X184014285Y-62952428D01*
X184014285Y-62952428D02*
X183957143Y-63038142D01*
X183957143Y-63038142D02*
X183842857Y-63123857D01*
X183842857Y-63123857D02*
X183442857Y-63123857D01*
X184814285Y-64066714D02*
X184700000Y-63981000D01*
X184700000Y-63981000D02*
X184642857Y-63895285D01*
X184642857Y-63895285D02*
X184585714Y-63723857D01*
X184585714Y-63723857D02*
X184585714Y-63209571D01*
X184585714Y-63209571D02*
X184642857Y-63038142D01*
X184642857Y-63038142D02*
X184700000Y-62952428D01*
X184700000Y-62952428D02*
X184814285Y-62866714D01*
X184814285Y-62866714D02*
X184985714Y-62866714D01*
X184985714Y-62866714D02*
X185100000Y-62952428D01*
X185100000Y-62952428D02*
X185157143Y-63038142D01*
X185157143Y-63038142D02*
X185214285Y-63209571D01*
X185214285Y-63209571D02*
X185214285Y-63723857D01*
X185214285Y-63723857D02*
X185157143Y-63895285D01*
X185157143Y-63895285D02*
X185100000Y-63981000D01*
X185100000Y-63981000D02*
X184985714Y-64066714D01*
X184985714Y-64066714D02*
X184814285Y-64066714D01*
X186242857Y-64066714D02*
X186242857Y-63123857D01*
X186242857Y-63123857D02*
X186185714Y-62952428D01*
X186185714Y-62952428D02*
X186071428Y-62866714D01*
X186071428Y-62866714D02*
X185842857Y-62866714D01*
X185842857Y-62866714D02*
X185728571Y-62952428D01*
X186242857Y-63981000D02*
X186128571Y-64066714D01*
X186128571Y-64066714D02*
X185842857Y-64066714D01*
X185842857Y-64066714D02*
X185728571Y-63981000D01*
X185728571Y-63981000D02*
X185671428Y-63809571D01*
X185671428Y-63809571D02*
X185671428Y-63638142D01*
X185671428Y-63638142D02*
X185728571Y-63466714D01*
X185728571Y-63466714D02*
X185842857Y-63381000D01*
X185842857Y-63381000D02*
X186128571Y-63381000D01*
X186128571Y-63381000D02*
X186242857Y-63295285D01*
X186814285Y-64066714D02*
X186814285Y-62866714D01*
X186814285Y-63209571D02*
X186871428Y-63038142D01*
X186871428Y-63038142D02*
X186928571Y-62952428D01*
X186928571Y-62952428D02*
X187042856Y-62866714D01*
X187042856Y-62866714D02*
X187157142Y-62866714D01*
X188071428Y-64066714D02*
X188071428Y-62266714D01*
X188071428Y-63981000D02*
X187957142Y-64066714D01*
X187957142Y-64066714D02*
X187728570Y-64066714D01*
X187728570Y-64066714D02*
X187614285Y-63981000D01*
X187614285Y-63981000D02*
X187557142Y-63895285D01*
X187557142Y-63895285D02*
X187499999Y-63723857D01*
X187499999Y-63723857D02*
X187499999Y-63209571D01*
X187499999Y-63209571D02*
X187557142Y-63038142D01*
X187557142Y-63038142D02*
X187614285Y-62952428D01*
X187614285Y-62952428D02*
X187728570Y-62866714D01*
X187728570Y-62866714D02*
X187957142Y-62866714D01*
X187957142Y-62866714D02*
X188071428Y-62952428D01*
D13*
X157766666Y-93454819D02*
X157766666Y-94169104D01*
X157766666Y-94169104D02*
X157719047Y-94311961D01*
X157719047Y-94311961D02*
X157623809Y-94407200D01*
X157623809Y-94407200D02*
X157480952Y-94454819D01*
X157480952Y-94454819D02*
X157385714Y-94454819D01*
X158766666Y-94454819D02*
X158195238Y-94454819D01*
X158480952Y-94454819D02*
X158480952Y-93454819D01*
X158480952Y-93454819D02*
X158385714Y-93597676D01*
X158385714Y-93597676D02*
X158290476Y-93692914D01*
X158290476Y-93692914D02*
X158195238Y-93740533D01*
X160766667Y-72691104D02*
X160728571Y-72729200D01*
X160728571Y-72729200D02*
X160614286Y-72767295D01*
X160614286Y-72767295D02*
X160538095Y-72767295D01*
X160538095Y-72767295D02*
X160423809Y-72729200D01*
X160423809Y-72729200D02*
X160347619Y-72653009D01*
X160347619Y-72653009D02*
X160309524Y-72576819D01*
X160309524Y-72576819D02*
X160271428Y-72424438D01*
X160271428Y-72424438D02*
X160271428Y-72310152D01*
X160271428Y-72310152D02*
X160309524Y-72157771D01*
X160309524Y-72157771D02*
X160347619Y-72081580D01*
X160347619Y-72081580D02*
X160423809Y-72005390D01*
X160423809Y-72005390D02*
X160538095Y-71967295D01*
X160538095Y-71967295D02*
X160614286Y-71967295D01*
X160614286Y-71967295D02*
X160728571Y-72005390D01*
X160728571Y-72005390D02*
X160766667Y-72043485D01*
X161528571Y-72767295D02*
X161071428Y-72767295D01*
X161300000Y-72767295D02*
X161300000Y-71967295D01*
X161300000Y-71967295D02*
X161223809Y-72081580D01*
X161223809Y-72081580D02*
X161147619Y-72157771D01*
X161147619Y-72157771D02*
X161071428Y-72195866D01*
X161366667Y-82291104D02*
X161328571Y-82329200D01*
X161328571Y-82329200D02*
X161214286Y-82367295D01*
X161214286Y-82367295D02*
X161138095Y-82367295D01*
X161138095Y-82367295D02*
X161023809Y-82329200D01*
X161023809Y-82329200D02*
X160947619Y-82253009D01*
X160947619Y-82253009D02*
X160909524Y-82176819D01*
X160909524Y-82176819D02*
X160871428Y-82024438D01*
X160871428Y-82024438D02*
X160871428Y-81910152D01*
X160871428Y-81910152D02*
X160909524Y-81757771D01*
X160909524Y-81757771D02*
X160947619Y-81681580D01*
X160947619Y-81681580D02*
X161023809Y-81605390D01*
X161023809Y-81605390D02*
X161138095Y-81567295D01*
X161138095Y-81567295D02*
X161214286Y-81567295D01*
X161214286Y-81567295D02*
X161328571Y-81605390D01*
X161328571Y-81605390D02*
X161366667Y-81643485D01*
X161747619Y-82367295D02*
X161900000Y-82367295D01*
X161900000Y-82367295D02*
X161976190Y-82329200D01*
X161976190Y-82329200D02*
X162014286Y-82291104D01*
X162014286Y-82291104D02*
X162090476Y-82176819D01*
X162090476Y-82176819D02*
X162128571Y-82024438D01*
X162128571Y-82024438D02*
X162128571Y-81719676D01*
X162128571Y-81719676D02*
X162090476Y-81643485D01*
X162090476Y-81643485D02*
X162052381Y-81605390D01*
X162052381Y-81605390D02*
X161976190Y-81567295D01*
X161976190Y-81567295D02*
X161823809Y-81567295D01*
X161823809Y-81567295D02*
X161747619Y-81605390D01*
X161747619Y-81605390D02*
X161709524Y-81643485D01*
X161709524Y-81643485D02*
X161671428Y-81719676D01*
X161671428Y-81719676D02*
X161671428Y-81910152D01*
X161671428Y-81910152D02*
X161709524Y-81986342D01*
X161709524Y-81986342D02*
X161747619Y-82024438D01*
X161747619Y-82024438D02*
X161823809Y-82062533D01*
X161823809Y-82062533D02*
X161976190Y-82062533D01*
X161976190Y-82062533D02*
X162052381Y-82024438D01*
X162052381Y-82024438D02*
X162090476Y-81986342D01*
X162090476Y-81986342D02*
X162128571Y-81910152D01*
X176766667Y-76791104D02*
X176728571Y-76829200D01*
X176728571Y-76829200D02*
X176614286Y-76867295D01*
X176614286Y-76867295D02*
X176538095Y-76867295D01*
X176538095Y-76867295D02*
X176423809Y-76829200D01*
X176423809Y-76829200D02*
X176347619Y-76753009D01*
X176347619Y-76753009D02*
X176309524Y-76676819D01*
X176309524Y-76676819D02*
X176271428Y-76524438D01*
X176271428Y-76524438D02*
X176271428Y-76410152D01*
X176271428Y-76410152D02*
X176309524Y-76257771D01*
X176309524Y-76257771D02*
X176347619Y-76181580D01*
X176347619Y-76181580D02*
X176423809Y-76105390D01*
X176423809Y-76105390D02*
X176538095Y-76067295D01*
X176538095Y-76067295D02*
X176614286Y-76067295D01*
X176614286Y-76067295D02*
X176728571Y-76105390D01*
X176728571Y-76105390D02*
X176766667Y-76143485D01*
X177490476Y-76067295D02*
X177109524Y-76067295D01*
X177109524Y-76067295D02*
X177071428Y-76448247D01*
X177071428Y-76448247D02*
X177109524Y-76410152D01*
X177109524Y-76410152D02*
X177185714Y-76372057D01*
X177185714Y-76372057D02*
X177376190Y-76372057D01*
X177376190Y-76372057D02*
X177452381Y-76410152D01*
X177452381Y-76410152D02*
X177490476Y-76448247D01*
X177490476Y-76448247D02*
X177528571Y-76524438D01*
X177528571Y-76524438D02*
X177528571Y-76714914D01*
X177528571Y-76714914D02*
X177490476Y-76791104D01*
X177490476Y-76791104D02*
X177452381Y-76829200D01*
X177452381Y-76829200D02*
X177376190Y-76867295D01*
X177376190Y-76867295D02*
X177185714Y-76867295D01*
X177185714Y-76867295D02*
X177109524Y-76829200D01*
X177109524Y-76829200D02*
X177071428Y-76791104D01*
X174685714Y-89767295D02*
X174419047Y-89386342D01*
X174228571Y-89767295D02*
X174228571Y-88967295D01*
X174228571Y-88967295D02*
X174533333Y-88967295D01*
X174533333Y-88967295D02*
X174609523Y-89005390D01*
X174609523Y-89005390D02*
X174647618Y-89043485D01*
X174647618Y-89043485D02*
X174685714Y-89119676D01*
X174685714Y-89119676D02*
X174685714Y-89233961D01*
X174685714Y-89233961D02*
X174647618Y-89310152D01*
X174647618Y-89310152D02*
X174609523Y-89348247D01*
X174609523Y-89348247D02*
X174533333Y-89386342D01*
X174533333Y-89386342D02*
X174228571Y-89386342D01*
X175447618Y-89767295D02*
X174990475Y-89767295D01*
X175219047Y-89767295D02*
X175219047Y-88967295D01*
X175219047Y-88967295D02*
X175142856Y-89081580D01*
X175142856Y-89081580D02*
X175066666Y-89157771D01*
X175066666Y-89157771D02*
X174990475Y-89195866D01*
X176133333Y-89233961D02*
X176133333Y-89767295D01*
X175942857Y-88929200D02*
X175752380Y-89500628D01*
X175752380Y-89500628D02*
X176247619Y-89500628D01*
X151785714Y-79591104D02*
X151747618Y-79629200D01*
X151747618Y-79629200D02*
X151633333Y-79667295D01*
X151633333Y-79667295D02*
X151557142Y-79667295D01*
X151557142Y-79667295D02*
X151442856Y-79629200D01*
X151442856Y-79629200D02*
X151366666Y-79553009D01*
X151366666Y-79553009D02*
X151328571Y-79476819D01*
X151328571Y-79476819D02*
X151290475Y-79324438D01*
X151290475Y-79324438D02*
X151290475Y-79210152D01*
X151290475Y-79210152D02*
X151328571Y-79057771D01*
X151328571Y-79057771D02*
X151366666Y-78981580D01*
X151366666Y-78981580D02*
X151442856Y-78905390D01*
X151442856Y-78905390D02*
X151557142Y-78867295D01*
X151557142Y-78867295D02*
X151633333Y-78867295D01*
X151633333Y-78867295D02*
X151747618Y-78905390D01*
X151747618Y-78905390D02*
X151785714Y-78943485D01*
X152547618Y-79667295D02*
X152090475Y-79667295D01*
X152319047Y-79667295D02*
X152319047Y-78867295D01*
X152319047Y-78867295D02*
X152242856Y-78981580D01*
X152242856Y-78981580D02*
X152166666Y-79057771D01*
X152166666Y-79057771D02*
X152090475Y-79095866D01*
X153309523Y-79667295D02*
X152852380Y-79667295D01*
X153080952Y-79667295D02*
X153080952Y-78867295D01*
X153080952Y-78867295D02*
X153004761Y-78981580D01*
X153004761Y-78981580D02*
X152928571Y-79057771D01*
X152928571Y-79057771D02*
X152852380Y-79095866D01*
X169090476Y-77192295D02*
X169090476Y-77839914D01*
X169090476Y-77839914D02*
X169128571Y-77916104D01*
X169128571Y-77916104D02*
X169166666Y-77954200D01*
X169166666Y-77954200D02*
X169242857Y-77992295D01*
X169242857Y-77992295D02*
X169395238Y-77992295D01*
X169395238Y-77992295D02*
X169471428Y-77954200D01*
X169471428Y-77954200D02*
X169509523Y-77916104D01*
X169509523Y-77916104D02*
X169547619Y-77839914D01*
X169547619Y-77839914D02*
X169547619Y-77192295D01*
X169890475Y-77268485D02*
X169928571Y-77230390D01*
X169928571Y-77230390D02*
X170004761Y-77192295D01*
X170004761Y-77192295D02*
X170195237Y-77192295D01*
X170195237Y-77192295D02*
X170271428Y-77230390D01*
X170271428Y-77230390D02*
X170309523Y-77268485D01*
X170309523Y-77268485D02*
X170347618Y-77344676D01*
X170347618Y-77344676D02*
X170347618Y-77420866D01*
X170347618Y-77420866D02*
X170309523Y-77535152D01*
X170309523Y-77535152D02*
X169852380Y-77992295D01*
X169852380Y-77992295D02*
X170347618Y-77992295D01*
X145785714Y-76767295D02*
X145519047Y-76386342D01*
X145328571Y-76767295D02*
X145328571Y-75967295D01*
X145328571Y-75967295D02*
X145633333Y-75967295D01*
X145633333Y-75967295D02*
X145709523Y-76005390D01*
X145709523Y-76005390D02*
X145747618Y-76043485D01*
X145747618Y-76043485D02*
X145785714Y-76119676D01*
X145785714Y-76119676D02*
X145785714Y-76233961D01*
X145785714Y-76233961D02*
X145747618Y-76310152D01*
X145747618Y-76310152D02*
X145709523Y-76348247D01*
X145709523Y-76348247D02*
X145633333Y-76386342D01*
X145633333Y-76386342D02*
X145328571Y-76386342D01*
X146547618Y-76767295D02*
X146090475Y-76767295D01*
X146319047Y-76767295D02*
X146319047Y-75967295D01*
X146319047Y-75967295D02*
X146242856Y-76081580D01*
X146242856Y-76081580D02*
X146166666Y-76157771D01*
X146166666Y-76157771D02*
X146090475Y-76195866D01*
X146814285Y-75967295D02*
X147347619Y-75967295D01*
X147347619Y-75967295D02*
X147004761Y-76767295D01*
X142862295Y-90945475D02*
X142062295Y-90945475D01*
X142062295Y-90945475D02*
X142062295Y-90754999D01*
X142062295Y-90754999D02*
X142100390Y-90640713D01*
X142100390Y-90640713D02*
X142176580Y-90564523D01*
X142176580Y-90564523D02*
X142252771Y-90526428D01*
X142252771Y-90526428D02*
X142405152Y-90488332D01*
X142405152Y-90488332D02*
X142519438Y-90488332D01*
X142519438Y-90488332D02*
X142671819Y-90526428D01*
X142671819Y-90526428D02*
X142748009Y-90564523D01*
X142748009Y-90564523D02*
X142824200Y-90640713D01*
X142824200Y-90640713D02*
X142862295Y-90754999D01*
X142862295Y-90754999D02*
X142862295Y-90945475D01*
X142862295Y-89726428D02*
X142862295Y-90183571D01*
X142862295Y-89954999D02*
X142062295Y-89954999D01*
X142062295Y-89954999D02*
X142176580Y-90031190D01*
X142176580Y-90031190D02*
X142252771Y-90107380D01*
X142252771Y-90107380D02*
X142290866Y-90183571D01*
X163366667Y-83591104D02*
X163328571Y-83629200D01*
X163328571Y-83629200D02*
X163214286Y-83667295D01*
X163214286Y-83667295D02*
X163138095Y-83667295D01*
X163138095Y-83667295D02*
X163023809Y-83629200D01*
X163023809Y-83629200D02*
X162947619Y-83553009D01*
X162947619Y-83553009D02*
X162909524Y-83476819D01*
X162909524Y-83476819D02*
X162871428Y-83324438D01*
X162871428Y-83324438D02*
X162871428Y-83210152D01*
X162871428Y-83210152D02*
X162909524Y-83057771D01*
X162909524Y-83057771D02*
X162947619Y-82981580D01*
X162947619Y-82981580D02*
X163023809Y-82905390D01*
X163023809Y-82905390D02*
X163138095Y-82867295D01*
X163138095Y-82867295D02*
X163214286Y-82867295D01*
X163214286Y-82867295D02*
X163328571Y-82905390D01*
X163328571Y-82905390D02*
X163366667Y-82943485D01*
X163633333Y-82867295D02*
X164166667Y-82867295D01*
X164166667Y-82867295D02*
X163823809Y-83667295D01*
D14*
X165366667Y-85368855D02*
X165100000Y-84987902D01*
X164909524Y-85368855D02*
X164909524Y-84568855D01*
X164909524Y-84568855D02*
X165214286Y-84568855D01*
X165214286Y-84568855D02*
X165290476Y-84606950D01*
X165290476Y-84606950D02*
X165328571Y-84645045D01*
X165328571Y-84645045D02*
X165366667Y-84721236D01*
X165366667Y-84721236D02*
X165366667Y-84835521D01*
X165366667Y-84835521D02*
X165328571Y-84911712D01*
X165328571Y-84911712D02*
X165290476Y-84949807D01*
X165290476Y-84949807D02*
X165214286Y-84987902D01*
X165214286Y-84987902D02*
X164909524Y-84987902D01*
X165747619Y-85368855D02*
X165900000Y-85368855D01*
X165900000Y-85368855D02*
X165976190Y-85330760D01*
X165976190Y-85330760D02*
X166014286Y-85292664D01*
X166014286Y-85292664D02*
X166090476Y-85178379D01*
X166090476Y-85178379D02*
X166128571Y-85025998D01*
X166128571Y-85025998D02*
X166128571Y-84721236D01*
X166128571Y-84721236D02*
X166090476Y-84645045D01*
X166090476Y-84645045D02*
X166052381Y-84606950D01*
X166052381Y-84606950D02*
X165976190Y-84568855D01*
X165976190Y-84568855D02*
X165823809Y-84568855D01*
X165823809Y-84568855D02*
X165747619Y-84606950D01*
X165747619Y-84606950D02*
X165709524Y-84645045D01*
X165709524Y-84645045D02*
X165671428Y-84721236D01*
X165671428Y-84721236D02*
X165671428Y-84911712D01*
X165671428Y-84911712D02*
X165709524Y-84987902D01*
X165709524Y-84987902D02*
X165747619Y-85025998D01*
X165747619Y-85025998D02*
X165823809Y-85064093D01*
X165823809Y-85064093D02*
X165976190Y-85064093D01*
X165976190Y-85064093D02*
X166052381Y-85025998D01*
X166052381Y-85025998D02*
X166090476Y-84987902D01*
X166090476Y-84987902D02*
X166128571Y-84911712D01*
D13*
X168966667Y-68491104D02*
X168928571Y-68529200D01*
X168928571Y-68529200D02*
X168814286Y-68567295D01*
X168814286Y-68567295D02*
X168738095Y-68567295D01*
X168738095Y-68567295D02*
X168623809Y-68529200D01*
X168623809Y-68529200D02*
X168547619Y-68453009D01*
X168547619Y-68453009D02*
X168509524Y-68376819D01*
X168509524Y-68376819D02*
X168471428Y-68224438D01*
X168471428Y-68224438D02*
X168471428Y-68110152D01*
X168471428Y-68110152D02*
X168509524Y-67957771D01*
X168509524Y-67957771D02*
X168547619Y-67881580D01*
X168547619Y-67881580D02*
X168623809Y-67805390D01*
X168623809Y-67805390D02*
X168738095Y-67767295D01*
X168738095Y-67767295D02*
X168814286Y-67767295D01*
X168814286Y-67767295D02*
X168928571Y-67805390D01*
X168928571Y-67805390D02*
X168966667Y-67843485D01*
X169233333Y-67767295D02*
X169728571Y-67767295D01*
X169728571Y-67767295D02*
X169461905Y-68072057D01*
X169461905Y-68072057D02*
X169576190Y-68072057D01*
X169576190Y-68072057D02*
X169652381Y-68110152D01*
X169652381Y-68110152D02*
X169690476Y-68148247D01*
X169690476Y-68148247D02*
X169728571Y-68224438D01*
X169728571Y-68224438D02*
X169728571Y-68414914D01*
X169728571Y-68414914D02*
X169690476Y-68491104D01*
X169690476Y-68491104D02*
X169652381Y-68529200D01*
X169652381Y-68529200D02*
X169576190Y-68567295D01*
X169576190Y-68567295D02*
X169347619Y-68567295D01*
X169347619Y-68567295D02*
X169271428Y-68529200D01*
X169271428Y-68529200D02*
X169233333Y-68491104D01*
X168066667Y-84191104D02*
X168028571Y-84229200D01*
X168028571Y-84229200D02*
X167914286Y-84267295D01*
X167914286Y-84267295D02*
X167838095Y-84267295D01*
X167838095Y-84267295D02*
X167723809Y-84229200D01*
X167723809Y-84229200D02*
X167647619Y-84153009D01*
X167647619Y-84153009D02*
X167609524Y-84076819D01*
X167609524Y-84076819D02*
X167571428Y-83924438D01*
X167571428Y-83924438D02*
X167571428Y-83810152D01*
X167571428Y-83810152D02*
X167609524Y-83657771D01*
X167609524Y-83657771D02*
X167647619Y-83581580D01*
X167647619Y-83581580D02*
X167723809Y-83505390D01*
X167723809Y-83505390D02*
X167838095Y-83467295D01*
X167838095Y-83467295D02*
X167914286Y-83467295D01*
X167914286Y-83467295D02*
X168028571Y-83505390D01*
X168028571Y-83505390D02*
X168066667Y-83543485D01*
X168752381Y-83733961D02*
X168752381Y-84267295D01*
X168561905Y-83429200D02*
X168371428Y-84000628D01*
X168371428Y-84000628D02*
X168866667Y-84000628D01*
X157985714Y-74767295D02*
X157719047Y-74386342D01*
X157528571Y-74767295D02*
X157528571Y-73967295D01*
X157528571Y-73967295D02*
X157833333Y-73967295D01*
X157833333Y-73967295D02*
X157909523Y-74005390D01*
X157909523Y-74005390D02*
X157947618Y-74043485D01*
X157947618Y-74043485D02*
X157985714Y-74119676D01*
X157985714Y-74119676D02*
X157985714Y-74233961D01*
X157985714Y-74233961D02*
X157947618Y-74310152D01*
X157947618Y-74310152D02*
X157909523Y-74348247D01*
X157909523Y-74348247D02*
X157833333Y-74386342D01*
X157833333Y-74386342D02*
X157528571Y-74386342D01*
X158747618Y-74767295D02*
X158290475Y-74767295D01*
X158519047Y-74767295D02*
X158519047Y-73967295D01*
X158519047Y-73967295D02*
X158442856Y-74081580D01*
X158442856Y-74081580D02*
X158366666Y-74157771D01*
X158366666Y-74157771D02*
X158290475Y-74195866D01*
X159471428Y-73967295D02*
X159090476Y-73967295D01*
X159090476Y-73967295D02*
X159052380Y-74348247D01*
X159052380Y-74348247D02*
X159090476Y-74310152D01*
X159090476Y-74310152D02*
X159166666Y-74272057D01*
X159166666Y-74272057D02*
X159357142Y-74272057D01*
X159357142Y-74272057D02*
X159433333Y-74310152D01*
X159433333Y-74310152D02*
X159471428Y-74348247D01*
X159471428Y-74348247D02*
X159509523Y-74424438D01*
X159509523Y-74424438D02*
X159509523Y-74614914D01*
X159509523Y-74614914D02*
X159471428Y-74691104D01*
X159471428Y-74691104D02*
X159433333Y-74729200D01*
X159433333Y-74729200D02*
X159357142Y-74767295D01*
X159357142Y-74767295D02*
X159166666Y-74767295D01*
X159166666Y-74767295D02*
X159090476Y-74729200D01*
X159090476Y-74729200D02*
X159052380Y-74691104D01*
X157961905Y-76659819D02*
X157961905Y-75659819D01*
X157961905Y-75659819D02*
X158200000Y-75659819D01*
X158200000Y-75659819D02*
X158342857Y-75707438D01*
X158342857Y-75707438D02*
X158438095Y-75802676D01*
X158438095Y-75802676D02*
X158485714Y-75897914D01*
X158485714Y-75897914D02*
X158533333Y-76088390D01*
X158533333Y-76088390D02*
X158533333Y-76231247D01*
X158533333Y-76231247D02*
X158485714Y-76421723D01*
X158485714Y-76421723D02*
X158438095Y-76516961D01*
X158438095Y-76516961D02*
X158342857Y-76612200D01*
X158342857Y-76612200D02*
X158200000Y-76659819D01*
X158200000Y-76659819D02*
X157961905Y-76659819D01*
X158914286Y-75755057D02*
X158961905Y-75707438D01*
X158961905Y-75707438D02*
X159057143Y-75659819D01*
X159057143Y-75659819D02*
X159295238Y-75659819D01*
X159295238Y-75659819D02*
X159390476Y-75707438D01*
X159390476Y-75707438D02*
X159438095Y-75755057D01*
X159438095Y-75755057D02*
X159485714Y-75850295D01*
X159485714Y-75850295D02*
X159485714Y-75945533D01*
X159485714Y-75945533D02*
X159438095Y-76088390D01*
X159438095Y-76088390D02*
X158866667Y-76659819D01*
X158866667Y-76659819D02*
X159485714Y-76659819D01*
X169290476Y-84967295D02*
X169290476Y-85614914D01*
X169290476Y-85614914D02*
X169328571Y-85691104D01*
X169328571Y-85691104D02*
X169366666Y-85729200D01*
X169366666Y-85729200D02*
X169442857Y-85767295D01*
X169442857Y-85767295D02*
X169595238Y-85767295D01*
X169595238Y-85767295D02*
X169671428Y-85729200D01*
X169671428Y-85729200D02*
X169709523Y-85691104D01*
X169709523Y-85691104D02*
X169747619Y-85614914D01*
X169747619Y-85614914D02*
X169747619Y-84967295D01*
X170052380Y-84967295D02*
X170547618Y-84967295D01*
X170547618Y-84967295D02*
X170280952Y-85272057D01*
X170280952Y-85272057D02*
X170395237Y-85272057D01*
X170395237Y-85272057D02*
X170471428Y-85310152D01*
X170471428Y-85310152D02*
X170509523Y-85348247D01*
X170509523Y-85348247D02*
X170547618Y-85424438D01*
X170547618Y-85424438D02*
X170547618Y-85614914D01*
X170547618Y-85614914D02*
X170509523Y-85691104D01*
X170509523Y-85691104D02*
X170471428Y-85729200D01*
X170471428Y-85729200D02*
X170395237Y-85767295D01*
X170395237Y-85767295D02*
X170166666Y-85767295D01*
X170166666Y-85767295D02*
X170090475Y-85729200D01*
X170090475Y-85729200D02*
X170052380Y-85691104D01*
X141766667Y-78167295D02*
X141500000Y-77786342D01*
X141309524Y-78167295D02*
X141309524Y-77367295D01*
X141309524Y-77367295D02*
X141614286Y-77367295D01*
X141614286Y-77367295D02*
X141690476Y-77405390D01*
X141690476Y-77405390D02*
X141728571Y-77443485D01*
X141728571Y-77443485D02*
X141766667Y-77519676D01*
X141766667Y-77519676D02*
X141766667Y-77633961D01*
X141766667Y-77633961D02*
X141728571Y-77710152D01*
X141728571Y-77710152D02*
X141690476Y-77748247D01*
X141690476Y-77748247D02*
X141614286Y-77786342D01*
X141614286Y-77786342D02*
X141309524Y-77786342D01*
X142528571Y-78167295D02*
X142071428Y-78167295D01*
X142300000Y-78167295D02*
X142300000Y-77367295D01*
X142300000Y-77367295D02*
X142223809Y-77481580D01*
X142223809Y-77481580D02*
X142147619Y-77557771D01*
X142147619Y-77557771D02*
X142071428Y-77595866D01*
X153142262Y-65262533D02*
X153751786Y-65262533D01*
X154056547Y-64767295D02*
X154551785Y-64767295D01*
X154551785Y-64767295D02*
X154285119Y-65072057D01*
X154285119Y-65072057D02*
X154399404Y-65072057D01*
X154399404Y-65072057D02*
X154475595Y-65110152D01*
X154475595Y-65110152D02*
X154513690Y-65148247D01*
X154513690Y-65148247D02*
X154551785Y-65224438D01*
X154551785Y-65224438D02*
X154551785Y-65414914D01*
X154551785Y-65414914D02*
X154513690Y-65491104D01*
X154513690Y-65491104D02*
X154475595Y-65529200D01*
X154475595Y-65529200D02*
X154399404Y-65567295D01*
X154399404Y-65567295D02*
X154170833Y-65567295D01*
X154170833Y-65567295D02*
X154094642Y-65529200D01*
X154094642Y-65529200D02*
X154056547Y-65491104D01*
X155047024Y-64767295D02*
X155123214Y-64767295D01*
X155123214Y-64767295D02*
X155199405Y-64805390D01*
X155199405Y-64805390D02*
X155237500Y-64843485D01*
X155237500Y-64843485D02*
X155275595Y-64919676D01*
X155275595Y-64919676D02*
X155313690Y-65072057D01*
X155313690Y-65072057D02*
X155313690Y-65262533D01*
X155313690Y-65262533D02*
X155275595Y-65414914D01*
X155275595Y-65414914D02*
X155237500Y-65491104D01*
X155237500Y-65491104D02*
X155199405Y-65529200D01*
X155199405Y-65529200D02*
X155123214Y-65567295D01*
X155123214Y-65567295D02*
X155047024Y-65567295D01*
X155047024Y-65567295D02*
X154970833Y-65529200D01*
X154970833Y-65529200D02*
X154932738Y-65491104D01*
X154932738Y-65491104D02*
X154894643Y-65414914D01*
X154894643Y-65414914D02*
X154856547Y-65262533D01*
X154856547Y-65262533D02*
X154856547Y-65072057D01*
X154856547Y-65072057D02*
X154894643Y-64919676D01*
X154894643Y-64919676D02*
X154932738Y-64843485D01*
X154932738Y-64843485D02*
X154970833Y-64805390D01*
X154970833Y-64805390D02*
X155047024Y-64767295D01*
X155542262Y-64767295D02*
X155808929Y-65567295D01*
X155808929Y-65567295D02*
X156075595Y-64767295D01*
X156151786Y-65643485D02*
X156761309Y-65643485D01*
X156951786Y-65567295D02*
X156951786Y-64767295D01*
X156951786Y-64767295D02*
X157256548Y-64767295D01*
X157256548Y-64767295D02*
X157332738Y-64805390D01*
X157332738Y-64805390D02*
X157370833Y-64843485D01*
X157370833Y-64843485D02*
X157408929Y-64919676D01*
X157408929Y-64919676D02*
X157408929Y-65033961D01*
X157408929Y-65033961D02*
X157370833Y-65110152D01*
X157370833Y-65110152D02*
X157332738Y-65148247D01*
X157332738Y-65148247D02*
X157256548Y-65186342D01*
X157256548Y-65186342D02*
X156951786Y-65186342D01*
X158170833Y-64805390D02*
X158094643Y-64767295D01*
X158094643Y-64767295D02*
X157980357Y-64767295D01*
X157980357Y-64767295D02*
X157866071Y-64805390D01*
X157866071Y-64805390D02*
X157789881Y-64881580D01*
X157789881Y-64881580D02*
X157751786Y-64957771D01*
X157751786Y-64957771D02*
X157713690Y-65110152D01*
X157713690Y-65110152D02*
X157713690Y-65224438D01*
X157713690Y-65224438D02*
X157751786Y-65376819D01*
X157751786Y-65376819D02*
X157789881Y-65453009D01*
X157789881Y-65453009D02*
X157866071Y-65529200D01*
X157866071Y-65529200D02*
X157980357Y-65567295D01*
X157980357Y-65567295D02*
X158056548Y-65567295D01*
X158056548Y-65567295D02*
X158170833Y-65529200D01*
X158170833Y-65529200D02*
X158208929Y-65491104D01*
X158208929Y-65491104D02*
X158208929Y-65224438D01*
X158208929Y-65224438D02*
X158056548Y-65224438D01*
X158970833Y-65567295D02*
X158513690Y-65567295D01*
X158742262Y-65567295D02*
X158742262Y-64767295D01*
X158742262Y-64767295D02*
X158666071Y-64881580D01*
X158666071Y-64881580D02*
X158589881Y-64957771D01*
X158589881Y-64957771D02*
X158513690Y-64995866D01*
X153385714Y-76767295D02*
X153119047Y-76386342D01*
X152928571Y-76767295D02*
X152928571Y-75967295D01*
X152928571Y-75967295D02*
X153233333Y-75967295D01*
X153233333Y-75967295D02*
X153309523Y-76005390D01*
X153309523Y-76005390D02*
X153347618Y-76043485D01*
X153347618Y-76043485D02*
X153385714Y-76119676D01*
X153385714Y-76119676D02*
X153385714Y-76233961D01*
X153385714Y-76233961D02*
X153347618Y-76310152D01*
X153347618Y-76310152D02*
X153309523Y-76348247D01*
X153309523Y-76348247D02*
X153233333Y-76386342D01*
X153233333Y-76386342D02*
X152928571Y-76386342D01*
X154147618Y-76767295D02*
X153690475Y-76767295D01*
X153919047Y-76767295D02*
X153919047Y-75967295D01*
X153919047Y-75967295D02*
X153842856Y-76081580D01*
X153842856Y-76081580D02*
X153766666Y-76157771D01*
X153766666Y-76157771D02*
X153690475Y-76195866D01*
X154833333Y-75967295D02*
X154680952Y-75967295D01*
X154680952Y-75967295D02*
X154604761Y-76005390D01*
X154604761Y-76005390D02*
X154566666Y-76043485D01*
X154566666Y-76043485D02*
X154490476Y-76157771D01*
X154490476Y-76157771D02*
X154452380Y-76310152D01*
X154452380Y-76310152D02*
X154452380Y-76614914D01*
X154452380Y-76614914D02*
X154490476Y-76691104D01*
X154490476Y-76691104D02*
X154528571Y-76729200D01*
X154528571Y-76729200D02*
X154604761Y-76767295D01*
X154604761Y-76767295D02*
X154757142Y-76767295D01*
X154757142Y-76767295D02*
X154833333Y-76729200D01*
X154833333Y-76729200D02*
X154871428Y-76691104D01*
X154871428Y-76691104D02*
X154909523Y-76614914D01*
X154909523Y-76614914D02*
X154909523Y-76424438D01*
X154909523Y-76424438D02*
X154871428Y-76348247D01*
X154871428Y-76348247D02*
X154833333Y-76310152D01*
X154833333Y-76310152D02*
X154757142Y-76272057D01*
X154757142Y-76272057D02*
X154604761Y-76272057D01*
X154604761Y-76272057D02*
X154528571Y-76310152D01*
X154528571Y-76310152D02*
X154490476Y-76348247D01*
X154490476Y-76348247D02*
X154452380Y-76424438D01*
X157785714Y-84167295D02*
X157519047Y-83786342D01*
X157328571Y-84167295D02*
X157328571Y-83367295D01*
X157328571Y-83367295D02*
X157633333Y-83367295D01*
X157633333Y-83367295D02*
X157709523Y-83405390D01*
X157709523Y-83405390D02*
X157747618Y-83443485D01*
X157747618Y-83443485D02*
X157785714Y-83519676D01*
X157785714Y-83519676D02*
X157785714Y-83633961D01*
X157785714Y-83633961D02*
X157747618Y-83710152D01*
X157747618Y-83710152D02*
X157709523Y-83748247D01*
X157709523Y-83748247D02*
X157633333Y-83786342D01*
X157633333Y-83786342D02*
X157328571Y-83786342D01*
X158547618Y-84167295D02*
X158090475Y-84167295D01*
X158319047Y-84167295D02*
X158319047Y-83367295D01*
X158319047Y-83367295D02*
X158242856Y-83481580D01*
X158242856Y-83481580D02*
X158166666Y-83557771D01*
X158166666Y-83557771D02*
X158090475Y-83595866D01*
X159004761Y-83710152D02*
X158928571Y-83672057D01*
X158928571Y-83672057D02*
X158890476Y-83633961D01*
X158890476Y-83633961D02*
X158852380Y-83557771D01*
X158852380Y-83557771D02*
X158852380Y-83519676D01*
X158852380Y-83519676D02*
X158890476Y-83443485D01*
X158890476Y-83443485D02*
X158928571Y-83405390D01*
X158928571Y-83405390D02*
X159004761Y-83367295D01*
X159004761Y-83367295D02*
X159157142Y-83367295D01*
X159157142Y-83367295D02*
X159233333Y-83405390D01*
X159233333Y-83405390D02*
X159271428Y-83443485D01*
X159271428Y-83443485D02*
X159309523Y-83519676D01*
X159309523Y-83519676D02*
X159309523Y-83557771D01*
X159309523Y-83557771D02*
X159271428Y-83633961D01*
X159271428Y-83633961D02*
X159233333Y-83672057D01*
X159233333Y-83672057D02*
X159157142Y-83710152D01*
X159157142Y-83710152D02*
X159004761Y-83710152D01*
X159004761Y-83710152D02*
X158928571Y-83748247D01*
X158928571Y-83748247D02*
X158890476Y-83786342D01*
X158890476Y-83786342D02*
X158852380Y-83862533D01*
X158852380Y-83862533D02*
X158852380Y-84014914D01*
X158852380Y-84014914D02*
X158890476Y-84091104D01*
X158890476Y-84091104D02*
X158928571Y-84129200D01*
X158928571Y-84129200D02*
X159004761Y-84167295D01*
X159004761Y-84167295D02*
X159157142Y-84167295D01*
X159157142Y-84167295D02*
X159233333Y-84129200D01*
X159233333Y-84129200D02*
X159271428Y-84091104D01*
X159271428Y-84091104D02*
X159309523Y-84014914D01*
X159309523Y-84014914D02*
X159309523Y-83862533D01*
X159309523Y-83862533D02*
X159271428Y-83786342D01*
X159271428Y-83786342D02*
X159233333Y-83748247D01*
X159233333Y-83748247D02*
X159157142Y-83710152D01*
X165366667Y-70091104D02*
X165328571Y-70129200D01*
X165328571Y-70129200D02*
X165214286Y-70167295D01*
X165214286Y-70167295D02*
X165138095Y-70167295D01*
X165138095Y-70167295D02*
X165023809Y-70129200D01*
X165023809Y-70129200D02*
X164947619Y-70053009D01*
X164947619Y-70053009D02*
X164909524Y-69976819D01*
X164909524Y-69976819D02*
X164871428Y-69824438D01*
X164871428Y-69824438D02*
X164871428Y-69710152D01*
X164871428Y-69710152D02*
X164909524Y-69557771D01*
X164909524Y-69557771D02*
X164947619Y-69481580D01*
X164947619Y-69481580D02*
X165023809Y-69405390D01*
X165023809Y-69405390D02*
X165138095Y-69367295D01*
X165138095Y-69367295D02*
X165214286Y-69367295D01*
X165214286Y-69367295D02*
X165328571Y-69405390D01*
X165328571Y-69405390D02*
X165366667Y-69443485D01*
X165671428Y-69443485D02*
X165709524Y-69405390D01*
X165709524Y-69405390D02*
X165785714Y-69367295D01*
X165785714Y-69367295D02*
X165976190Y-69367295D01*
X165976190Y-69367295D02*
X166052381Y-69405390D01*
X166052381Y-69405390D02*
X166090476Y-69443485D01*
X166090476Y-69443485D02*
X166128571Y-69519676D01*
X166128571Y-69519676D02*
X166128571Y-69595866D01*
X166128571Y-69595866D02*
X166090476Y-69710152D01*
X166090476Y-69710152D02*
X165633333Y-70167295D01*
X165633333Y-70167295D02*
X166128571Y-70167295D01*
X170566667Y-90091104D02*
X170528571Y-90129200D01*
X170528571Y-90129200D02*
X170414286Y-90167295D01*
X170414286Y-90167295D02*
X170338095Y-90167295D01*
X170338095Y-90167295D02*
X170223809Y-90129200D01*
X170223809Y-90129200D02*
X170147619Y-90053009D01*
X170147619Y-90053009D02*
X170109524Y-89976819D01*
X170109524Y-89976819D02*
X170071428Y-89824438D01*
X170071428Y-89824438D02*
X170071428Y-89710152D01*
X170071428Y-89710152D02*
X170109524Y-89557771D01*
X170109524Y-89557771D02*
X170147619Y-89481580D01*
X170147619Y-89481580D02*
X170223809Y-89405390D01*
X170223809Y-89405390D02*
X170338095Y-89367295D01*
X170338095Y-89367295D02*
X170414286Y-89367295D01*
X170414286Y-89367295D02*
X170528571Y-89405390D01*
X170528571Y-89405390D02*
X170566667Y-89443485D01*
X171252381Y-89367295D02*
X171100000Y-89367295D01*
X171100000Y-89367295D02*
X171023809Y-89405390D01*
X171023809Y-89405390D02*
X170985714Y-89443485D01*
X170985714Y-89443485D02*
X170909524Y-89557771D01*
X170909524Y-89557771D02*
X170871428Y-89710152D01*
X170871428Y-89710152D02*
X170871428Y-90014914D01*
X170871428Y-90014914D02*
X170909524Y-90091104D01*
X170909524Y-90091104D02*
X170947619Y-90129200D01*
X170947619Y-90129200D02*
X171023809Y-90167295D01*
X171023809Y-90167295D02*
X171176190Y-90167295D01*
X171176190Y-90167295D02*
X171252381Y-90129200D01*
X171252381Y-90129200D02*
X171290476Y-90091104D01*
X171290476Y-90091104D02*
X171328571Y-90014914D01*
X171328571Y-90014914D02*
X171328571Y-89824438D01*
X171328571Y-89824438D02*
X171290476Y-89748247D01*
X171290476Y-89748247D02*
X171252381Y-89710152D01*
X171252381Y-89710152D02*
X171176190Y-89672057D01*
X171176190Y-89672057D02*
X171023809Y-89672057D01*
X171023809Y-89672057D02*
X170947619Y-89710152D01*
X170947619Y-89710152D02*
X170909524Y-89748247D01*
X170909524Y-89748247D02*
X170871428Y-89824438D01*
X155929167Y-69637295D02*
X155662500Y-69256342D01*
X155472024Y-69637295D02*
X155472024Y-68837295D01*
X155472024Y-68837295D02*
X155776786Y-68837295D01*
X155776786Y-68837295D02*
X155852976Y-68875390D01*
X155852976Y-68875390D02*
X155891071Y-68913485D01*
X155891071Y-68913485D02*
X155929167Y-68989676D01*
X155929167Y-68989676D02*
X155929167Y-69103961D01*
X155929167Y-69103961D02*
X155891071Y-69180152D01*
X155891071Y-69180152D02*
X155852976Y-69218247D01*
X155852976Y-69218247D02*
X155776786Y-69256342D01*
X155776786Y-69256342D02*
X155472024Y-69256342D01*
X156614881Y-69103961D02*
X156614881Y-69637295D01*
X156424405Y-68799200D02*
X156233928Y-69370628D01*
X156233928Y-69370628D02*
X156729167Y-69370628D01*
X148341667Y-69737295D02*
X148075000Y-69356342D01*
X147884524Y-69737295D02*
X147884524Y-68937295D01*
X147884524Y-68937295D02*
X148189286Y-68937295D01*
X148189286Y-68937295D02*
X148265476Y-68975390D01*
X148265476Y-68975390D02*
X148303571Y-69013485D01*
X148303571Y-69013485D02*
X148341667Y-69089676D01*
X148341667Y-69089676D02*
X148341667Y-69203961D01*
X148341667Y-69203961D02*
X148303571Y-69280152D01*
X148303571Y-69280152D02*
X148265476Y-69318247D01*
X148265476Y-69318247D02*
X148189286Y-69356342D01*
X148189286Y-69356342D02*
X147884524Y-69356342D01*
X148608333Y-68937295D02*
X149103571Y-68937295D01*
X149103571Y-68937295D02*
X148836905Y-69242057D01*
X148836905Y-69242057D02*
X148951190Y-69242057D01*
X148951190Y-69242057D02*
X149027381Y-69280152D01*
X149027381Y-69280152D02*
X149065476Y-69318247D01*
X149065476Y-69318247D02*
X149103571Y-69394438D01*
X149103571Y-69394438D02*
X149103571Y-69584914D01*
X149103571Y-69584914D02*
X149065476Y-69661104D01*
X149065476Y-69661104D02*
X149027381Y-69699200D01*
X149027381Y-69699200D02*
X148951190Y-69737295D01*
X148951190Y-69737295D02*
X148722619Y-69737295D01*
X148722619Y-69737295D02*
X148646428Y-69699200D01*
X148646428Y-69699200D02*
X148608333Y-69661104D01*
X168485714Y-81967295D02*
X168219047Y-81586342D01*
X168028571Y-81967295D02*
X168028571Y-81167295D01*
X168028571Y-81167295D02*
X168333333Y-81167295D01*
X168333333Y-81167295D02*
X168409523Y-81205390D01*
X168409523Y-81205390D02*
X168447618Y-81243485D01*
X168447618Y-81243485D02*
X168485714Y-81319676D01*
X168485714Y-81319676D02*
X168485714Y-81433961D01*
X168485714Y-81433961D02*
X168447618Y-81510152D01*
X168447618Y-81510152D02*
X168409523Y-81548247D01*
X168409523Y-81548247D02*
X168333333Y-81586342D01*
X168333333Y-81586342D02*
X168028571Y-81586342D01*
X169247618Y-81967295D02*
X168790475Y-81967295D01*
X169019047Y-81967295D02*
X169019047Y-81167295D01*
X169019047Y-81167295D02*
X168942856Y-81281580D01*
X168942856Y-81281580D02*
X168866666Y-81357771D01*
X168866666Y-81357771D02*
X168790475Y-81395866D01*
X169552380Y-81243485D02*
X169590476Y-81205390D01*
X169590476Y-81205390D02*
X169666666Y-81167295D01*
X169666666Y-81167295D02*
X169857142Y-81167295D01*
X169857142Y-81167295D02*
X169933333Y-81205390D01*
X169933333Y-81205390D02*
X169971428Y-81243485D01*
X169971428Y-81243485D02*
X170009523Y-81319676D01*
X170009523Y-81319676D02*
X170009523Y-81395866D01*
X170009523Y-81395866D02*
X169971428Y-81510152D01*
X169971428Y-81510152D02*
X169514285Y-81967295D01*
X169514285Y-81967295D02*
X170009523Y-81967295D01*
X171685714Y-84767295D02*
X171419047Y-84386342D01*
X171228571Y-84767295D02*
X171228571Y-83967295D01*
X171228571Y-83967295D02*
X171533333Y-83967295D01*
X171533333Y-83967295D02*
X171609523Y-84005390D01*
X171609523Y-84005390D02*
X171647618Y-84043485D01*
X171647618Y-84043485D02*
X171685714Y-84119676D01*
X171685714Y-84119676D02*
X171685714Y-84233961D01*
X171685714Y-84233961D02*
X171647618Y-84310152D01*
X171647618Y-84310152D02*
X171609523Y-84348247D01*
X171609523Y-84348247D02*
X171533333Y-84386342D01*
X171533333Y-84386342D02*
X171228571Y-84386342D01*
X172447618Y-84767295D02*
X171990475Y-84767295D01*
X172219047Y-84767295D02*
X172219047Y-83967295D01*
X172219047Y-83967295D02*
X172142856Y-84081580D01*
X172142856Y-84081580D02*
X172066666Y-84157771D01*
X172066666Y-84157771D02*
X171990475Y-84195866D01*
X173209523Y-84767295D02*
X172752380Y-84767295D01*
X172980952Y-84767295D02*
X172980952Y-83967295D01*
X172980952Y-83967295D02*
X172904761Y-84081580D01*
X172904761Y-84081580D02*
X172828571Y-84157771D01*
X172828571Y-84157771D02*
X172752380Y-84195866D01*
X178890476Y-82567295D02*
X179347619Y-82567295D01*
X179119047Y-83367295D02*
X179119047Y-82567295D01*
X179614286Y-83367295D02*
X179614286Y-82567295D01*
X179614286Y-82567295D02*
X179919048Y-82567295D01*
X179919048Y-82567295D02*
X179995238Y-82605390D01*
X179995238Y-82605390D02*
X180033333Y-82643485D01*
X180033333Y-82643485D02*
X180071429Y-82719676D01*
X180071429Y-82719676D02*
X180071429Y-82833961D01*
X180071429Y-82833961D02*
X180033333Y-82910152D01*
X180033333Y-82910152D02*
X179995238Y-82948247D01*
X179995238Y-82948247D02*
X179919048Y-82986342D01*
X179919048Y-82986342D02*
X179614286Y-82986342D01*
X180833333Y-83367295D02*
X180376190Y-83367295D01*
X180604762Y-83367295D02*
X180604762Y-82567295D01*
X180604762Y-82567295D02*
X180528571Y-82681580D01*
X180528571Y-82681580D02*
X180452381Y-82757771D01*
X180452381Y-82757771D02*
X180376190Y-82795866D01*
X167166667Y-71967295D02*
X166900000Y-71586342D01*
X166709524Y-71967295D02*
X166709524Y-71167295D01*
X166709524Y-71167295D02*
X167014286Y-71167295D01*
X167014286Y-71167295D02*
X167090476Y-71205390D01*
X167090476Y-71205390D02*
X167128571Y-71243485D01*
X167128571Y-71243485D02*
X167166667Y-71319676D01*
X167166667Y-71319676D02*
X167166667Y-71433961D01*
X167166667Y-71433961D02*
X167128571Y-71510152D01*
X167128571Y-71510152D02*
X167090476Y-71548247D01*
X167090476Y-71548247D02*
X167014286Y-71586342D01*
X167014286Y-71586342D02*
X166709524Y-71586342D01*
X167890476Y-71167295D02*
X167509524Y-71167295D01*
X167509524Y-71167295D02*
X167471428Y-71548247D01*
X167471428Y-71548247D02*
X167509524Y-71510152D01*
X167509524Y-71510152D02*
X167585714Y-71472057D01*
X167585714Y-71472057D02*
X167776190Y-71472057D01*
X167776190Y-71472057D02*
X167852381Y-71510152D01*
X167852381Y-71510152D02*
X167890476Y-71548247D01*
X167890476Y-71548247D02*
X167928571Y-71624438D01*
X167928571Y-71624438D02*
X167928571Y-71814914D01*
X167928571Y-71814914D02*
X167890476Y-71891104D01*
X167890476Y-71891104D02*
X167852381Y-71929200D01*
X167852381Y-71929200D02*
X167776190Y-71967295D01*
X167776190Y-71967295D02*
X167585714Y-71967295D01*
X167585714Y-71967295D02*
X167509524Y-71929200D01*
X167509524Y-71929200D02*
X167471428Y-71891104D01*
X175466667Y-83467295D02*
X175200000Y-83086342D01*
X175009524Y-83467295D02*
X175009524Y-82667295D01*
X175009524Y-82667295D02*
X175314286Y-82667295D01*
X175314286Y-82667295D02*
X175390476Y-82705390D01*
X175390476Y-82705390D02*
X175428571Y-82743485D01*
X175428571Y-82743485D02*
X175466667Y-82819676D01*
X175466667Y-82819676D02*
X175466667Y-82933961D01*
X175466667Y-82933961D02*
X175428571Y-83010152D01*
X175428571Y-83010152D02*
X175390476Y-83048247D01*
X175390476Y-83048247D02*
X175314286Y-83086342D01*
X175314286Y-83086342D02*
X175009524Y-83086342D01*
X175923809Y-83010152D02*
X175847619Y-82972057D01*
X175847619Y-82972057D02*
X175809524Y-82933961D01*
X175809524Y-82933961D02*
X175771428Y-82857771D01*
X175771428Y-82857771D02*
X175771428Y-82819676D01*
X175771428Y-82819676D02*
X175809524Y-82743485D01*
X175809524Y-82743485D02*
X175847619Y-82705390D01*
X175847619Y-82705390D02*
X175923809Y-82667295D01*
X175923809Y-82667295D02*
X176076190Y-82667295D01*
X176076190Y-82667295D02*
X176152381Y-82705390D01*
X176152381Y-82705390D02*
X176190476Y-82743485D01*
X176190476Y-82743485D02*
X176228571Y-82819676D01*
X176228571Y-82819676D02*
X176228571Y-82857771D01*
X176228571Y-82857771D02*
X176190476Y-82933961D01*
X176190476Y-82933961D02*
X176152381Y-82972057D01*
X176152381Y-82972057D02*
X176076190Y-83010152D01*
X176076190Y-83010152D02*
X175923809Y-83010152D01*
X175923809Y-83010152D02*
X175847619Y-83048247D01*
X175847619Y-83048247D02*
X175809524Y-83086342D01*
X175809524Y-83086342D02*
X175771428Y-83162533D01*
X175771428Y-83162533D02*
X175771428Y-83314914D01*
X175771428Y-83314914D02*
X175809524Y-83391104D01*
X175809524Y-83391104D02*
X175847619Y-83429200D01*
X175847619Y-83429200D02*
X175923809Y-83467295D01*
X175923809Y-83467295D02*
X176076190Y-83467295D01*
X176076190Y-83467295D02*
X176152381Y-83429200D01*
X176152381Y-83429200D02*
X176190476Y-83391104D01*
X176190476Y-83391104D02*
X176228571Y-83314914D01*
X176228571Y-83314914D02*
X176228571Y-83162533D01*
X176228571Y-83162533D02*
X176190476Y-83086342D01*
X176190476Y-83086342D02*
X176152381Y-83048247D01*
X176152381Y-83048247D02*
X176076190Y-83010152D01*
X145898809Y-64767295D02*
X146394047Y-64767295D01*
X146394047Y-64767295D02*
X146127381Y-65072057D01*
X146127381Y-65072057D02*
X146241666Y-65072057D01*
X146241666Y-65072057D02*
X146317857Y-65110152D01*
X146317857Y-65110152D02*
X146355952Y-65148247D01*
X146355952Y-65148247D02*
X146394047Y-65224438D01*
X146394047Y-65224438D02*
X146394047Y-65414914D01*
X146394047Y-65414914D02*
X146355952Y-65491104D01*
X146355952Y-65491104D02*
X146317857Y-65529200D01*
X146317857Y-65529200D02*
X146241666Y-65567295D01*
X146241666Y-65567295D02*
X146013095Y-65567295D01*
X146013095Y-65567295D02*
X145936904Y-65529200D01*
X145936904Y-65529200D02*
X145898809Y-65491104D01*
X146622619Y-64767295D02*
X146889286Y-65567295D01*
X146889286Y-65567295D02*
X147155952Y-64767295D01*
X147346428Y-64767295D02*
X147841666Y-64767295D01*
X147841666Y-64767295D02*
X147575000Y-65072057D01*
X147575000Y-65072057D02*
X147689285Y-65072057D01*
X147689285Y-65072057D02*
X147765476Y-65110152D01*
X147765476Y-65110152D02*
X147803571Y-65148247D01*
X147803571Y-65148247D02*
X147841666Y-65224438D01*
X147841666Y-65224438D02*
X147841666Y-65414914D01*
X147841666Y-65414914D02*
X147803571Y-65491104D01*
X147803571Y-65491104D02*
X147765476Y-65529200D01*
X147765476Y-65529200D02*
X147689285Y-65567295D01*
X147689285Y-65567295D02*
X147460714Y-65567295D01*
X147460714Y-65567295D02*
X147384523Y-65529200D01*
X147384523Y-65529200D02*
X147346428Y-65491104D01*
X147994048Y-65643485D02*
X148603571Y-65643485D01*
X148794048Y-65567295D02*
X148794048Y-64767295D01*
X148794048Y-64767295D02*
X149098810Y-64767295D01*
X149098810Y-64767295D02*
X149175000Y-64805390D01*
X149175000Y-64805390D02*
X149213095Y-64843485D01*
X149213095Y-64843485D02*
X149251191Y-64919676D01*
X149251191Y-64919676D02*
X149251191Y-65033961D01*
X149251191Y-65033961D02*
X149213095Y-65110152D01*
X149213095Y-65110152D02*
X149175000Y-65148247D01*
X149175000Y-65148247D02*
X149098810Y-65186342D01*
X149098810Y-65186342D02*
X148794048Y-65186342D01*
X150013095Y-64805390D02*
X149936905Y-64767295D01*
X149936905Y-64767295D02*
X149822619Y-64767295D01*
X149822619Y-64767295D02*
X149708333Y-64805390D01*
X149708333Y-64805390D02*
X149632143Y-64881580D01*
X149632143Y-64881580D02*
X149594048Y-64957771D01*
X149594048Y-64957771D02*
X149555952Y-65110152D01*
X149555952Y-65110152D02*
X149555952Y-65224438D01*
X149555952Y-65224438D02*
X149594048Y-65376819D01*
X149594048Y-65376819D02*
X149632143Y-65453009D01*
X149632143Y-65453009D02*
X149708333Y-65529200D01*
X149708333Y-65529200D02*
X149822619Y-65567295D01*
X149822619Y-65567295D02*
X149898810Y-65567295D01*
X149898810Y-65567295D02*
X150013095Y-65529200D01*
X150013095Y-65529200D02*
X150051191Y-65491104D01*
X150051191Y-65491104D02*
X150051191Y-65224438D01*
X150051191Y-65224438D02*
X149898810Y-65224438D01*
X150813095Y-65567295D02*
X150355952Y-65567295D01*
X150584524Y-65567295D02*
X150584524Y-64767295D01*
X150584524Y-64767295D02*
X150508333Y-64881580D01*
X150508333Y-64881580D02*
X150432143Y-64957771D01*
X150432143Y-64957771D02*
X150355952Y-64995866D01*
X152985714Y-80691104D02*
X152947618Y-80729200D01*
X152947618Y-80729200D02*
X152833333Y-80767295D01*
X152833333Y-80767295D02*
X152757142Y-80767295D01*
X152757142Y-80767295D02*
X152642856Y-80729200D01*
X152642856Y-80729200D02*
X152566666Y-80653009D01*
X152566666Y-80653009D02*
X152528571Y-80576819D01*
X152528571Y-80576819D02*
X152490475Y-80424438D01*
X152490475Y-80424438D02*
X152490475Y-80310152D01*
X152490475Y-80310152D02*
X152528571Y-80157771D01*
X152528571Y-80157771D02*
X152566666Y-80081580D01*
X152566666Y-80081580D02*
X152642856Y-80005390D01*
X152642856Y-80005390D02*
X152757142Y-79967295D01*
X152757142Y-79967295D02*
X152833333Y-79967295D01*
X152833333Y-79967295D02*
X152947618Y-80005390D01*
X152947618Y-80005390D02*
X152985714Y-80043485D01*
X153747618Y-80767295D02*
X153290475Y-80767295D01*
X153519047Y-80767295D02*
X153519047Y-79967295D01*
X153519047Y-79967295D02*
X153442856Y-80081580D01*
X153442856Y-80081580D02*
X153366666Y-80157771D01*
X153366666Y-80157771D02*
X153290475Y-80195866D01*
X154242857Y-79967295D02*
X154319047Y-79967295D01*
X154319047Y-79967295D02*
X154395238Y-80005390D01*
X154395238Y-80005390D02*
X154433333Y-80043485D01*
X154433333Y-80043485D02*
X154471428Y-80119676D01*
X154471428Y-80119676D02*
X154509523Y-80272057D01*
X154509523Y-80272057D02*
X154509523Y-80462533D01*
X154509523Y-80462533D02*
X154471428Y-80614914D01*
X154471428Y-80614914D02*
X154433333Y-80691104D01*
X154433333Y-80691104D02*
X154395238Y-80729200D01*
X154395238Y-80729200D02*
X154319047Y-80767295D01*
X154319047Y-80767295D02*
X154242857Y-80767295D01*
X154242857Y-80767295D02*
X154166666Y-80729200D01*
X154166666Y-80729200D02*
X154128571Y-80691104D01*
X154128571Y-80691104D02*
X154090476Y-80614914D01*
X154090476Y-80614914D02*
X154052380Y-80462533D01*
X154052380Y-80462533D02*
X154052380Y-80272057D01*
X154052380Y-80272057D02*
X154090476Y-80119676D01*
X154090476Y-80119676D02*
X154128571Y-80043485D01*
X154128571Y-80043485D02*
X154166666Y-80005390D01*
X154166666Y-80005390D02*
X154242857Y-79967295D01*
X142623809Y-86643485D02*
X142547619Y-86605390D01*
X142547619Y-86605390D02*
X142471428Y-86529200D01*
X142471428Y-86529200D02*
X142357142Y-86414914D01*
X142357142Y-86414914D02*
X142280952Y-86376819D01*
X142280952Y-86376819D02*
X142204761Y-86376819D01*
X142242857Y-86567295D02*
X142166666Y-86529200D01*
X142166666Y-86529200D02*
X142090476Y-86453009D01*
X142090476Y-86453009D02*
X142052380Y-86300628D01*
X142052380Y-86300628D02*
X142052380Y-86033961D01*
X142052380Y-86033961D02*
X142090476Y-85881580D01*
X142090476Y-85881580D02*
X142166666Y-85805390D01*
X142166666Y-85805390D02*
X142242857Y-85767295D01*
X142242857Y-85767295D02*
X142395238Y-85767295D01*
X142395238Y-85767295D02*
X142471428Y-85805390D01*
X142471428Y-85805390D02*
X142547619Y-85881580D01*
X142547619Y-85881580D02*
X142585714Y-86033961D01*
X142585714Y-86033961D02*
X142585714Y-86300628D01*
X142585714Y-86300628D02*
X142547619Y-86453009D01*
X142547619Y-86453009D02*
X142471428Y-86529200D01*
X142471428Y-86529200D02*
X142395238Y-86567295D01*
X142395238Y-86567295D02*
X142242857Y-86567295D01*
X143347618Y-86567295D02*
X142890475Y-86567295D01*
X143119047Y-86567295D02*
X143119047Y-85767295D01*
X143119047Y-85767295D02*
X143042856Y-85881580D01*
X143042856Y-85881580D02*
X142966666Y-85957771D01*
X142966666Y-85957771D02*
X142890475Y-85995866D01*
X170966667Y-71367295D02*
X170700000Y-70986342D01*
X170509524Y-71367295D02*
X170509524Y-70567295D01*
X170509524Y-70567295D02*
X170814286Y-70567295D01*
X170814286Y-70567295D02*
X170890476Y-70605390D01*
X170890476Y-70605390D02*
X170928571Y-70643485D01*
X170928571Y-70643485D02*
X170966667Y-70719676D01*
X170966667Y-70719676D02*
X170966667Y-70833961D01*
X170966667Y-70833961D02*
X170928571Y-70910152D01*
X170928571Y-70910152D02*
X170890476Y-70948247D01*
X170890476Y-70948247D02*
X170814286Y-70986342D01*
X170814286Y-70986342D02*
X170509524Y-70986342D01*
X171652381Y-70567295D02*
X171500000Y-70567295D01*
X171500000Y-70567295D02*
X171423809Y-70605390D01*
X171423809Y-70605390D02*
X171385714Y-70643485D01*
X171385714Y-70643485D02*
X171309524Y-70757771D01*
X171309524Y-70757771D02*
X171271428Y-70910152D01*
X171271428Y-70910152D02*
X171271428Y-71214914D01*
X171271428Y-71214914D02*
X171309524Y-71291104D01*
X171309524Y-71291104D02*
X171347619Y-71329200D01*
X171347619Y-71329200D02*
X171423809Y-71367295D01*
X171423809Y-71367295D02*
X171576190Y-71367295D01*
X171576190Y-71367295D02*
X171652381Y-71329200D01*
X171652381Y-71329200D02*
X171690476Y-71291104D01*
X171690476Y-71291104D02*
X171728571Y-71214914D01*
X171728571Y-71214914D02*
X171728571Y-71024438D01*
X171728571Y-71024438D02*
X171690476Y-70948247D01*
X171690476Y-70948247D02*
X171652381Y-70910152D01*
X171652381Y-70910152D02*
X171576190Y-70872057D01*
X171576190Y-70872057D02*
X171423809Y-70872057D01*
X171423809Y-70872057D02*
X171347619Y-70910152D01*
X171347619Y-70910152D02*
X171309524Y-70948247D01*
X171309524Y-70948247D02*
X171271428Y-71024438D01*
X149866667Y-91167295D02*
X149600000Y-90786342D01*
X149409524Y-91167295D02*
X149409524Y-90367295D01*
X149409524Y-90367295D02*
X149714286Y-90367295D01*
X149714286Y-90367295D02*
X149790476Y-90405390D01*
X149790476Y-90405390D02*
X149828571Y-90443485D01*
X149828571Y-90443485D02*
X149866667Y-90519676D01*
X149866667Y-90519676D02*
X149866667Y-90633961D01*
X149866667Y-90633961D02*
X149828571Y-90710152D01*
X149828571Y-90710152D02*
X149790476Y-90748247D01*
X149790476Y-90748247D02*
X149714286Y-90786342D01*
X149714286Y-90786342D02*
X149409524Y-90786342D01*
X150171428Y-90443485D02*
X150209524Y-90405390D01*
X150209524Y-90405390D02*
X150285714Y-90367295D01*
X150285714Y-90367295D02*
X150476190Y-90367295D01*
X150476190Y-90367295D02*
X150552381Y-90405390D01*
X150552381Y-90405390D02*
X150590476Y-90443485D01*
X150590476Y-90443485D02*
X150628571Y-90519676D01*
X150628571Y-90519676D02*
X150628571Y-90595866D01*
X150628571Y-90595866D02*
X150590476Y-90710152D01*
X150590476Y-90710152D02*
X150133333Y-91167295D01*
X150133333Y-91167295D02*
X150628571Y-91167295D01*
X166985714Y-86167295D02*
X166719047Y-85786342D01*
X166528571Y-86167295D02*
X166528571Y-85367295D01*
X166528571Y-85367295D02*
X166833333Y-85367295D01*
X166833333Y-85367295D02*
X166909523Y-85405390D01*
X166909523Y-85405390D02*
X166947618Y-85443485D01*
X166947618Y-85443485D02*
X166985714Y-85519676D01*
X166985714Y-85519676D02*
X166985714Y-85633961D01*
X166985714Y-85633961D02*
X166947618Y-85710152D01*
X166947618Y-85710152D02*
X166909523Y-85748247D01*
X166909523Y-85748247D02*
X166833333Y-85786342D01*
X166833333Y-85786342D02*
X166528571Y-85786342D01*
X167747618Y-86167295D02*
X167290475Y-86167295D01*
X167519047Y-86167295D02*
X167519047Y-85367295D01*
X167519047Y-85367295D02*
X167442856Y-85481580D01*
X167442856Y-85481580D02*
X167366666Y-85557771D01*
X167366666Y-85557771D02*
X167290475Y-85595866D01*
X168014285Y-85367295D02*
X168509523Y-85367295D01*
X168509523Y-85367295D02*
X168242857Y-85672057D01*
X168242857Y-85672057D02*
X168357142Y-85672057D01*
X168357142Y-85672057D02*
X168433333Y-85710152D01*
X168433333Y-85710152D02*
X168471428Y-85748247D01*
X168471428Y-85748247D02*
X168509523Y-85824438D01*
X168509523Y-85824438D02*
X168509523Y-86014914D01*
X168509523Y-86014914D02*
X168471428Y-86091104D01*
X168471428Y-86091104D02*
X168433333Y-86129200D01*
X168433333Y-86129200D02*
X168357142Y-86167295D01*
X168357142Y-86167295D02*
X168128571Y-86167295D01*
X168128571Y-86167295D02*
X168052380Y-86129200D01*
X168052380Y-86129200D02*
X168014285Y-86091104D01*
X164166667Y-79691104D02*
X164128571Y-79729200D01*
X164128571Y-79729200D02*
X164014286Y-79767295D01*
X164014286Y-79767295D02*
X163938095Y-79767295D01*
X163938095Y-79767295D02*
X163823809Y-79729200D01*
X163823809Y-79729200D02*
X163747619Y-79653009D01*
X163747619Y-79653009D02*
X163709524Y-79576819D01*
X163709524Y-79576819D02*
X163671428Y-79424438D01*
X163671428Y-79424438D02*
X163671428Y-79310152D01*
X163671428Y-79310152D02*
X163709524Y-79157771D01*
X163709524Y-79157771D02*
X163747619Y-79081580D01*
X163747619Y-79081580D02*
X163823809Y-79005390D01*
X163823809Y-79005390D02*
X163938095Y-78967295D01*
X163938095Y-78967295D02*
X164014286Y-78967295D01*
X164014286Y-78967295D02*
X164128571Y-79005390D01*
X164128571Y-79005390D02*
X164166667Y-79043485D01*
X164623809Y-79310152D02*
X164547619Y-79272057D01*
X164547619Y-79272057D02*
X164509524Y-79233961D01*
X164509524Y-79233961D02*
X164471428Y-79157771D01*
X164471428Y-79157771D02*
X164471428Y-79119676D01*
X164471428Y-79119676D02*
X164509524Y-79043485D01*
X164509524Y-79043485D02*
X164547619Y-79005390D01*
X164547619Y-79005390D02*
X164623809Y-78967295D01*
X164623809Y-78967295D02*
X164776190Y-78967295D01*
X164776190Y-78967295D02*
X164852381Y-79005390D01*
X164852381Y-79005390D02*
X164890476Y-79043485D01*
X164890476Y-79043485D02*
X164928571Y-79119676D01*
X164928571Y-79119676D02*
X164928571Y-79157771D01*
X164928571Y-79157771D02*
X164890476Y-79233961D01*
X164890476Y-79233961D02*
X164852381Y-79272057D01*
X164852381Y-79272057D02*
X164776190Y-79310152D01*
X164776190Y-79310152D02*
X164623809Y-79310152D01*
X164623809Y-79310152D02*
X164547619Y-79348247D01*
X164547619Y-79348247D02*
X164509524Y-79386342D01*
X164509524Y-79386342D02*
X164471428Y-79462533D01*
X164471428Y-79462533D02*
X164471428Y-79614914D01*
X164471428Y-79614914D02*
X164509524Y-79691104D01*
X164509524Y-79691104D02*
X164547619Y-79729200D01*
X164547619Y-79729200D02*
X164623809Y-79767295D01*
X164623809Y-79767295D02*
X164776190Y-79767295D01*
X164776190Y-79767295D02*
X164852381Y-79729200D01*
X164852381Y-79729200D02*
X164890476Y-79691104D01*
X164890476Y-79691104D02*
X164928571Y-79614914D01*
X164928571Y-79614914D02*
X164928571Y-79462533D01*
X164928571Y-79462533D02*
X164890476Y-79386342D01*
X164890476Y-79386342D02*
X164852381Y-79348247D01*
X164852381Y-79348247D02*
X164776190Y-79310152D01*
X147890476Y-80767295D02*
X147890476Y-81414914D01*
X147890476Y-81414914D02*
X147928571Y-81491104D01*
X147928571Y-81491104D02*
X147966666Y-81529200D01*
X147966666Y-81529200D02*
X148042857Y-81567295D01*
X148042857Y-81567295D02*
X148195238Y-81567295D01*
X148195238Y-81567295D02*
X148271428Y-81529200D01*
X148271428Y-81529200D02*
X148309523Y-81491104D01*
X148309523Y-81491104D02*
X148347619Y-81414914D01*
X148347619Y-81414914D02*
X148347619Y-80767295D01*
X149109523Y-80767295D02*
X148728571Y-80767295D01*
X148728571Y-80767295D02*
X148690475Y-81148247D01*
X148690475Y-81148247D02*
X148728571Y-81110152D01*
X148728571Y-81110152D02*
X148804761Y-81072057D01*
X148804761Y-81072057D02*
X148995237Y-81072057D01*
X148995237Y-81072057D02*
X149071428Y-81110152D01*
X149071428Y-81110152D02*
X149109523Y-81148247D01*
X149109523Y-81148247D02*
X149147618Y-81224438D01*
X149147618Y-81224438D02*
X149147618Y-81414914D01*
X149147618Y-81414914D02*
X149109523Y-81491104D01*
X149109523Y-81491104D02*
X149071428Y-81529200D01*
X149071428Y-81529200D02*
X148995237Y-81567295D01*
X148995237Y-81567295D02*
X148804761Y-81567295D01*
X148804761Y-81567295D02*
X148728571Y-81529200D01*
X148728571Y-81529200D02*
X148690475Y-81491104D01*
X174366667Y-76867295D02*
X174100000Y-76486342D01*
X173909524Y-76867295D02*
X173909524Y-76067295D01*
X173909524Y-76067295D02*
X174214286Y-76067295D01*
X174214286Y-76067295D02*
X174290476Y-76105390D01*
X174290476Y-76105390D02*
X174328571Y-76143485D01*
X174328571Y-76143485D02*
X174366667Y-76219676D01*
X174366667Y-76219676D02*
X174366667Y-76333961D01*
X174366667Y-76333961D02*
X174328571Y-76410152D01*
X174328571Y-76410152D02*
X174290476Y-76448247D01*
X174290476Y-76448247D02*
X174214286Y-76486342D01*
X174214286Y-76486342D02*
X173909524Y-76486342D01*
X174633333Y-76067295D02*
X175166667Y-76067295D01*
X175166667Y-76067295D02*
X174823809Y-76867295D01*
X162985714Y-87867295D02*
X162719047Y-87486342D01*
X162528571Y-87867295D02*
X162528571Y-87067295D01*
X162528571Y-87067295D02*
X162833333Y-87067295D01*
X162833333Y-87067295D02*
X162909523Y-87105390D01*
X162909523Y-87105390D02*
X162947618Y-87143485D01*
X162947618Y-87143485D02*
X162985714Y-87219676D01*
X162985714Y-87219676D02*
X162985714Y-87333961D01*
X162985714Y-87333961D02*
X162947618Y-87410152D01*
X162947618Y-87410152D02*
X162909523Y-87448247D01*
X162909523Y-87448247D02*
X162833333Y-87486342D01*
X162833333Y-87486342D02*
X162528571Y-87486342D01*
X163747618Y-87867295D02*
X163290475Y-87867295D01*
X163519047Y-87867295D02*
X163519047Y-87067295D01*
X163519047Y-87067295D02*
X163442856Y-87181580D01*
X163442856Y-87181580D02*
X163366666Y-87257771D01*
X163366666Y-87257771D02*
X163290475Y-87295866D01*
X164242857Y-87067295D02*
X164319047Y-87067295D01*
X164319047Y-87067295D02*
X164395238Y-87105390D01*
X164395238Y-87105390D02*
X164433333Y-87143485D01*
X164433333Y-87143485D02*
X164471428Y-87219676D01*
X164471428Y-87219676D02*
X164509523Y-87372057D01*
X164509523Y-87372057D02*
X164509523Y-87562533D01*
X164509523Y-87562533D02*
X164471428Y-87714914D01*
X164471428Y-87714914D02*
X164433333Y-87791104D01*
X164433333Y-87791104D02*
X164395238Y-87829200D01*
X164395238Y-87829200D02*
X164319047Y-87867295D01*
X164319047Y-87867295D02*
X164242857Y-87867295D01*
X164242857Y-87867295D02*
X164166666Y-87829200D01*
X164166666Y-87829200D02*
X164128571Y-87791104D01*
X164128571Y-87791104D02*
X164090476Y-87714914D01*
X164090476Y-87714914D02*
X164052380Y-87562533D01*
X164052380Y-87562533D02*
X164052380Y-87372057D01*
X164052380Y-87372057D02*
X164090476Y-87219676D01*
X164090476Y-87219676D02*
X164128571Y-87143485D01*
X164128571Y-87143485D02*
X164166666Y-87105390D01*
X164166666Y-87105390D02*
X164242857Y-87067295D01*
%TO.C,J1*%
D15*
X151325000Y-92680000D02*
X151325000Y-105280000D01*
X182135000Y-105280000D02*
X182135000Y-92680000D01*
X182135000Y-92680000D02*
X151325000Y-92680000D01*
D11*
X161350000Y-92180000D02*
G75*
G02*
X161150000Y-92180000I-100000J0D01*
G01*
X161150000Y-92180000D02*
G75*
G02*
X161350000Y-92180000I100000J0D01*
G01*
%TO.C,C1*%
D14*
X162190000Y-71889420D02*
X162190000Y-72170580D01*
X163210000Y-71889420D02*
X163210000Y-72170580D01*
%TO.C,C9*%
X161934420Y-79495000D02*
X162215580Y-79495000D01*
X161934420Y-80515000D02*
X162215580Y-80515000D01*
%TO.C,C5*%
X175140000Y-78784420D02*
X175140000Y-79065580D01*
X176160000Y-78784420D02*
X176160000Y-79065580D01*
%TO.C,R14*%
X172777500Y-88792742D02*
X172777500Y-89267258D01*
X173822500Y-88792742D02*
X173822500Y-89267258D01*
%TO.C,C11*%
X148990580Y-77845000D02*
X148709420Y-77845000D01*
X148990580Y-78865000D02*
X148709420Y-78865000D01*
%TO.C,U2*%
X167340000Y-75070000D02*
X171460000Y-75070000D01*
X167340000Y-75165000D02*
X167340000Y-75070000D01*
X167340000Y-80190000D02*
X167340000Y-80095000D01*
X171460000Y-75070000D02*
X171460000Y-75165000D01*
X171460000Y-80095000D02*
X171460000Y-80190000D01*
X171460000Y-80190000D02*
X167340000Y-80190000D01*
X172000000Y-80100000D02*
X172240000Y-80430000D01*
X171760000Y-80430000D01*
X172000000Y-80100000D01*
G36*
X172240000Y-80430000D02*
G01*
X171760000Y-80430000D01*
X172000000Y-80100000D01*
X172240000Y-80430000D01*
G37*
%TO.C,R17*%
X148712742Y-75982500D02*
X149187258Y-75982500D01*
X148712742Y-77027500D02*
X149187258Y-77027500D01*
%TO.C,D1*%
X143190000Y-89355000D02*
X143190000Y-92040000D01*
X143190000Y-92040000D02*
X145110000Y-92040000D01*
X145110000Y-92040000D02*
X145110000Y-89355000D01*
%TO.C,JP2*%
D13*
X147145000Y-73605000D02*
X147645000Y-73105000D01*
X147145000Y-74405000D02*
X147145000Y-73605000D01*
X147645000Y-73105000D02*
X151245000Y-73105000D01*
X147645000Y-74905000D02*
X147145000Y-74405000D01*
X151245000Y-73105000D02*
X151745000Y-73605000D01*
X151245000Y-74905000D02*
X147645000Y-74905000D01*
X151745000Y-73605000D02*
X151745000Y-74405000D01*
X151745000Y-74405000D02*
X151245000Y-74905000D01*
%TO.C,JP1*%
X148070000Y-87805000D02*
X148570000Y-87305000D01*
X148070000Y-88605000D02*
X148070000Y-87805000D01*
X148570000Y-87305000D02*
X152170000Y-87305000D01*
X148570000Y-89105000D02*
X148070000Y-88605000D01*
X152170000Y-87305000D02*
X152670000Y-87805000D01*
X152170000Y-89105000D02*
X148570000Y-89105000D01*
X152670000Y-87805000D02*
X152670000Y-88605000D01*
X152670000Y-88605000D02*
X152170000Y-89105000D01*
%TO.C,C7*%
D14*
X164190000Y-81039420D02*
X164190000Y-81320580D01*
X165210000Y-81039420D02*
X165210000Y-81320580D01*
%TO.C,R9*%
X164977500Y-87417258D02*
X164977500Y-86942742D01*
X166022500Y-87417258D02*
X166022500Y-86942742D01*
%TO.C,C3*%
X168590000Y-70489420D02*
X168590000Y-70770580D01*
X169610000Y-70489420D02*
X169610000Y-70770580D01*
%TO.C,C4*%
X166190000Y-82039420D02*
X166190000Y-82320580D01*
X167210000Y-82039420D02*
X167210000Y-82320580D01*
%TO.C,R15*%
X162087258Y-73882500D02*
X161612742Y-73882500D01*
X162087258Y-74927500D02*
X161612742Y-74927500D01*
%TO.C,D2*%
X160940000Y-75845000D02*
X162460000Y-75845000D01*
X160940000Y-75895000D02*
X160940000Y-75845000D01*
X160940000Y-77795000D02*
X160940000Y-77015000D01*
X160940000Y-78965000D02*
X160940000Y-78915000D01*
X162460000Y-75845000D02*
X162460000Y-76845000D01*
X162460000Y-77965000D02*
X162460000Y-78965000D01*
X162460000Y-78965000D02*
X160940000Y-78965000D01*
X160400000Y-77025000D02*
X160640000Y-77355000D01*
X160160000Y-77355000D01*
X160400000Y-77025000D01*
G36*
X160640000Y-77355000D02*
G01*
X160160000Y-77355000D01*
X160400000Y-77025000D01*
X160640000Y-77355000D01*
G37*
%TO.C,U4*%
X157800000Y-82615000D02*
X157000000Y-82615000D01*
X157800000Y-82615000D02*
X158600000Y-82615000D01*
X158800000Y-79395000D02*
X157000000Y-79395000D01*
X159100000Y-82565000D02*
X159340000Y-82895000D01*
X158860000Y-82895000D01*
X159100000Y-82565000D01*
G36*
X159340000Y-82895000D02*
G01*
X158860000Y-82895000D01*
X159100000Y-82565000D01*
X159340000Y-82895000D01*
G37*
%TO.C,U3*%
X170165000Y-85995000D02*
X171635000Y-85995000D01*
X170165000Y-86020000D02*
X170165000Y-85995000D01*
X170165000Y-88215000D02*
X170165000Y-88190000D01*
X171635000Y-85995000D02*
X171635000Y-86020000D01*
X171635000Y-88190000D02*
X171635000Y-88215000D01*
X171635000Y-88215000D02*
X170165000Y-88215000D01*
X172080000Y-88195000D02*
X172220000Y-88385000D01*
X171940000Y-88385000D01*
X172080000Y-88195000D01*
G36*
X172220000Y-88385000D02*
G01*
X171940000Y-88385000D01*
X172080000Y-88195000D01*
X172220000Y-88385000D01*
G37*
%TO.C,R1*%
X144314758Y-77272500D02*
X143840242Y-77272500D01*
X144314758Y-78317500D02*
X143840242Y-78317500D01*
%TO.C,-30V_PG1*%
X155037500Y-68165000D02*
X157722500Y-68165000D01*
X157722500Y-66245000D02*
X155037500Y-66245000D01*
X157722500Y-68165000D02*
X157722500Y-66245000D01*
%TO.C,R16*%
X155677500Y-77167742D02*
X155677500Y-77642258D01*
X156722500Y-77167742D02*
X156722500Y-77642258D01*
%TO.C,R18*%
X159777500Y-84392742D02*
X159777500Y-84867258D01*
X160822500Y-84392742D02*
X160822500Y-84867258D01*
%TO.C,C2*%
X164990000Y-71889420D02*
X164990000Y-72170580D01*
X166010000Y-71889420D02*
X166010000Y-72170580D01*
%TO.C,C6*%
X168790000Y-89639420D02*
X168790000Y-89920580D01*
X169810000Y-89639420D02*
X169810000Y-89920580D01*
%TO.C,JP3*%
D13*
X159650000Y-67375000D02*
X160150000Y-66875000D01*
X159650000Y-70975000D02*
X159650000Y-67375000D01*
X160150000Y-66875000D02*
X160950000Y-66875000D01*
X160150000Y-71475000D02*
X159650000Y-70975000D01*
X160950000Y-66875000D02*
X161450000Y-67375000D01*
X160950000Y-71475000D02*
X160150000Y-71475000D01*
X161450000Y-67375000D02*
X161450000Y-70975000D01*
X161450000Y-70975000D02*
X160950000Y-71475000D01*
%TO.C,R4*%
D14*
X155825242Y-70182500D02*
X156299758Y-70182500D01*
X155825242Y-71227500D02*
X156299758Y-71227500D01*
%TO.C,R3*%
X148237742Y-70282500D02*
X148712258Y-70282500D01*
X148237742Y-71327500D02*
X148712258Y-71327500D01*
%TO.C,R12*%
X171912258Y-80882500D02*
X171437742Y-80882500D01*
X171912258Y-81927500D02*
X171437742Y-81927500D01*
%TO.C,R11*%
X171437742Y-82482500D02*
X171912258Y-82482500D01*
X171437742Y-83527500D02*
X171912258Y-83527500D01*
%TO.C,TP1*%
X178950000Y-83855000D02*
X180850000Y-83855000D01*
X178950000Y-85755000D02*
X178950000Y-83855000D01*
X180850000Y-83855000D02*
X180850000Y-85755000D01*
X180850000Y-85755000D02*
X178950000Y-85755000D01*
%TO.C,R5*%
X167837742Y-72482500D02*
X168312258Y-72482500D01*
X167837742Y-73527500D02*
X168312258Y-73527500D01*
%TO.C,R8*%
X175162258Y-80882500D02*
X174687742Y-80882500D01*
X175162258Y-81927500D02*
X174687742Y-81927500D01*
%TO.C,3V3_PG1*%
X146690000Y-66195000D02*
X146690000Y-68115000D01*
X146690000Y-68115000D02*
X149375000Y-68115000D01*
X149375000Y-66195000D02*
X146690000Y-66195000D01*
%TO.C,C10*%
X153615580Y-81495000D02*
X153334420Y-81495000D01*
X153615580Y-82515000D02*
X153334420Y-82515000D01*
%TO.C,Q1*%
X142540000Y-83945000D02*
X142590000Y-83945000D01*
X142540000Y-85465000D02*
X142540000Y-83945000D01*
X143540000Y-85465000D02*
X142540000Y-85465000D01*
X143710000Y-83945000D02*
X144490000Y-83945000D01*
X145610000Y-83945000D02*
X145660000Y-83945000D01*
X145660000Y-83945000D02*
X145660000Y-85465000D01*
X145660000Y-85465000D02*
X144660000Y-85465000D01*
X144480000Y-83405000D02*
X144150000Y-83645000D01*
X144150000Y-83165000D01*
X144480000Y-83405000D01*
G36*
X144480000Y-83405000D02*
G01*
X144150000Y-83645000D01*
X144150000Y-83165000D01*
X144480000Y-83405000D01*
G37*
%TO.C,R6*%
X171317742Y-72482500D02*
X171792258Y-72482500D01*
X171317742Y-73527500D02*
X171792258Y-73527500D01*
%TO.C,R2*%
X147977500Y-90592742D02*
X147977500Y-91067258D01*
X149022500Y-90592742D02*
X149022500Y-91067258D01*
%TO.C,R13*%
X168112258Y-86882500D02*
X167637742Y-86882500D01*
X168112258Y-87927500D02*
X167637742Y-87927500D01*
%TO.C,C8*%
X163990000Y-77770580D02*
X163990000Y-77489420D01*
X165010000Y-77770580D02*
X165010000Y-77489420D01*
%TO.C,U5*%
D15*
X148020000Y-79805000D02*
X148680000Y-79805000D01*
X148680000Y-82705000D02*
X148020000Y-82705000D01*
X149150000Y-80920000D02*
X149150000Y-81590000D01*
D11*
X146040000Y-80205000D02*
G75*
G02*
X145840000Y-80205000I-100000J0D01*
G01*
X145840000Y-80205000D02*
G75*
G02*
X146040000Y-80205000I100000J0D01*
G01*
%TO.C,R7*%
D14*
X173377500Y-78687742D02*
X173377500Y-79162258D01*
X174422500Y-78687742D02*
X174422500Y-79162258D01*
%TO.C,R10*%
X163377500Y-85667258D02*
X163377500Y-85192742D01*
X164422500Y-85667258D02*
X164422500Y-85192742D01*
%TD*%
M02*
