%TF.GenerationSoftware,KiCad,Pcbnew,10.0.6*%
%TF.CreationDate,2026-09-15T15:16:31-04:00*%
%TF.ProjectId,detection_board,64657465-6374-4696-9f6e-5f626f617264,rev?*%
%TF.SameCoordinates,Original*%
%TF.FileFunction,Copper,L1,Top*%
%TF.FilePolarity,Positive*%
%FSLAX46Y46*%
G04 Gerber Fmt 4.6, Leading zero omitted, Abs format (unit mm)*
G04 Created by KiCad (PCBNEW 10.0.6) date 2026-09-15 15:16:31*
%MOMM*%
%LPD*%
G01*
G04 APERTURE LIST*
G04 Aperture macros list*
%AMRoundRect*
0 Rectangle with rounded corners*
0 $1 Rounding radius*
0 $2 $3 $4 $5 $6 $7 $8 $9 X,Y pos of 4 corners*
0 Add a 4 corners polygon primitive as box body*
4,1,4,$2,$3,$4,$5,$6,$7,$8,$9,$2,$3,0*
0 Add four circle primitives for the rounded corners*
1,1,$1+$1,$2,$3*
1,1,$1+$1,$4,$5*
1,1,$1+$1,$6,$7*
1,1,$1+$1,$8,$9*
0 Add four rect primitives between the rounded corners*
20,1,$1+$1,$2,$3,$4,$5,0*
20,1,$1+$1,$4,$5,$6,$7,0*
20,1,$1+$1,$6,$7,$8,$9,0*
20,1,$1+$1,$8,$9,$2,$3,0*%
G04 Aperture macros list end*
%TA.AperFunction,NonConductor*%
%ADD10C,0.200000*%
%TD*%
%TA.AperFunction,ComponentPad*%
%ADD11R,1.408000X1.408000*%
%TD*%
%TA.AperFunction,ComponentPad*%
%ADD12C,1.408000*%
%TD*%
%TA.AperFunction,ComponentPad*%
%ADD13C,4.216000*%
%TD*%
%TA.AperFunction,SMDPad,CuDef*%
%ADD14RoundRect,0.225000X-0.250000X0.225000X-0.250000X-0.225000X0.250000X-0.225000X0.250000X0.225000X0*%
%TD*%
%TA.AperFunction,SMDPad,CuDef*%
%ADD15RoundRect,0.225000X-0.225000X-0.250000X0.225000X-0.250000X0.225000X0.250000X-0.225000X0.250000X0*%
%TD*%
%TA.AperFunction,SMDPad,CuDef*%
%ADD16RoundRect,0.200000X-0.275000X0.200000X-0.275000X-0.200000X0.275000X-0.200000X0.275000X0.200000X0*%
%TD*%
%TA.AperFunction,SMDPad,CuDef*%
%ADD17RoundRect,0.225000X0.225000X0.250000X-0.225000X0.250000X-0.225000X-0.250000X0.225000X-0.250000X0*%
%TD*%
%TA.AperFunction,SMDPad,CuDef*%
%ADD18RoundRect,0.150000X0.825000X0.150000X-0.825000X0.150000X-0.825000X-0.150000X0.825000X-0.150000X0*%
%TD*%
%TA.AperFunction,SMDPad,CuDef*%
%ADD19RoundRect,0.200000X-0.200000X-0.275000X0.200000X-0.275000X0.200000X0.275000X-0.200000X0.275000X0*%
%TD*%
%TA.AperFunction,SMDPad,CuDef*%
%ADD20RoundRect,0.243750X0.456250X-0.243750X0.456250X0.243750X-0.456250X0.243750X-0.456250X-0.243750X0*%
%TD*%
%TA.AperFunction,ComponentPad*%
%ADD21C,1.400000*%
%TD*%
%TA.AperFunction,SMDPad,CuDef*%
%ADD22RoundRect,0.200000X0.275000X-0.200000X0.275000X0.200000X-0.275000X0.200000X-0.275000X-0.200000X0*%
%TD*%
%TA.AperFunction,SMDPad,CuDef*%
%ADD23RoundRect,0.200000X0.200000X0.275000X-0.200000X0.275000X-0.200000X-0.275000X0.200000X-0.275000X0*%
%TD*%
%TA.AperFunction,SMDPad,CuDef*%
%ADD24RoundRect,0.150000X-0.587500X-0.150000X0.587500X-0.150000X0.587500X0.150000X-0.587500X0.150000X0*%
%TD*%
%TA.AperFunction,SMDPad,CuDef*%
%ADD25RoundRect,0.162500X0.617500X0.162500X-0.617500X0.162500X-0.617500X-0.162500X0.617500X-0.162500X0*%
%TD*%
%TA.AperFunction,SMDPad,CuDef*%
%ADD26RoundRect,0.087500X0.425000X0.087500X-0.425000X0.087500X-0.425000X-0.087500X0.425000X-0.087500X0*%
%TD*%
%TA.AperFunction,SMDPad,CuDef*%
%ADD27RoundRect,0.243750X0.243750X0.456250X-0.243750X0.456250X-0.243750X-0.456250X0.243750X-0.456250X0*%
%TD*%
%TA.AperFunction,ComponentPad*%
%ADD28C,3.800000*%
%TD*%
%TA.AperFunction,SMDPad,CuDef*%
%ADD29R,1.500000X1.500000*%
%TD*%
%TA.AperFunction,SMDPad,CuDef*%
%ADD30RoundRect,0.243750X-0.243750X-0.456250X0.243750X-0.456250X0.243750X0.456250X-0.243750X0.456250X0*%
%TD*%
%TA.AperFunction,SMDPad,CuDef*%
%ADD31RoundRect,0.150000X-0.150000X0.587500X-0.150000X-0.587500X0.150000X-0.587500X0.150000X0.587500X0*%
%TD*%
%TA.AperFunction,SMDPad,CuDef*%
%ADD32RoundRect,0.225000X0.250000X-0.225000X0.250000X0.225000X-0.250000X0.225000X-0.250000X-0.225000X0*%
%TD*%
%TA.AperFunction,SMDPad,CuDef*%
%ADD33RoundRect,0.147500X-0.457500X-0.147500X0.457500X-0.147500X0.457500X0.147500X-0.457500X0.147500X0*%
%TD*%
%TA.AperFunction,ViaPad*%
%ADD34C,0.600000*%
%TD*%
%TA.AperFunction,Conductor*%
%ADD35C,0.200000*%
%TD*%
%TA.AperFunction,Conductor*%
%ADD36C,0.500000*%
%TD*%
G04 APERTURE END LIST*
D10*
X139000000Y-99000000D02*
X139000000Y-61000000D01*
X144000000Y-56000000D02*
X192000000Y-56000000D01*
X144000000Y-104000000D02*
X149910000Y-104000000D01*
X192000000Y-104000000D02*
X183370000Y-104000000D01*
X197000000Y-61000000D02*
X197000000Y-99000000D01*
D11*
%TO.P,J1,1,1_1*%
%TO.N,switch_dig*%
X161250000Y-94360000D03*
D12*
%TO.P,J1,2,2_2*%
%TO.N,detection_out*%
X163990000Y-94360000D03*
%TO.P,J1,3,3_3*%
%TO.N,+3V3*%
X166730000Y-94360000D03*
%TO.P,J1,4,4_4*%
%TO.N,comparator_out*%
X169470000Y-94360000D03*
%TO.P,J1,5,5_5*%
%TO.N,GND*%
X172210000Y-94360000D03*
%TO.P,J1,6,6_6*%
X162620000Y-97200000D03*
%TO.P,J1,7,7_7*%
X165360000Y-97200000D03*
%TO.P,J1,8,8_8*%
X168100000Y-97200000D03*
%TO.P,J1,9,9_9*%
%TO.N,-30V*%
X170840000Y-97200000D03*
D13*
%TO.P,J1,SH1*%
%TO.N,N/C*%
X154235000Y-95780000D03*
%TO.P,J1,SH2*%
X179225000Y-95780000D03*
%TD*%
D14*
%TO.P,C1,1*%
%TO.N,GND*%
X162700000Y-71255000D03*
%TO.P,C1,2*%
%TO.N,Net-(C1-Pad2)*%
X162700000Y-72805000D03*
%TD*%
D15*
%TO.P,C9,1*%
%TO.N,Net-(U4-+)*%
X161300000Y-80005000D03*
%TO.P,C9,2*%
%TO.N,GND*%
X162850000Y-80005000D03*
%TD*%
D14*
%TO.P,C5,1*%
%TO.N,Net-(U2A--)*%
X175650000Y-78150000D03*
%TO.P,C5,2*%
%TO.N,Net-(C5-Pad2)*%
X175650000Y-79700000D03*
%TD*%
D16*
%TO.P,R14,1*%
%TO.N,Net-(R14-Pad1)*%
X173300000Y-88205000D03*
%TO.P,R14,2*%
%TO.N,comparator_out*%
X173300000Y-89855000D03*
%TD*%
D17*
%TO.P,C11,1*%
%TO.N,+3V3*%
X149625000Y-78355000D03*
%TO.P,C11,2*%
%TO.N,GND*%
X148075000Y-78355000D03*
%TD*%
D18*
%TO.P,U2,1*%
%TO.N,Net-(C5-Pad2)*%
X171875000Y-79535000D03*
%TO.P,U2,2,-_2*%
%TO.N,Net-(U2A--)*%
X171875000Y-78265000D03*
%TO.P,U2,3,+_3*%
%TO.N,GND*%
X171875000Y-76995000D03*
%TO.P,U2,4,V-_4*%
X171875000Y-75725000D03*
%TO.P,U2,5,+_5*%
%TO.N,/peak_detect/pm_in*%
X166925000Y-75725000D03*
%TO.P,U2,6,-_6*%
%TO.N,Net-(U2B--)*%
X166925000Y-76995000D03*
%TO.P,U2,7*%
%TO.N,Net-(C8-Pad1)*%
X166925000Y-78265000D03*
%TO.P,U2,8,V+_8*%
%TO.N,+3V3*%
X166925000Y-79535000D03*
%TD*%
D19*
%TO.P,R17,1*%
%TO.N,Net-(U5-NO)*%
X148125000Y-76505000D03*
%TO.P,R17,2*%
%TO.N,Net-(U4-+)*%
X149775000Y-76505000D03*
%TD*%
D20*
%TO.P,D1,1,K_1*%
%TO.N,Net-(D1-K)*%
X144150000Y-91292500D03*
%TO.P,D1,2,A_2*%
%TO.N,Net-(D1-A)*%
X144150000Y-89417500D03*
%TD*%
D21*
%TO.P,JP2,1,A_1*%
%TO.N,Net-(JP2-A)*%
X148175000Y-74005000D03*
%TO.P,JP2,2,B_2*%
%TO.N,+3V3*%
X150715000Y-74005000D03*
%TD*%
%TO.P,JP1,1,A_1*%
%TO.N,Net-(JP1-A)*%
X149100000Y-88205000D03*
%TO.P,JP1,2,B_2*%
%TO.N,+3V3*%
X151640000Y-88205000D03*
%TD*%
D14*
%TO.P,C7,1*%
%TO.N,+3V3*%
X164700000Y-80405000D03*
%TO.P,C7,2*%
%TO.N,GND*%
X164700000Y-81955000D03*
%TD*%
D22*
%TO.P,R9,1*%
%TO.N,+3V3*%
X165500000Y-88005000D03*
%TO.P,R9,2*%
%TO.N,Net-(U3--)*%
X165500000Y-86355000D03*
%TD*%
D14*
%TO.P,C3,1*%
%TO.N,GND*%
X169100000Y-69855000D03*
%TO.P,C3,2*%
%TO.N,Net-(C3-Pad2)*%
X169100000Y-71405000D03*
%TD*%
%TO.P,C4,1*%
%TO.N,+3V3*%
X166700000Y-81405000D03*
%TO.P,C4,2*%
%TO.N,GND*%
X166700000Y-82955000D03*
%TD*%
D23*
%TO.P,R15,1*%
%TO.N,/peak_detect/pm_in*%
X162675000Y-74405000D03*
%TO.P,R15,2*%
%TO.N,GND*%
X161025000Y-74405000D03*
%TD*%
D24*
%TO.P,D2,1*%
%TO.N,Net-(U2B--)*%
X160762500Y-76455000D03*
%TO.P,D2,2*%
%TO.N,Net-(U4-+)*%
X160762500Y-78355000D03*
%TO.P,D2,3*%
%TO.N,Net-(C8-Pad1)*%
X162637500Y-77405000D03*
%TD*%
D25*
%TO.P,U4,1*%
%TO.N,Net-(U4--)*%
X159250000Y-81955000D03*
%TO.P,U4,2,V-_2*%
%TO.N,GND*%
X159250000Y-81005000D03*
%TO.P,U4,3,+_3*%
%TO.N,Net-(U4-+)*%
X159250000Y-80055000D03*
%TO.P,U4,4,-_4*%
%TO.N,Net-(U4--)*%
X156550000Y-80055000D03*
%TO.P,U4,5,V+_5*%
%TO.N,+3V3*%
X156550000Y-81955000D03*
%TD*%
D26*
%TO.P,U3,1*%
%TO.N,Net-(R14-Pad1)*%
X171737500Y-87755000D03*
%TO.P,U3,2,V-_2*%
%TO.N,GND*%
X171737500Y-87105000D03*
%TO.P,U3,3,+_3*%
%TO.N,/peak_detect/pm_in*%
X171737500Y-86455000D03*
%TO.P,U3,4,-_4*%
%TO.N,Net-(U3--)*%
X170062500Y-86455000D03*
%TO.P,U3,5,LE_5*%
%TO.N,Net-(U3-LE)*%
X170062500Y-87105000D03*
%TO.P,U3,6,V+_6*%
%TO.N,+3V3*%
X170062500Y-87755000D03*
%TD*%
D23*
%TO.P,R1,1*%
%TO.N,switch_dig*%
X144902500Y-77795000D03*
%TO.P,R1,2*%
%TO.N,GND*%
X143252500Y-77795000D03*
%TD*%
D27*
%TO.P,-30V_PG1,1,K_1*%
%TO.N,Net-(-30V_PG1-K)*%
X156975000Y-67205000D03*
%TO.P,-30V_PG1,2,A_2*%
%TO.N,Net-(-30V_PG1-A)*%
X155100000Y-67205000D03*
%TD*%
D16*
%TO.P,R16,1*%
%TO.N,Net-(U2B--)*%
X156200000Y-76580000D03*
%TO.P,R16,2*%
%TO.N,Net-(U4--)*%
X156200000Y-78230000D03*
%TD*%
%TO.P,R18,1*%
%TO.N,Net-(U4--)*%
X160300000Y-83805000D03*
%TO.P,R18,2*%
%TO.N,detection_out*%
X160300000Y-85455000D03*
%TD*%
D14*
%TO.P,C2,1*%
%TO.N,GND*%
X165500000Y-71255000D03*
%TO.P,C2,2*%
%TO.N,Net-(C1-Pad2)*%
X165500000Y-72805000D03*
%TD*%
%TO.P,C6,1*%
%TO.N,+3V3*%
X169300000Y-89005000D03*
%TO.P,C6,2*%
%TO.N,GND*%
X169300000Y-90555000D03*
%TD*%
D28*
%TO.P,H4,1*%
%TO.N,N/C*%
X194200000Y-101200000D03*
%TD*%
D21*
%TO.P,JP3,1,A_1*%
%TO.N,Net-(-30V_PG1-K)*%
X160550000Y-67905000D03*
%TO.P,JP3,2,B_2*%
%TO.N,-30V*%
X160550000Y-70445000D03*
%TD*%
D19*
%TO.P,R4,1*%
%TO.N,Net-(-30V_PG1-A)*%
X155237500Y-70705000D03*
%TO.P,R4,2*%
%TO.N,GND*%
X156887500Y-70705000D03*
%TD*%
%TO.P,R3,1*%
%TO.N,Net-(JP2-A)*%
X147650000Y-70805000D03*
%TO.P,R3,2*%
%TO.N,Net-(3V3_PG1-A)*%
X149300000Y-70805000D03*
%TD*%
D23*
%TO.P,R12,1*%
%TO.N,Net-(R12-Pad1)*%
X172500000Y-81405000D03*
%TO.P,R12,2*%
%TO.N,/peak_detect/pm_in*%
X170850000Y-81405000D03*
%TD*%
D19*
%TO.P,R11,1*%
%TO.N,/peak_detect/pm_in*%
X170850000Y-83005000D03*
%TO.P,R11,2*%
%TO.N,GND*%
X172500000Y-83005000D03*
%TD*%
D29*
%TO.P,TP1,1,1_1*%
%TO.N,Net-(R12-Pad1)*%
X179900000Y-84805000D03*
%TD*%
D28*
%TO.P,H1,1*%
%TO.N,N/C*%
X194200000Y-58800000D03*
%TD*%
D19*
%TO.P,R5,1*%
%TO.N,Net-(C1-Pad2)*%
X167250000Y-73005000D03*
%TO.P,R5,2*%
%TO.N,Net-(C3-Pad2)*%
X168900000Y-73005000D03*
%TD*%
D28*
%TO.P,H2,1*%
%TO.N,N/C*%
X141200000Y-101800000D03*
%TD*%
D23*
%TO.P,R8,1*%
%TO.N,Net-(C5-Pad2)*%
X175750000Y-81405000D03*
%TO.P,R8,2*%
%TO.N,Net-(R12-Pad1)*%
X174100000Y-81405000D03*
%TD*%
D30*
%TO.P,3V3_PG1,1,K_1*%
%TO.N,GND*%
X147437500Y-67155000D03*
%TO.P,3V3_PG1,2,A_2*%
%TO.N,Net-(3V3_PG1-A)*%
X149312500Y-67155000D03*
%TD*%
D28*
%TO.P,H3,1*%
%TO.N,N/C*%
X141800000Y-58800000D03*
%TD*%
D17*
%TO.P,C10,1*%
%TO.N,+3V3*%
X154250000Y-82005000D03*
%TO.P,C10,2*%
%TO.N,GND*%
X152700000Y-82005000D03*
%TD*%
D31*
%TO.P,Q1,1,G_1*%
%TO.N,switch_dig*%
X145050000Y-83767500D03*
%TO.P,Q1,2,S_2*%
%TO.N,GND*%
X143150000Y-83767500D03*
%TO.P,Q1,3,D_3*%
%TO.N,Net-(D1-A)*%
X144100000Y-85642500D03*
%TD*%
D19*
%TO.P,R6,1*%
%TO.N,Net-(C3-Pad2)*%
X170730000Y-73005000D03*
%TO.P,R6,2*%
%TO.N,-30V*%
X172380000Y-73005000D03*
%TD*%
D16*
%TO.P,R2,1*%
%TO.N,Net-(JP1-A)*%
X148500000Y-90005000D03*
%TO.P,R2,2*%
%TO.N,Net-(D1-K)*%
X148500000Y-91655000D03*
%TD*%
D23*
%TO.P,R13,1*%
%TO.N,Net-(U3-LE)*%
X168700000Y-87405000D03*
%TO.P,R13,2*%
%TO.N,GND*%
X167050000Y-87405000D03*
%TD*%
D32*
%TO.P,C8,1*%
%TO.N,Net-(C8-Pad1)*%
X164500000Y-78405000D03*
%TO.P,C8,2*%
%TO.N,Net-(U2B--)*%
X164500000Y-76855000D03*
%TD*%
D33*
%TO.P,U5,1,COM_1*%
%TO.N,GND*%
X147095000Y-80305000D03*
%TO.P,U5,2,NO_2*%
%TO.N,Net-(U5-NO)*%
X147095000Y-81255000D03*
%TO.P,U5,3,GND_3*%
%TO.N,GND*%
X147095000Y-82205000D03*
%TO.P,U5,4,IN_4*%
%TO.N,switch_dig*%
X149605000Y-82205000D03*
%TO.P,U5,5,V+_5*%
%TO.N,+3V3*%
X149605000Y-80305000D03*
%TD*%
D16*
%TO.P,R7,1*%
%TO.N,Net-(U2A--)*%
X173900000Y-78100000D03*
%TO.P,R7,2*%
%TO.N,Net-(C5-Pad2)*%
X173900000Y-79750000D03*
%TD*%
D22*
%TO.P,R10,1*%
%TO.N,Net-(U3--)*%
X163900000Y-86255000D03*
%TO.P,R10,2*%
%TO.N,GND*%
X163900000Y-84605000D03*
%TD*%
D34*
%TO.N,GND*%
X151900000Y-86605000D03*
X149100000Y-83905000D03*
X154500000Y-87105000D03*
X152500000Y-85105000D03*
X162500000Y-63500000D03*
X172700000Y-85405000D03*
X144600000Y-81405000D03*
X144700000Y-82305000D03*
X156900000Y-88605000D03*
X146900000Y-85205000D03*
X173500000Y-76555000D03*
X173149265Y-90854265D03*
X193000000Y-74200000D03*
X157400000Y-87105000D03*
X164100000Y-70505000D03*
X191000000Y-63500000D03*
X148550000Y-57850000D03*
X151200000Y-83905000D03*
X159500000Y-91105000D03*
X164100000Y-71905000D03*
X147800000Y-85105000D03*
X153350000Y-85755000D03*
X152600000Y-87105000D03*
X170025735Y-92280735D03*
X177400000Y-81105000D03*
X150400000Y-85305000D03*
X189250000Y-93655000D03*
X156900000Y-86655000D03*
X154500000Y-87105000D03*
X146974265Y-83330735D03*
X151100000Y-85905000D03*
X149100000Y-83905000D03*
X171599265Y-92404265D03*
X149500000Y-85105000D03*
X146100000Y-67105000D03*
X152600000Y-87105000D03*
X157400000Y-89105000D03*
X143300000Y-78905000D03*
X143300000Y-79805000D03*
X142800000Y-82205000D03*
X185600000Y-66305000D03*
X171600735Y-90705735D03*
X148000000Y-83905000D03*
X172100735Y-90205735D03*
X159500000Y-90105000D03*
X156400000Y-88105000D03*
X150400000Y-85305000D03*
X148600000Y-85105000D03*
X185400000Y-72555000D03*
X149500000Y-85105000D03*
X189400000Y-99105000D03*
X152600000Y-87105000D03*
X178650000Y-65800000D03*
X148000000Y-83905000D03*
X146300000Y-84405000D03*
X144700000Y-82305000D03*
X144700000Y-79405000D03*
X155050000Y-85755000D03*
X177050000Y-69550000D03*
X144600000Y-80405000D03*
X150500000Y-83305000D03*
X192700000Y-82050000D03*
X154200000Y-85755000D03*
X144700000Y-79405000D03*
X153600000Y-87105000D03*
X151900000Y-86605000D03*
X158900000Y-88605000D03*
X149500000Y-85105000D03*
X150500000Y-83305000D03*
X161300000Y-81055000D03*
X153600000Y-87105000D03*
X169500735Y-92805735D03*
X170550735Y-91755735D03*
X172124265Y-91879265D03*
X149100000Y-83905000D03*
X143300000Y-80805000D03*
X143300000Y-81605000D03*
X148600000Y-85105000D03*
X167300000Y-70405000D03*
X151200000Y-83905000D03*
X159400000Y-89105000D03*
X158300000Y-91605000D03*
X171099265Y-92904265D03*
X150500000Y-83305000D03*
X151800000Y-84505000D03*
X143300000Y-81605000D03*
X151900000Y-86605000D03*
X160074265Y-91930735D03*
X150400000Y-85305000D03*
X175750000Y-87755000D03*
X147800000Y-85105000D03*
X156350000Y-86205000D03*
X151100000Y-85905000D03*
X170599265Y-93404265D03*
X151200000Y-83905000D03*
X177400000Y-75105000D03*
X174600000Y-86105000D03*
X143300000Y-80805000D03*
X158050000Y-71305000D03*
X173500000Y-75305000D03*
X144600000Y-80405000D03*
X144600000Y-81405000D03*
X186350000Y-99300000D03*
X181400000Y-78605000D03*
X148600000Y-85105000D03*
X155400000Y-87105000D03*
X158900000Y-92605000D03*
X155850000Y-85805000D03*
X146900000Y-85205000D03*
X147800000Y-85105000D03*
X154500000Y-87105000D03*
X178400000Y-77105000D03*
X174400000Y-75105000D03*
X144600000Y-81405000D03*
X143300000Y-80805000D03*
X143300000Y-79805000D03*
X188500000Y-60500000D03*
X189200000Y-85355000D03*
X151800000Y-84505000D03*
X175850000Y-84555000D03*
X167200000Y-88605000D03*
X160900000Y-92605000D03*
X146900000Y-85205000D03*
X144600000Y-80405000D03*
X148000000Y-83905000D03*
X151500000Y-80805000D03*
X151100000Y-85905000D03*
X181900000Y-81105000D03*
X179550000Y-58700000D03*
X143300000Y-81605000D03*
X171075735Y-91230735D03*
X178900000Y-79105000D03*
X146500000Y-79205000D03*
X169450000Y-62700000D03*
X153600000Y-87105000D03*
X160500000Y-73305000D03*
X142300000Y-78755000D03*
X169600000Y-59850000D03*
X157900000Y-89605000D03*
X146300000Y-84405000D03*
X172648897Y-91354632D03*
X144700000Y-82305000D03*
X167200000Y-84205000D03*
X157900000Y-87605000D03*
X193300000Y-90800000D03*
X151800000Y-84505000D03*
X144700000Y-79405000D03*
X143300000Y-78905000D03*
X152500000Y-85105000D03*
X143300000Y-78905000D03*
X152500000Y-85105000D03*
X167800000Y-90905000D03*
X146300000Y-84405000D03*
X165300000Y-83705000D03*
X194500000Y-97000000D03*
X158300000Y-90605000D03*
X173950000Y-83455000D03*
X158400000Y-88105000D03*
X143300000Y-79805000D03*
X155900000Y-87605000D03*
%TO.N,Net-(C1-Pad2)*%
X164100000Y-73355000D03*
%TO.N,Net-(U2A--)*%
X170200000Y-79565050D03*
%TO.N,+3V3*%
X159550000Y-87855000D03*
X161487500Y-87842500D03*
X152000000Y-78005000D03*
X152100000Y-76105000D03*
%TO.N,Net-(U4-+)*%
X154700000Y-77605000D03*
X157800000Y-77505000D03*
%TD*%
%TO.N,+3V3*%
D35*
X159285000Y-95850000D02*
X151640000Y-88205000D01*
X166730000Y-94360000D02*
X165240000Y-95850000D01*
X165240000Y-95850000D02*
X159285000Y-95850000D01*
%TO.N,comparator_out*%
X169470000Y-94514338D02*
X169425000Y-94559338D01*
X169470000Y-93685000D02*
X169470000Y-94514338D01*
X173300000Y-89855000D02*
X169470000Y-93685000D01*
%TO.N,+3V3*%
D36*
X166730000Y-94035000D02*
X164300000Y-91605000D01*
X166730000Y-94360000D02*
X166730000Y-94035000D01*
%TO.N,switch_dig*%
D35*
X155598529Y-86455000D02*
X152750000Y-86455000D01*
X158900000Y-89756471D02*
X155598529Y-86455000D01*
X158900000Y-91605000D02*
X158900000Y-89756471D01*
X152750000Y-86455000D02*
X150500000Y-84205000D01*
X161250000Y-94424338D02*
X161250000Y-93955000D01*
X161115000Y-94559338D02*
X161250000Y-94424338D01*
X161250000Y-93955000D02*
X158900000Y-91605000D01*
%TO.N,detection_out*%
X160300000Y-90750000D02*
X160300000Y-85455000D01*
X163910000Y-94360000D02*
X160300000Y-90750000D01*
X163990000Y-94360000D02*
X163910000Y-94360000D01*
%TO.N,GND*%
X146974265Y-83330735D02*
X146974265Y-83220735D01*
X162700000Y-71255000D02*
X163450000Y-71255000D01*
X143150000Y-82555000D02*
X142800000Y-82205000D01*
X173500000Y-75305000D02*
X172900000Y-75305000D01*
X143150000Y-83767500D02*
X143150000Y-82555000D01*
X164850000Y-71255000D02*
X164100000Y-70505000D01*
X142300000Y-78755000D02*
X142750000Y-78755000D01*
X166700000Y-82955000D02*
X166700000Y-83705000D01*
X165500000Y-71255000D02*
X164850000Y-71255000D01*
X164700000Y-81955000D02*
X164700000Y-83105000D01*
X161300000Y-81055000D02*
X162500000Y-81055000D01*
X167050000Y-87405000D02*
X167050000Y-88455000D01*
X162500000Y-81055000D02*
X162850000Y-80705000D01*
D36*
X157450000Y-70705000D02*
X158050000Y-71305000D01*
D35*
X172700000Y-86555432D02*
X172150432Y-87105000D01*
X162850000Y-80705000D02*
X162850000Y-80005000D01*
X142750000Y-78755000D02*
X143252500Y-78252500D01*
X147095000Y-80305000D02*
X147095000Y-79800000D01*
X161300000Y-81055000D02*
X159750000Y-81055000D01*
X148075000Y-78355000D02*
X147350000Y-78355000D01*
X161025000Y-73830000D02*
X160500000Y-73305000D01*
X147095000Y-83100000D02*
X147095000Y-82205000D01*
X173150000Y-76555000D02*
X172710000Y-76995000D01*
X163900000Y-84605000D02*
X164400000Y-84605000D01*
X147095000Y-79800000D02*
X146500000Y-79205000D01*
X143252500Y-78252500D02*
X143252500Y-77795000D01*
X169100000Y-69855000D02*
X167850000Y-69855000D01*
X147350000Y-78355000D02*
X146500000Y-79205000D01*
X166700000Y-83705000D02*
X167200000Y-84205000D01*
X173500000Y-83005000D02*
X172500000Y-83005000D01*
D36*
X146100000Y-67105000D02*
X147387500Y-67105000D01*
D35*
X161025000Y-74405000D02*
X161025000Y-73830000D01*
X169300000Y-90555000D02*
X168150000Y-90555000D01*
X167850000Y-69855000D02*
X167300000Y-70405000D01*
X172900000Y-75305000D02*
X172480000Y-75725000D01*
X168150000Y-90555000D02*
X167800000Y-90905000D01*
D36*
X147387500Y-67105000D02*
X147437500Y-67155000D01*
D35*
X167050000Y-88455000D02*
X167200000Y-88605000D01*
D36*
X156887500Y-70705000D02*
X157450000Y-70705000D01*
D35*
X164700000Y-83105000D02*
X165300000Y-83705000D01*
X146974265Y-83220735D02*
X147095000Y-83100000D01*
X164400000Y-84605000D02*
X165300000Y-83705000D01*
X152700000Y-82005000D02*
X151500000Y-80805000D01*
X173500000Y-76555000D02*
X173150000Y-76555000D01*
X172700000Y-85405000D02*
X172700000Y-86555432D01*
X163450000Y-71255000D02*
X164100000Y-71905000D01*
X173950000Y-83455000D02*
X173500000Y-83005000D01*
%TO.N,Net-(C1-Pad2)*%
X163550000Y-72805000D02*
X164100000Y-73355000D01*
X165500000Y-72805000D02*
X164650000Y-72805000D01*
X167250000Y-73005000D02*
X165700000Y-73005000D01*
X162700000Y-72805000D02*
X163550000Y-72805000D01*
X164650000Y-72805000D02*
X164100000Y-73355000D01*
%TO.N,Net-(U2A--)*%
X170400000Y-79065050D02*
X171200050Y-78265000D01*
X170200000Y-79565050D02*
X170400000Y-79365050D01*
X170400000Y-79365050D02*
X170400000Y-79065050D01*
X173900000Y-78100000D02*
X175600000Y-78100000D01*
X173900000Y-78100000D02*
X172040000Y-78100000D01*
%TO.N,Net-(C5-Pad2)*%
X171875000Y-79535000D02*
X173610000Y-79535000D01*
X173900000Y-79750000D02*
X175600000Y-79750000D01*
X175650000Y-79700000D02*
X175650000Y-81305000D01*
%TO.N,Net-(R14-Pad1)*%
X171737500Y-87755000D02*
X172850000Y-87755000D01*
X172850000Y-87755000D02*
X173300000Y-88205000D01*
%TO.N,+3V3*%
X169300000Y-89005000D02*
X169300000Y-88517500D01*
X166700000Y-81405000D02*
X166700000Y-79760000D01*
X166700000Y-79760000D02*
X166925000Y-79535000D01*
D36*
X161487500Y-87842500D02*
X161850000Y-87480000D01*
X159550000Y-87205000D02*
X156500000Y-84155000D01*
D35*
X151905000Y-78005000D02*
X152000000Y-78005000D01*
D36*
X166055000Y-80405000D02*
X166925000Y-79535000D01*
X156550000Y-81955000D02*
X156550000Y-84105000D01*
X162450000Y-88805000D02*
X162450000Y-89755000D01*
X149700000Y-80305000D02*
X152000000Y-78005000D01*
D35*
X149625000Y-78355000D02*
X149625000Y-80285000D01*
X168150000Y-89005000D02*
X165550000Y-91605000D01*
X169300000Y-89005000D02*
X168150000Y-89005000D01*
D36*
X162450000Y-89755000D02*
X164300000Y-91605000D01*
X159550000Y-87855000D02*
X159550000Y-87205000D01*
X156550000Y-84105000D02*
X156500000Y-84155000D01*
X149605000Y-80750920D02*
X149605000Y-80305000D01*
D35*
X165550000Y-91605000D02*
X164300000Y-91605000D01*
D36*
X164700000Y-80405000D02*
X166055000Y-80405000D01*
X161850000Y-83255000D02*
X164700000Y-80405000D01*
X153009080Y-84155000D02*
X149605000Y-80750920D01*
X161487500Y-87842500D02*
X162450000Y-88805000D01*
D35*
X154250000Y-82005000D02*
X156500000Y-82005000D01*
X161900000Y-88205000D02*
X165300000Y-88205000D01*
D36*
X161850000Y-87480000D02*
X161850000Y-83255000D01*
D35*
X169300000Y-88517500D02*
X170062500Y-87755000D01*
D36*
X152100000Y-75390000D02*
X150715000Y-74005000D01*
X156500000Y-84155000D02*
X153009080Y-84155000D01*
X149605000Y-80305000D02*
X149700000Y-80305000D01*
D35*
X161875000Y-88230000D02*
X161900000Y-88205000D01*
D36*
X152100000Y-76105000D02*
X152100000Y-75390000D01*
%TO.N,/peak_detect/pm_in*%
D35*
X170850000Y-83005000D02*
X170850000Y-85455000D01*
X170400000Y-81405000D02*
X168900000Y-79905000D01*
X168900000Y-76725001D02*
X167899999Y-75725000D01*
X170850000Y-81405000D02*
X170400000Y-81405000D01*
X170850000Y-85455000D02*
X171737500Y-86342500D01*
X167899999Y-75725000D02*
X166925000Y-75725000D01*
X162675000Y-74405000D02*
X163250000Y-74405000D01*
X163250000Y-74405000D02*
X164570000Y-75725000D01*
X171737500Y-86342500D02*
X171737500Y-86455000D01*
X170850000Y-81405000D02*
X170850000Y-83005000D01*
X168900000Y-79905000D02*
X168900000Y-76725001D01*
X164570000Y-75725000D02*
X166925000Y-75725000D01*
%TO.N,Net-(U5-NO)*%
X145850000Y-78780000D02*
X148125000Y-76505000D01*
X145850000Y-80855000D02*
X145850000Y-78780000D01*
X146250000Y-81255000D02*
X145850000Y-80855000D01*
X147095000Y-81255000D02*
X146250000Y-81255000D01*
%TO.N,Net-(D1-K)*%
X144237500Y-91205000D02*
X148050000Y-91205000D01*
X148050000Y-91205000D02*
X148500000Y-91655000D01*
%TO.N,Net-(D1-A)*%
X144150000Y-85692500D02*
X144150000Y-89417500D01*
%TO.N,Net-(JP2-A)*%
D36*
X147150000Y-72155000D02*
X147650000Y-71655000D01*
X147150000Y-72980000D02*
X147150000Y-72155000D01*
X148175000Y-74005000D02*
X147150000Y-72980000D01*
X147650000Y-71655000D02*
X147650000Y-70805000D01*
%TO.N,Net-(JP1-A)*%
D35*
X149100000Y-89405000D02*
X148500000Y-90005000D01*
X149100000Y-88205000D02*
X149100000Y-89405000D01*
%TO.N,Net-(U3--)*%
X170062500Y-86455000D02*
X165600000Y-86455000D01*
X165500000Y-86355000D02*
X164000000Y-86355000D01*
%TO.N,Net-(C3-Pad2)*%
X170730000Y-72035000D02*
X170100000Y-71405000D01*
X170100000Y-71405000D02*
X169100000Y-71405000D01*
X170730000Y-73005000D02*
X170730000Y-72035000D01*
X169100000Y-71405000D02*
X169100000Y-72805000D01*
%TO.N,switch_dig*%
X149605000Y-83310000D02*
X149605000Y-82205000D01*
X150200000Y-84505000D02*
X150500000Y-84205000D01*
X143950000Y-79142500D02*
X145100000Y-77992500D01*
X147300000Y-84505000D02*
X150200000Y-84505000D01*
X146450000Y-83755000D02*
X146550000Y-83755000D01*
X143950000Y-82567500D02*
X143950000Y-79142500D01*
X145050000Y-83767500D02*
X146437500Y-83767500D01*
X146437500Y-83767500D02*
X146450000Y-83755000D01*
X150500000Y-84205000D02*
X149605000Y-83310000D01*
X145100000Y-83717500D02*
X143950000Y-82567500D01*
X146550000Y-83755000D02*
X147300000Y-84505000D01*
%TO.N,-30V*%
D36*
X160750000Y-70445000D02*
X160550000Y-70445000D01*
X172380000Y-73005000D02*
X179500000Y-73005000D01*
X173430000Y-97220000D02*
X170855000Y-97220000D01*
X172380000Y-73005000D02*
X172380000Y-68585000D01*
X179500000Y-73005000D02*
X185550000Y-79055000D01*
X170500000Y-66705000D02*
X165100000Y-66705000D01*
X165100000Y-66705000D02*
X161285000Y-70520000D01*
X160825000Y-70520000D02*
X160750000Y-70445000D01*
X172380000Y-68585000D02*
X170500000Y-66705000D01*
X161285000Y-70520000D02*
X160825000Y-70520000D01*
X185550000Y-79055000D02*
X185550000Y-85100000D01*
X185550000Y-85100000D02*
X173430000Y-97220000D01*
%TO.N,Net-(U4--)*%
D35*
X160300000Y-83005000D02*
X159532842Y-82237842D01*
X160300000Y-83805000D02*
X160300000Y-83005000D01*
X158450000Y-81955000D02*
X159250000Y-81955000D01*
X156550000Y-78580000D02*
X156200000Y-78230000D01*
X156550000Y-80055000D02*
X156550000Y-78580000D01*
X156550000Y-80055000D02*
X158450000Y-81955000D01*
%TO.N,Net-(U3-LE)*%
X168700000Y-87405000D02*
X169000000Y-87105000D01*
X169000000Y-87105000D02*
X170062500Y-87105000D01*
%TO.N,Net-(R12-Pad1)*%
X174100000Y-81405000D02*
X172500000Y-81405000D01*
X179650000Y-84855000D02*
X179700000Y-84805000D01*
X177550000Y-84855000D02*
X179650000Y-84855000D01*
X174100000Y-81405000D02*
X177550000Y-84855000D01*
X179700000Y-84805000D02*
X179900000Y-84805000D01*
%TO.N,Net-(-30V_PG1-A)*%
D36*
X153800000Y-67555000D02*
X154150000Y-67205000D01*
X153800000Y-70155000D02*
X153800000Y-67555000D01*
X154150000Y-67205000D02*
X155100000Y-67205000D01*
X155237500Y-70705000D02*
X154350000Y-70705000D01*
X154350000Y-70705000D02*
X153800000Y-70155000D01*
%TO.N,Net-(-30V_PG1-K)*%
X160050000Y-67955000D02*
X160500000Y-67955000D01*
X156975000Y-67205000D02*
X159300000Y-67205000D01*
X160500000Y-67955000D02*
X160550000Y-67905000D01*
X159300000Y-67205000D02*
X160050000Y-67955000D01*
%TO.N,Net-(3V3_PG1-A)*%
X150150000Y-70805000D02*
X149300000Y-70805000D01*
X149312500Y-67155000D02*
X150250000Y-67155000D01*
X150650000Y-70305000D02*
X150150000Y-70805000D01*
X150250000Y-67155000D02*
X150650000Y-67555000D01*
X150650000Y-67555000D02*
X150650000Y-70305000D01*
%TO.N,Net-(C8-Pad1)*%
D35*
X163287500Y-78055000D02*
X163550000Y-78055000D01*
X163550000Y-78055000D02*
X163900000Y-78405000D01*
X163900000Y-78405000D02*
X164500000Y-78405000D01*
X162637500Y-77405000D02*
X163287500Y-78055000D01*
X164500000Y-78405000D02*
X166785000Y-78405000D01*
%TO.N,Net-(U2B--)*%
X163050000Y-75405000D02*
X164475000Y-76830000D01*
X156200000Y-76580000D02*
X157375000Y-75405000D01*
X164790000Y-76995000D02*
X166925000Y-76995000D01*
X160762500Y-76455000D02*
X159712500Y-75405000D01*
X157375000Y-75405000D02*
X159712500Y-75405000D01*
X159712500Y-75405000D02*
X163050000Y-75405000D01*
%TO.N,Net-(U4-+)*%
X158500000Y-78205000D02*
X157800000Y-77505000D01*
X154150000Y-77055000D02*
X154700000Y-77605000D01*
X150325000Y-77055000D02*
X154150000Y-77055000D01*
X161300000Y-80005000D02*
X161300000Y-78892500D01*
X161300000Y-78892500D02*
X160762500Y-78355000D01*
X159250000Y-80055000D02*
X161250000Y-80055000D01*
X149775000Y-76505000D02*
X150325000Y-77055000D01*
X159325000Y-78205000D02*
X159325000Y-79980000D01*
X159325000Y-78205000D02*
X158500000Y-78205000D01*
%TD*%
%TA.AperFunction,Conductor*%
%TO.N,GND*%
G36*
X178515677Y-73824685D02*
G01*
X178536319Y-73841319D01*
X184463681Y-79768681D01*
X184497166Y-79830004D01*
X184500000Y-79856362D01*
X184500000Y-80753640D01*
X184480315Y-80820679D01*
X184463681Y-80841321D01*
X183736817Y-81568184D01*
X183675494Y-81601669D01*
X183649383Y-81604503D01*
X176970775Y-81617805D01*
X176903696Y-81598254D01*
X176857836Y-81545541D01*
X176846541Y-81492044D01*
X176855785Y-80841321D01*
X176904341Y-77422966D01*
X176512499Y-77005000D01*
X176512498Y-77005000D01*
X173324000Y-77005000D01*
X173256961Y-76985315D01*
X173211206Y-76932511D01*
X173200000Y-76881000D01*
X173200000Y-73929000D01*
X173219685Y-73861961D01*
X173272489Y-73816206D01*
X173324000Y-73805000D01*
X178448638Y-73805000D01*
X178515677Y-73824685D01*
G37*
%TD.AperFunction*%
%TD*%
%TA.AperFunction,Conductor*%
%TO.N,GND*%
G36*
X190959494Y-57019685D02*
G01*
X191005249Y-57072489D01*
X191015209Y-57106464D01*
X191200000Y-58399998D01*
X191200001Y-58400005D01*
X191920000Y-60320001D01*
X191920001Y-60320002D01*
X192499999Y-60899999D01*
X192500003Y-60900002D01*
X193699999Y-61500000D01*
X193700000Y-61500000D01*
X195376000Y-61500000D01*
X195443039Y-61519685D01*
X195488794Y-61572489D01*
X195500000Y-61624000D01*
X195500000Y-97376000D01*
X195480315Y-97443039D01*
X195427511Y-97488794D01*
X195376000Y-97500000D01*
X194500000Y-97500000D01*
X192000000Y-98499999D01*
X191056252Y-99374264D01*
X190516139Y-102894804D01*
X190486516Y-102958083D01*
X190427384Y-102995301D01*
X190393573Y-103000000D01*
X187047419Y-103000000D01*
X184724000Y-103000000D01*
X184656961Y-102980315D01*
X184611206Y-102927511D01*
X184600000Y-102876000D01*
X184600000Y-93426489D01*
X184619685Y-93359450D01*
X184638322Y-93336849D01*
X187000000Y-91079569D01*
X187000000Y-79188977D01*
X179989250Y-72000000D01*
X173612219Y-72000000D01*
X173545180Y-71980315D01*
X173499425Y-71927511D01*
X173488834Y-71888338D01*
X172900000Y-66000000D01*
X172899998Y-65999999D01*
X161052539Y-63754573D01*
X161052533Y-63754572D01*
X140293369Y-63647216D01*
X140226432Y-63627185D01*
X140180951Y-63574145D01*
X140170768Y-63536912D01*
X140012554Y-62112990D01*
X140024715Y-62044186D01*
X140072144Y-61992880D01*
X140111475Y-61977704D01*
X142500000Y-61500000D01*
X143900000Y-60800000D01*
X144500000Y-59600000D01*
X144500000Y-57124000D01*
X144519685Y-57056961D01*
X144572489Y-57011206D01*
X144624000Y-57000000D01*
X190892455Y-57000000D01*
X190959494Y-57019685D01*
G37*
%TD.AperFunction*%
%TD*%
%TA.AperFunction,Conductor*%
%TO.N,GND*%
G36*
X174266442Y-82424685D02*
G01*
X174287084Y-82441319D01*
X176252445Y-84406681D01*
X176285930Y-84468004D01*
X176288762Y-84495029D01*
X176267353Y-88477183D01*
X176247309Y-88544115D01*
X176194259Y-88589586D01*
X176138929Y-88600437D01*
X175404799Y-88574218D01*
X175338505Y-88552153D01*
X175299749Y-88508529D01*
X174574590Y-87145229D01*
X174560486Y-87076798D01*
X174570896Y-87039741D01*
X172692089Y-86072307D01*
X172650479Y-86037551D01*
X172581867Y-85948133D01*
X172581865Y-85948132D01*
X172581865Y-85948131D01*
X172459036Y-85853882D01*
X172459037Y-85853882D01*
X172316002Y-85794636D01*
X172316000Y-85794635D01*
X172315999Y-85794635D01*
X172290452Y-85791271D01*
X172201047Y-85779500D01*
X172201040Y-85779500D01*
X172153490Y-85779500D01*
X172096724Y-85765743D01*
X171935116Y-85682528D01*
X171904202Y-85659966D01*
X171486819Y-85242583D01*
X171453334Y-85181260D01*
X171450500Y-85154902D01*
X171450500Y-83921519D01*
X171470185Y-83854480D01*
X171486813Y-83833843D01*
X171587675Y-83732981D01*
X171648994Y-83699499D01*
X171718686Y-83704483D01*
X171763034Y-83732984D01*
X171865122Y-83835072D01*
X172010604Y-83923019D01*
X172010603Y-83923019D01*
X172172894Y-83973590D01*
X172172893Y-83973590D01*
X172243408Y-83979998D01*
X172243426Y-83979999D01*
X172750000Y-83979999D01*
X172756581Y-83979999D01*
X172827102Y-83973591D01*
X172827107Y-83973590D01*
X172989396Y-83923018D01*
X173134877Y-83835072D01*
X173255072Y-83714877D01*
X173343019Y-83569395D01*
X173393590Y-83407106D01*
X173400000Y-83336572D01*
X173400000Y-83255000D01*
X172750000Y-83255000D01*
X172750000Y-83979999D01*
X172243426Y-83979999D01*
X172249999Y-83979998D01*
X172250000Y-83979998D01*
X172250000Y-83129000D01*
X172269685Y-83061961D01*
X172322489Y-83016206D01*
X172374000Y-83005000D01*
X172500000Y-83005000D01*
X172500000Y-82879000D01*
X172519685Y-82811961D01*
X172572489Y-82766206D01*
X172624000Y-82755000D01*
X173399999Y-82755000D01*
X173399999Y-82673417D01*
X173393591Y-82602897D01*
X173382060Y-82565890D01*
X173380910Y-82496030D01*
X173417711Y-82436637D01*
X173480780Y-82406569D01*
X173500446Y-82405000D01*
X174199403Y-82405000D01*
X174266442Y-82424685D01*
G37*
%TD.AperFunction*%
%TD*%
M02*
