%TF.GenerationSoftware,KiCad,Pcbnew,10.0.6*%
%TF.CreationDate,2026-09-15T15:16:31-04:00*%
%TF.ProjectId,detection_board,64657465-6374-4696-9f6e-5f626f617264,rev?*%
%TF.SameCoordinates,Original*%
%TF.FileFunction,Soldermask,Bot*%
%TF.FilePolarity,Negative*%
%FSLAX46Y46*%
G04 Gerber Fmt 4.6, Leading zero omitted, Abs format (unit mm)*
G04 Created by KiCad (PCBNEW 10.0.6) date 2026-09-15 15:16:31*
%MOMM*%
%LPD*%
G01*
G04 APERTURE LIST*
G04 Aperture macros list*
%AMRoundRect*
0 Rectangle with rounded corners*
0 $1 Rounding radius*
0 $2 $3 $4 $5 $6 $7 $8 $9 X,Y pos of 4 corners*
0 Add a 4 corners polygon primitive as box body*
4,1,4,$2,$3,$4,$5,$6,$7,$8,$9,$2,$3,0*
0 Add four circle primitives for the rounded corners*
1,1,$1+$1,$2,$3*
1,1,$1+$1,$4,$5*
1,1,$1+$1,$6,$7*
1,1,$1+$1,$8,$9*
0 Add four rect primitives between the rounded corners*
20,1,$1+$1,$2,$3,$4,$5,0*
20,1,$1+$1,$4,$5,$6,$7,0*
20,1,$1+$1,$6,$7,$8,$9,0*
20,1,$1+$1,$8,$9,$2,$3,0*%
G04 Aperture macros list end*
%ADD10C,0.000100*%
%ADD11RoundRect,0.102000X-0.704000X-0.704000X0.704000X-0.704000X0.704000X0.704000X-0.704000X0.704000X0*%
%ADD12C,1.612000*%
%ADD13C,4.420000*%
%ADD14C,1.400000*%
%ADD15C,3.800000*%
%ADD16RoundRect,0.252000X-0.150000X-0.400000X0.150000X-0.400000X0.150000X0.400000X-0.150000X0.400000X0*%
%ADD17RoundRect,0.252000X-0.400000X-0.150000X0.400000X-0.150000X0.400000X0.150000X-0.400000X0.150000X0*%
G04 APERTURE END LIST*
D10*
%TO.C,U1*%
X166350000Y-79155000D02*
X166350000Y-80645000D01*
X166350000Y-80656000D01*
X166351000Y-80667000D01*
X166353000Y-80678000D01*
X166355000Y-80689000D01*
X166357000Y-80699000D01*
X166360000Y-80710000D01*
X166364000Y-80720000D01*
X166368000Y-80730000D01*
X166373000Y-80740000D01*
X166378000Y-80750000D01*
X166384000Y-80759000D01*
X166390000Y-80768000D01*
X166397000Y-80777000D01*
X166404000Y-80786000D01*
X166412000Y-80793000D01*
X166419000Y-80801000D01*
X166428000Y-80808000D01*
X166437000Y-80815000D01*
X166446000Y-80821000D01*
X166455000Y-80827000D01*
X166465000Y-80832000D01*
X166475000Y-80837000D01*
X166485000Y-80841000D01*
X166495000Y-80845000D01*
X166506000Y-80848000D01*
X166516000Y-80850000D01*
X166527000Y-80852000D01*
X166538000Y-80854000D01*
X166549000Y-80855000D01*
X166560000Y-80855000D01*
X166580000Y-80855000D01*
X169230000Y-80855000D01*
X169242000Y-80855000D01*
X169253000Y-80854000D01*
X169264000Y-80852000D01*
X169276000Y-80850000D01*
X169287000Y-80848000D01*
X169298000Y-80844000D01*
X169309000Y-80840000D01*
X169319000Y-80836000D01*
X169330000Y-80831000D01*
X169340000Y-80826000D01*
X169350000Y-80820000D01*
X169359000Y-80813000D01*
X169368000Y-80806000D01*
X169377000Y-80798000D01*
X169386000Y-80791000D01*
X169393000Y-80782000D01*
X169401000Y-80773000D01*
X169408000Y-80764000D01*
X169415000Y-80755000D01*
X169421000Y-80745000D01*
X169426000Y-80735000D01*
X169431000Y-80724000D01*
X169435000Y-80714000D01*
X169439000Y-80703000D01*
X169443000Y-80692000D01*
X169445000Y-80681000D01*
X169447000Y-80669000D01*
X169449000Y-80658000D01*
X169450000Y-80647000D01*
X169450000Y-80635000D01*
X169450000Y-79155000D01*
X170940000Y-79155000D01*
X170951000Y-79155000D01*
X170962000Y-79154000D01*
X170973000Y-79152000D01*
X170984000Y-79150000D01*
X170994000Y-79148000D01*
X171005000Y-79145000D01*
X171015000Y-79141000D01*
X171025000Y-79137000D01*
X171035000Y-79132000D01*
X171045000Y-79127000D01*
X171054000Y-79121000D01*
X171063000Y-79115000D01*
X171072000Y-79108000D01*
X171081000Y-79101000D01*
X171088000Y-79093000D01*
X171096000Y-79086000D01*
X171103000Y-79077000D01*
X171110000Y-79068000D01*
X171116000Y-79059000D01*
X171122000Y-79050000D01*
X171127000Y-79040000D01*
X171132000Y-79030000D01*
X171136000Y-79020000D01*
X171140000Y-79010000D01*
X171143000Y-78999000D01*
X171145000Y-78989000D01*
X171147000Y-78978000D01*
X171149000Y-78967000D01*
X171150000Y-78956000D01*
X171150000Y-78945000D01*
X171150000Y-78915000D01*
X171150000Y-76305000D01*
X171150000Y-76275000D01*
X171150000Y-76263000D01*
X171149000Y-76252000D01*
X171147000Y-76241000D01*
X171145000Y-76229000D01*
X171143000Y-76218000D01*
X171139000Y-76207000D01*
X171135000Y-76196000D01*
X171131000Y-76186000D01*
X171126000Y-76175000D01*
X171121000Y-76165000D01*
X171115000Y-76155000D01*
X171108000Y-76146000D01*
X171101000Y-76137000D01*
X171093000Y-76128000D01*
X171086000Y-76119000D01*
X171077000Y-76112000D01*
X171068000Y-76104000D01*
X171059000Y-76097000D01*
X171050000Y-76090000D01*
X171040000Y-76084000D01*
X171030000Y-76079000D01*
X171019000Y-76074000D01*
X171009000Y-76070000D01*
X170998000Y-76066000D01*
X170987000Y-76062000D01*
X170976000Y-76060000D01*
X170964000Y-76058000D01*
X170953000Y-76056000D01*
X170942000Y-76055000D01*
X170930000Y-76055000D01*
X169450000Y-76055000D01*
X169450000Y-74565000D01*
X169450000Y-74554000D01*
X169449000Y-74543000D01*
X169447000Y-74532000D01*
X169445000Y-74521000D01*
X169443000Y-74511000D01*
X169440000Y-74500000D01*
X169436000Y-74490000D01*
X169432000Y-74480000D01*
X169427000Y-74470000D01*
X169422000Y-74460000D01*
X169416000Y-74451000D01*
X169410000Y-74442000D01*
X169403000Y-74433000D01*
X169396000Y-74424000D01*
X169388000Y-74417000D01*
X169381000Y-74409000D01*
X169372000Y-74402000D01*
X169363000Y-74395000D01*
X169354000Y-74389000D01*
X169345000Y-74383000D01*
X169335000Y-74378000D01*
X169325000Y-74373000D01*
X169315000Y-74369000D01*
X169305000Y-74365000D01*
X169294000Y-74362000D01*
X169284000Y-74360000D01*
X169273000Y-74358000D01*
X169262000Y-74356000D01*
X169251000Y-74355000D01*
X169240000Y-74355000D01*
X169210000Y-74355000D01*
X166580000Y-74355000D01*
X166560000Y-74355000D01*
X166549000Y-74355000D01*
X166538000Y-74356000D01*
X166527000Y-74358000D01*
X166516000Y-74360000D01*
X166506000Y-74362000D01*
X166495000Y-74365000D01*
X166485000Y-74369000D01*
X166475000Y-74373000D01*
X166465000Y-74378000D01*
X166455000Y-74383000D01*
X166446000Y-74389000D01*
X166437000Y-74395000D01*
X166428000Y-74402000D01*
X166419000Y-74409000D01*
X166412000Y-74417000D01*
X166404000Y-74424000D01*
X166397000Y-74433000D01*
X166390000Y-74442000D01*
X166384000Y-74451000D01*
X166378000Y-74460000D01*
X166373000Y-74470000D01*
X166368000Y-74480000D01*
X166364000Y-74490000D01*
X166360000Y-74500000D01*
X166357000Y-74511000D01*
X166355000Y-74521000D01*
X166353000Y-74532000D01*
X166351000Y-74543000D01*
X166350000Y-74554000D01*
X166350000Y-74565000D01*
X166350000Y-76055000D01*
X164880000Y-76055000D01*
X164868000Y-76055000D01*
X164856000Y-76056000D01*
X164844000Y-76058000D01*
X164832000Y-76060000D01*
X164820000Y-76063000D01*
X164809000Y-76066000D01*
X164798000Y-76070000D01*
X164786000Y-76075000D01*
X164776000Y-76080000D01*
X164765000Y-76086000D01*
X164755000Y-76092000D01*
X164745000Y-76099000D01*
X164735000Y-76106000D01*
X164726000Y-76114000D01*
X164717000Y-76122000D01*
X164709000Y-76131000D01*
X164701000Y-76140000D01*
X164694000Y-76150000D01*
X164687000Y-76160000D01*
X164681000Y-76170000D01*
X164675000Y-76181000D01*
X164670000Y-76191000D01*
X164665000Y-76203000D01*
X164661000Y-76214000D01*
X164658000Y-76225000D01*
X164655000Y-76237000D01*
X164653000Y-76249000D01*
X164651000Y-76261000D01*
X164650000Y-76273000D01*
X164650000Y-76285000D01*
X164650000Y-78925000D01*
X164650000Y-78945000D01*
X164650000Y-78956000D01*
X164651000Y-78967000D01*
X164653000Y-78978000D01*
X164655000Y-78989000D01*
X164657000Y-78999000D01*
X164660000Y-79010000D01*
X164664000Y-79020000D01*
X164668000Y-79030000D01*
X164673000Y-79040000D01*
X164678000Y-79050000D01*
X164684000Y-79059000D01*
X164690000Y-79068000D01*
X164697000Y-79077000D01*
X164704000Y-79086000D01*
X164712000Y-79093000D01*
X164719000Y-79101000D01*
X164728000Y-79108000D01*
X164737000Y-79115000D01*
X164746000Y-79121000D01*
X164755000Y-79127000D01*
X164765000Y-79132000D01*
X164775000Y-79137000D01*
X164785000Y-79141000D01*
X164795000Y-79145000D01*
X164806000Y-79148000D01*
X164816000Y-79150000D01*
X164827000Y-79152000D01*
X164838000Y-79154000D01*
X164849000Y-79155000D01*
X164860000Y-79155000D01*
X166350000Y-79155000D01*
G36*
X169262000Y-74356000D02*
G01*
X169273000Y-74358000D01*
X169284000Y-74360000D01*
X169294000Y-74362000D01*
X169305000Y-74365000D01*
X169315000Y-74369000D01*
X169325000Y-74373000D01*
X169335000Y-74378000D01*
X169345000Y-74383000D01*
X169354000Y-74389000D01*
X169363000Y-74395000D01*
X169372000Y-74402000D01*
X169381000Y-74409000D01*
X169388000Y-74417000D01*
X169396000Y-74424000D01*
X169403000Y-74433000D01*
X169410000Y-74442000D01*
X169416000Y-74451000D01*
X169422000Y-74460000D01*
X169427000Y-74470000D01*
X169432000Y-74480000D01*
X169436000Y-74490000D01*
X169440000Y-74500000D01*
X169443000Y-74511000D01*
X169445000Y-74521000D01*
X169447000Y-74532000D01*
X169449000Y-74543000D01*
X169450000Y-74554000D01*
X169450000Y-74565000D01*
X169450000Y-76055000D01*
X170930000Y-76055000D01*
X170942000Y-76055000D01*
X170953000Y-76056000D01*
X170964000Y-76058000D01*
X170976000Y-76060000D01*
X170987000Y-76062000D01*
X170998000Y-76066000D01*
X171009000Y-76070000D01*
X171019000Y-76074000D01*
X171030000Y-76079000D01*
X171040000Y-76084000D01*
X171050000Y-76090000D01*
X171059000Y-76097000D01*
X171068000Y-76104000D01*
X171077000Y-76112000D01*
X171086000Y-76119000D01*
X171093000Y-76128000D01*
X171101000Y-76137000D01*
X171108000Y-76146000D01*
X171115000Y-76155000D01*
X171121000Y-76165000D01*
X171126000Y-76175000D01*
X171131000Y-76186000D01*
X171135000Y-76196000D01*
X171139000Y-76207000D01*
X171143000Y-76218000D01*
X171145000Y-76229000D01*
X171147000Y-76241000D01*
X171149000Y-76252000D01*
X171150000Y-76263000D01*
X171150000Y-76275000D01*
X171150000Y-76305000D01*
X171150000Y-78915000D01*
X171150000Y-78945000D01*
X171150000Y-78956000D01*
X171149000Y-78967000D01*
X171147000Y-78978000D01*
X171145000Y-78989000D01*
X171143000Y-78999000D01*
X171140000Y-79010000D01*
X171136000Y-79020000D01*
X171132000Y-79030000D01*
X171127000Y-79040000D01*
X171122000Y-79050000D01*
X171116000Y-79059000D01*
X171110000Y-79068000D01*
X171103000Y-79077000D01*
X171096000Y-79086000D01*
X171088000Y-79093000D01*
X171081000Y-79101000D01*
X171072000Y-79108000D01*
X171063000Y-79115000D01*
X171054000Y-79121000D01*
X171045000Y-79127000D01*
X171035000Y-79132000D01*
X171025000Y-79137000D01*
X171015000Y-79141000D01*
X171005000Y-79145000D01*
X170994000Y-79148000D01*
X170984000Y-79150000D01*
X170973000Y-79152000D01*
X170962000Y-79154000D01*
X170951000Y-79155000D01*
X170940000Y-79155000D01*
X169450000Y-79155000D01*
X169450000Y-80635000D01*
X169450000Y-80647000D01*
X169449000Y-80658000D01*
X169447000Y-80669000D01*
X169445000Y-80681000D01*
X169443000Y-80692000D01*
X169439000Y-80703000D01*
X169435000Y-80714000D01*
X169431000Y-80724000D01*
X169426000Y-80735000D01*
X169421000Y-80745000D01*
X169415000Y-80755000D01*
X169408000Y-80764000D01*
X169401000Y-80773000D01*
X169393000Y-80782000D01*
X169386000Y-80791000D01*
X169377000Y-80798000D01*
X169368000Y-80806000D01*
X169359000Y-80813000D01*
X169350000Y-80820000D01*
X169340000Y-80826000D01*
X169330000Y-80831000D01*
X169319000Y-80836000D01*
X169309000Y-80840000D01*
X169298000Y-80844000D01*
X169287000Y-80848000D01*
X169276000Y-80850000D01*
X169264000Y-80852000D01*
X169253000Y-80854000D01*
X169242000Y-80855000D01*
X169230000Y-80855000D01*
X166580000Y-80855000D01*
X166560000Y-80855000D01*
X166549000Y-80855000D01*
X166538000Y-80854000D01*
X166527000Y-80852000D01*
X166516000Y-80850000D01*
X166506000Y-80848000D01*
X166495000Y-80845000D01*
X166485000Y-80841000D01*
X166475000Y-80837000D01*
X166465000Y-80832000D01*
X166455000Y-80827000D01*
X166446000Y-80821000D01*
X166437000Y-80815000D01*
X166428000Y-80808000D01*
X166419000Y-80801000D01*
X166412000Y-80793000D01*
X166404000Y-80786000D01*
X166397000Y-80777000D01*
X166390000Y-80768000D01*
X166384000Y-80759000D01*
X166378000Y-80750000D01*
X166373000Y-80740000D01*
X166368000Y-80730000D01*
X166364000Y-80720000D01*
X166360000Y-80710000D01*
X166357000Y-80699000D01*
X166355000Y-80689000D01*
X166353000Y-80678000D01*
X166351000Y-80667000D01*
X166350000Y-80656000D01*
X166350000Y-80645000D01*
X166350000Y-79155000D01*
X164860000Y-79155000D01*
X164849000Y-79155000D01*
X164838000Y-79154000D01*
X164827000Y-79152000D01*
X164816000Y-79150000D01*
X164806000Y-79148000D01*
X164795000Y-79145000D01*
X164785000Y-79141000D01*
X164775000Y-79137000D01*
X164765000Y-79132000D01*
X164755000Y-79127000D01*
X164746000Y-79121000D01*
X164737000Y-79115000D01*
X164728000Y-79108000D01*
X164719000Y-79101000D01*
X164712000Y-79093000D01*
X164704000Y-79086000D01*
X164697000Y-79077000D01*
X164690000Y-79068000D01*
X164684000Y-79059000D01*
X164678000Y-79050000D01*
X164673000Y-79040000D01*
X164668000Y-79030000D01*
X164664000Y-79020000D01*
X164660000Y-79010000D01*
X164657000Y-78999000D01*
X164655000Y-78989000D01*
X164653000Y-78978000D01*
X164651000Y-78967000D01*
X164650000Y-78956000D01*
X164650000Y-78945000D01*
X164650000Y-78925000D01*
X164650000Y-76285000D01*
X164650000Y-76273000D01*
X164651000Y-76261000D01*
X164653000Y-76249000D01*
X164655000Y-76237000D01*
X164658000Y-76225000D01*
X164661000Y-76214000D01*
X164665000Y-76203000D01*
X164670000Y-76191000D01*
X164675000Y-76181000D01*
X164681000Y-76170000D01*
X164687000Y-76160000D01*
X164694000Y-76150000D01*
X164701000Y-76140000D01*
X164709000Y-76131000D01*
X164717000Y-76122000D01*
X164726000Y-76114000D01*
X164735000Y-76106000D01*
X164745000Y-76099000D01*
X164755000Y-76092000D01*
X164765000Y-76086000D01*
X164776000Y-76080000D01*
X164786000Y-76075000D01*
X164798000Y-76070000D01*
X164809000Y-76066000D01*
X164820000Y-76063000D01*
X164832000Y-76060000D01*
X164844000Y-76058000D01*
X164856000Y-76056000D01*
X164868000Y-76055000D01*
X164880000Y-76055000D01*
X166350000Y-76055000D01*
X166350000Y-74565000D01*
X166350000Y-74554000D01*
X166351000Y-74543000D01*
X166353000Y-74532000D01*
X166355000Y-74521000D01*
X166357000Y-74511000D01*
X166360000Y-74500000D01*
X166364000Y-74490000D01*
X166368000Y-74480000D01*
X166373000Y-74470000D01*
X166378000Y-74460000D01*
X166384000Y-74451000D01*
X166390000Y-74442000D01*
X166397000Y-74433000D01*
X166404000Y-74424000D01*
X166412000Y-74417000D01*
X166419000Y-74409000D01*
X166428000Y-74402000D01*
X166437000Y-74395000D01*
X166446000Y-74389000D01*
X166455000Y-74383000D01*
X166465000Y-74378000D01*
X166475000Y-74373000D01*
X166485000Y-74369000D01*
X166495000Y-74365000D01*
X166506000Y-74362000D01*
X166516000Y-74360000D01*
X166527000Y-74358000D01*
X166538000Y-74356000D01*
X166549000Y-74355000D01*
X166560000Y-74355000D01*
X166580000Y-74355000D01*
X169210000Y-74355000D01*
X169240000Y-74355000D01*
X169251000Y-74355000D01*
X169262000Y-74356000D01*
G37*
%TD*%
D11*
%TO.C,J1*%
X161250000Y-94360000D03*
D12*
X163990000Y-94360000D03*
X166730000Y-94360000D03*
X169470000Y-94360000D03*
X172210000Y-94360000D03*
X162620000Y-97200000D03*
X165360000Y-97200000D03*
X168100000Y-97200000D03*
X170840000Y-97200000D03*
D13*
X154235000Y-95780000D03*
X179225000Y-95780000D03*
%TD*%
D14*
%TO.C,JP2*%
X148175000Y-74005000D03*
X150715000Y-74005000D03*
%TD*%
%TO.C,JP1*%
X149100000Y-88205000D03*
X151640000Y-88205000D03*
%TD*%
D15*
%TO.C,H4*%
X194200000Y-101200000D03*
%TD*%
D14*
%TO.C,JP3*%
X160550000Y-67905000D03*
X160550000Y-70445000D03*
%TD*%
D15*
%TO.C,H1*%
X194200000Y-58800000D03*
%TD*%
%TO.C,H2*%
X141200000Y-101800000D03*
%TD*%
%TO.C,H3*%
X141800000Y-58800000D03*
%TD*%
D16*
%TO.C,U1*%
X165050000Y-74605000D03*
D17*
X170900000Y-74755000D03*
D16*
X170750000Y-80605000D03*
D17*
X164900000Y-80455000D03*
%TD*%
M02*
