%TF.GenerationSoftware,KiCad,Pcbnew,10.0.6*%
%TF.CreationDate,2026-09-15T15:16:31-04:00*%
%TF.ProjectId,detection_board,64657465-6374-4696-9f6e-5f626f617264,rev?*%
%TF.SameCoordinates,Original*%
%TF.FileFunction,Legend,Bot*%
%TF.FilePolarity,Positive*%
%FSLAX46Y46*%
G04 Gerber Fmt 4.6, Leading zero omitted, Abs format (unit mm)*
G04 Created by KiCad (PCBNEW 10.0.6) date 2026-09-15 15:16:31*
%MOMM*%
%LPD*%
G01*
G04 APERTURE LIST*
%ADD10C,0.100000*%
%ADD11C,0.150000*%
%ADD12C,0.127000*%
%ADD13C,0.200000*%
G04 APERTURE END LIST*
D10*
X188000000Y-80000000D02*
G75*
G02*
X148000000Y-80000000I-20000000J0D01*
G01*
X148000000Y-80000000D02*
G75*
G02*
X188000000Y-80000000I20000000J0D01*
G01*
D11*
X157981523Y-85383695D02*
X157981523Y-86031314D01*
X157981523Y-86031314D02*
X157943428Y-86107504D01*
X157943428Y-86107504D02*
X157905333Y-86145600D01*
X157905333Y-86145600D02*
X157829142Y-86183695D01*
X157829142Y-86183695D02*
X157676761Y-86183695D01*
X157676761Y-86183695D02*
X157600571Y-86145600D01*
X157600571Y-86145600D02*
X157562476Y-86107504D01*
X157562476Y-86107504D02*
X157524380Y-86031314D01*
X157524380Y-86031314D02*
X157524380Y-85383695D01*
X156724381Y-86183695D02*
X157181524Y-86183695D01*
X156952952Y-86183695D02*
X156952952Y-85383695D01*
X156952952Y-85383695D02*
X157029143Y-85497980D01*
X157029143Y-85497980D02*
X157105333Y-85574171D01*
X157105333Y-85574171D02*
X157181524Y-85612266D01*
%TO.C,U1*%
D12*
X164400000Y-79835000D02*
X164400000Y-74105000D01*
X164400000Y-81105000D02*
X170130000Y-81105000D01*
X165670000Y-74105000D02*
X171400000Y-74105000D01*
X171400000Y-81105000D02*
X171400000Y-75375000D01*
D13*
X163900000Y-74705000D02*
G75*
G02*
X163700000Y-74705000I-100000J0D01*
G01*
X163700000Y-74705000D02*
G75*
G02*
X163900000Y-74705000I100000J0D01*
G01*
%TD*%
M02*
