%TF.GenerationSoftware,KiCad,Pcbnew,10.0.6*%
%TF.CreationDate,2026-09-15T15:16:31-04:00*%
%TF.ProjectId,detection_board,64657465-6374-4696-9f6e-5f626f617264,rev?*%
%TF.SameCoordinates,Original*%
%TF.FileFunction,Soldermask,Top*%
%TF.FilePolarity,Negative*%
%FSLAX46Y46*%
G04 Gerber Fmt 4.6, Leading zero omitted, Abs format (unit mm)*
G04 Created by KiCad (PCBNEW 10.0.6) date 2026-09-15 15:16:31*
%MOMM*%
%LPD*%
G01*
G04 APERTURE LIST*
G04 Aperture macros list*
%AMRoundRect*
0 Rectangle with rounded corners*
0 $1 Rounding radius*
0 $2 $3 $4 $5 $6 $7 $8 $9 X,Y pos of 4 corners*
0 Add a 4 corners polygon primitive as box body*
4,1,4,$2,$3,$4,$5,$6,$7,$8,$9,$2,$3,0*
0 Add four circle primitives for the rounded corners*
1,1,$1+$1,$2,$3*
1,1,$1+$1,$4,$5*
1,1,$1+$1,$6,$7*
1,1,$1+$1,$8,$9*
0 Add four rect primitives between the rounded corners*
20,1,$1+$1,$2,$3,$4,$5,0*
20,1,$1+$1,$4,$5,$6,$7,0*
20,1,$1+$1,$6,$7,$8,$9,0*
20,1,$1+$1,$8,$9,$2,$3,0*%
G04 Aperture macros list end*
%ADD10RoundRect,0.102000X-0.704000X-0.704000X0.704000X-0.704000X0.704000X0.704000X-0.704000X0.704000X0*%
%ADD11C,1.612000*%
%ADD12C,4.420000*%
%ADD13RoundRect,0.225000X-0.250000X0.225000X-0.250000X-0.225000X0.250000X-0.225000X0.250000X0.225000X0*%
%ADD14RoundRect,0.225000X-0.225000X-0.250000X0.225000X-0.250000X0.225000X0.250000X-0.225000X0.250000X0*%
%ADD15RoundRect,0.200000X-0.275000X0.200000X-0.275000X-0.200000X0.275000X-0.200000X0.275000X0.200000X0*%
%ADD16RoundRect,0.225000X0.225000X0.250000X-0.225000X0.250000X-0.225000X-0.250000X0.225000X-0.250000X0*%
%ADD17RoundRect,0.150000X0.825000X0.150000X-0.825000X0.150000X-0.825000X-0.150000X0.825000X-0.150000X0*%
%ADD18RoundRect,0.200000X-0.200000X-0.275000X0.200000X-0.275000X0.200000X0.275000X-0.200000X0.275000X0*%
%ADD19RoundRect,0.243750X0.456250X-0.243750X0.456250X0.243750X-0.456250X0.243750X-0.456250X-0.243750X0*%
%ADD20C,1.400000*%
%ADD21RoundRect,0.200000X0.275000X-0.200000X0.275000X0.200000X-0.275000X0.200000X-0.275000X-0.200000X0*%
%ADD22RoundRect,0.200000X0.200000X0.275000X-0.200000X0.275000X-0.200000X-0.275000X0.200000X-0.275000X0*%
%ADD23RoundRect,0.150000X-0.587500X-0.150000X0.587500X-0.150000X0.587500X0.150000X-0.587500X0.150000X0*%
%ADD24RoundRect,0.162500X0.617500X0.162500X-0.617500X0.162500X-0.617500X-0.162500X0.617500X-0.162500X0*%
%ADD25RoundRect,0.087500X0.425000X0.087500X-0.425000X0.087500X-0.425000X-0.087500X0.425000X-0.087500X0*%
%ADD26RoundRect,0.243750X0.243750X0.456250X-0.243750X0.456250X-0.243750X-0.456250X0.243750X-0.456250X0*%
%ADD27C,3.800000*%
%ADD28R,1.500000X1.500000*%
%ADD29RoundRect,0.243750X-0.243750X-0.456250X0.243750X-0.456250X0.243750X0.456250X-0.243750X0.456250X0*%
%ADD30RoundRect,0.150000X-0.150000X0.587500X-0.150000X-0.587500X0.150000X-0.587500X0.150000X0.587500X0*%
%ADD31RoundRect,0.225000X0.250000X-0.225000X0.250000X0.225000X-0.250000X0.225000X-0.250000X-0.225000X0*%
%ADD32RoundRect,0.249500X-0.457500X-0.147500X0.457500X-0.147500X0.457500X0.147500X-0.457500X0.147500X0*%
G04 APERTURE END LIST*
D10*
%TO.C,J1*%
X161250000Y-94360000D03*
D11*
X163990000Y-94360000D03*
X166730000Y-94360000D03*
X169470000Y-94360000D03*
X172210000Y-94360000D03*
X162620000Y-97200000D03*
X165360000Y-97200000D03*
X168100000Y-97200000D03*
X170840000Y-97200000D03*
D12*
X154235000Y-95780000D03*
X179225000Y-95780000D03*
%TD*%
D13*
%TO.C,C1*%
X162700000Y-71255000D03*
X162700000Y-72805000D03*
%TD*%
D14*
%TO.C,C9*%
X161300000Y-80005000D03*
X162850000Y-80005000D03*
%TD*%
D13*
%TO.C,C5*%
X175650000Y-78150000D03*
X175650000Y-79700000D03*
%TD*%
D15*
%TO.C,R14*%
X173300000Y-88205000D03*
X173300000Y-89855000D03*
%TD*%
D16*
%TO.C,C11*%
X149625000Y-78355000D03*
X148075000Y-78355000D03*
%TD*%
D17*
%TO.C,U2*%
X171875000Y-79535000D03*
X171875000Y-78265000D03*
X171875000Y-76995000D03*
X171875000Y-75725000D03*
X166925000Y-75725000D03*
X166925000Y-76995000D03*
X166925000Y-78265000D03*
X166925000Y-79535000D03*
%TD*%
D18*
%TO.C,R17*%
X148125000Y-76505000D03*
X149775000Y-76505000D03*
%TD*%
D19*
%TO.C,D1*%
X144150000Y-91292500D03*
X144150000Y-89417500D03*
%TD*%
D20*
%TO.C,JP2*%
X148175000Y-74005000D03*
X150715000Y-74005000D03*
%TD*%
%TO.C,JP1*%
X149100000Y-88205000D03*
X151640000Y-88205000D03*
%TD*%
D13*
%TO.C,C7*%
X164700000Y-80405000D03*
X164700000Y-81955000D03*
%TD*%
D21*
%TO.C,R9*%
X165500000Y-88005000D03*
X165500000Y-86355000D03*
%TD*%
D13*
%TO.C,C3*%
X169100000Y-69855000D03*
X169100000Y-71405000D03*
%TD*%
%TO.C,C4*%
X166700000Y-81405000D03*
X166700000Y-82955000D03*
%TD*%
D22*
%TO.C,R15*%
X162675000Y-74405000D03*
X161025000Y-74405000D03*
%TD*%
D23*
%TO.C,D2*%
X160762500Y-76455000D03*
X160762500Y-78355000D03*
X162637500Y-77405000D03*
%TD*%
D24*
%TO.C,U4*%
X159250000Y-81955000D03*
X159250000Y-81005000D03*
X159250000Y-80055000D03*
X156550000Y-80055000D03*
X156550000Y-81955000D03*
%TD*%
D25*
%TO.C,U3*%
X171737500Y-87755000D03*
X171737500Y-87105000D03*
X171737500Y-86455000D03*
X170062500Y-86455000D03*
X170062500Y-87105000D03*
X170062500Y-87755000D03*
%TD*%
D22*
%TO.C,R1*%
X144902500Y-77795000D03*
X143252500Y-77795000D03*
%TD*%
D26*
%TO.C,-30V_PG1*%
X156975000Y-67205000D03*
X155100000Y-67205000D03*
%TD*%
D15*
%TO.C,R16*%
X156200000Y-76580000D03*
X156200000Y-78230000D03*
%TD*%
%TO.C,R18*%
X160300000Y-83805000D03*
X160300000Y-85455000D03*
%TD*%
D13*
%TO.C,C2*%
X165500000Y-71255000D03*
X165500000Y-72805000D03*
%TD*%
%TO.C,C6*%
X169300000Y-89005000D03*
X169300000Y-90555000D03*
%TD*%
D27*
%TO.C,H4*%
X194200000Y-101200000D03*
%TD*%
D20*
%TO.C,JP3*%
X160550000Y-67905000D03*
X160550000Y-70445000D03*
%TD*%
D18*
%TO.C,R4*%
X155237500Y-70705000D03*
X156887500Y-70705000D03*
%TD*%
%TO.C,R3*%
X147650000Y-70805000D03*
X149300000Y-70805000D03*
%TD*%
D22*
%TO.C,R12*%
X172500000Y-81405000D03*
X170850000Y-81405000D03*
%TD*%
D18*
%TO.C,R11*%
X170850000Y-83005000D03*
X172500000Y-83005000D03*
%TD*%
D28*
%TO.C,TP1*%
X179900000Y-84805000D03*
%TD*%
D27*
%TO.C,H1*%
X194200000Y-58800000D03*
%TD*%
D18*
%TO.C,R5*%
X167250000Y-73005000D03*
X168900000Y-73005000D03*
%TD*%
D27*
%TO.C,H2*%
X141200000Y-101800000D03*
%TD*%
D22*
%TO.C,R8*%
X175750000Y-81405000D03*
X174100000Y-81405000D03*
%TD*%
D29*
%TO.C,3V3_PG1*%
X147437500Y-67155000D03*
X149312500Y-67155000D03*
%TD*%
D27*
%TO.C,H3*%
X141800000Y-58800000D03*
%TD*%
D16*
%TO.C,C10*%
X154250000Y-82005000D03*
X152700000Y-82005000D03*
%TD*%
D30*
%TO.C,Q1*%
X145050000Y-83767500D03*
X143150000Y-83767500D03*
X144100000Y-85642500D03*
%TD*%
D18*
%TO.C,R6*%
X170730000Y-73005000D03*
X172380000Y-73005000D03*
%TD*%
D15*
%TO.C,R2*%
X148500000Y-90005000D03*
X148500000Y-91655000D03*
%TD*%
D22*
%TO.C,R13*%
X168700000Y-87405000D03*
X167050000Y-87405000D03*
%TD*%
D31*
%TO.C,C8*%
X164500000Y-78405000D03*
X164500000Y-76855000D03*
%TD*%
D32*
%TO.C,U5*%
X147095000Y-80305000D03*
X147095000Y-81255000D03*
X147095000Y-82205000D03*
X149605000Y-82205000D03*
X149605000Y-80305000D03*
%TD*%
D15*
%TO.C,R7*%
X173900000Y-78100000D03*
X173900000Y-79750000D03*
%TD*%
D21*
%TO.C,R10*%
X163900000Y-86255000D03*
X163900000Y-84605000D03*
%TD*%
M02*
