M48
; DRILL file KiCad 10.0.6 date 2026-09-15T15:17:09
; FORMAT={-:-/ absolute / metric / decimal}
; #@! TF.CreationDate,2026-09-15T15:17:09-04:00
; #@! TF.GenerationSoftware,Kicad,Pcbnew,10.0.6
; #@! TF.FileFunction,Plated,1,2,PTH
FMAT,2
METRIC
; #@! TA.AperFunction,Plated,PTH,ViaDrill
T1C0.300
; #@! TA.AperFunction,Plated,PTH,ComponentDrill
T2C0.800
; #@! TA.AperFunction,Plated,PTH,ComponentDrill
T3C0.900
; #@! TA.AperFunction,Plated,PTH,ComponentDrill
T4C2.200
; #@! TA.AperFunction,Plated,PTH,ComponentDrill
T5C3.200
%
G90
G05
T1
X142.3Y-78.755
X142.8Y-82.205
X143.3Y-78.905
X143.3Y-78.905
X143.3Y-78.905
X143.3Y-79.805
X143.3Y-79.805
X143.3Y-79.805
X143.3Y-80.805
X143.3Y-80.805
X143.3Y-80.805
X143.3Y-81.605
X143.3Y-81.605
X143.3Y-81.605
X144.6Y-80.405
X144.6Y-80.405
X144.6Y-80.405
X144.6Y-81.405
X144.6Y-81.405
X144.6Y-81.405
X144.7Y-79.405
X144.7Y-79.405
X144.7Y-79.405
X144.7Y-82.305
X144.7Y-82.305
X144.7Y-82.305
X146.1Y-67.105
X146.3Y-84.405
X146.3Y-84.405
X146.3Y-84.405
X146.5Y-79.205
X146.9Y-85.205
X146.9Y-85.205
X146.9Y-85.205
X146.974Y-83.331
X147.8Y-85.105
X147.8Y-85.105
X147.8Y-85.105
X148.0Y-83.905
X148.0Y-83.905
X148.0Y-83.905
X148.55Y-57.85
X148.6Y-85.105
X148.6Y-85.105
X148.6Y-85.105
X149.1Y-83.905
X149.1Y-83.905
X149.1Y-83.905
X149.5Y-85.105
X149.5Y-85.105
X149.5Y-85.105
X150.4Y-85.305
X150.4Y-85.305
X150.4Y-85.305
X150.5Y-83.305
X150.5Y-83.305
X150.5Y-83.305
X151.1Y-85.905
X151.1Y-85.905
X151.1Y-85.905
X151.2Y-83.905
X151.2Y-83.905
X151.2Y-83.905
X151.5Y-80.805
X151.8Y-84.505
X151.8Y-84.505
X151.8Y-84.505
X151.9Y-86.605
X151.9Y-86.605
X151.9Y-86.605
X152.0Y-78.005
X152.1Y-76.105
X152.5Y-85.105
X152.5Y-85.105
X152.5Y-85.105
X152.6Y-87.105
X152.6Y-87.105
X152.6Y-87.105
X153.35Y-85.755
X153.6Y-87.105
X153.6Y-87.105
X153.6Y-87.105
X154.2Y-85.755
X154.5Y-87.105
X154.5Y-87.105
X154.5Y-87.105
X154.7Y-77.605
X155.05Y-85.755
X155.4Y-87.105
X155.85Y-85.805
X155.9Y-87.605
X156.35Y-86.205
X156.4Y-88.105
X156.9Y-86.655
X156.9Y-88.605
X157.4Y-87.105
X157.4Y-89.105
X157.8Y-77.505
X157.9Y-87.605
X157.9Y-89.605
X158.05Y-71.305
X158.3Y-90.605
X158.3Y-91.605
X158.4Y-88.105
X158.9Y-88.605
X158.9Y-92.605
X159.4Y-89.105
X159.5Y-90.105
X159.5Y-91.105
X159.55Y-87.855
X160.074Y-91.931
X160.5Y-73.305
X160.9Y-92.605
X161.3Y-81.055
X161.487Y-87.843
X162.5Y-63.5
X164.1Y-70.505
X164.1Y-71.905
X164.1Y-73.355
X165.3Y-83.705
X167.2Y-84.205
X167.2Y-88.605
X167.3Y-70.405
X167.8Y-90.905
X169.45Y-62.7
X169.501Y-92.806
X169.6Y-59.85
X170.026Y-92.281
X170.2Y-79.565
X170.551Y-91.756
X170.599Y-93.404
X171.076Y-91.231
X171.099Y-92.904
X171.599Y-92.404
X171.601Y-90.706
X172.101Y-90.206
X172.124Y-91.879
X172.649Y-91.355
X172.7Y-85.405
X173.149Y-90.854
X173.5Y-75.305
X173.5Y-76.555
X173.95Y-83.455
X174.4Y-75.105
X174.6Y-86.105
X175.75Y-87.755
X175.85Y-84.555
X177.05Y-69.55
X177.4Y-75.105
X177.4Y-81.105
X178.4Y-77.105
X178.65Y-65.8
X178.9Y-79.105
X179.55Y-58.7
X181.4Y-78.605
X181.9Y-81.105
X185.4Y-72.555
X185.6Y-66.305
X186.35Y-99.3
X188.5Y-60.5
X189.2Y-85.355
X189.25Y-93.655
X189.4Y-99.105
X191.0Y-63.5
X192.7Y-82.05
X193.0Y-74.2
X193.3Y-90.8
X194.5Y-97.0
T2
X148.175Y-74.005
X149.1Y-88.205
X150.715Y-74.005
X151.64Y-88.205
X160.55Y-67.905
X160.55Y-70.445
T3
X161.25Y-94.36
X162.62Y-97.2
X163.99Y-94.36
X165.36Y-97.2
X166.73Y-94.36
X168.1Y-97.2
X169.47Y-94.36
X170.84Y-97.2
X172.21Y-94.36
T4
X141.2Y-101.8
X141.8Y-58.8
X194.2Y-58.8
X194.2Y-101.2
T5
X154.235Y-95.78
X179.225Y-95.78
M30
