M48
; DRILL file KiCad 10.0.6 date 2026-09-15T15:42:22
; FORMAT={-:-/ absolute / metric / decimal}
; #@! TF.CreationDate,2026-09-15T15:42:22-04:00
; #@! TF.GenerationSoftware,Kicad,Pcbnew,10.0.6
; #@! TF.FileFunction,Plated,1,2,PTH
FMAT,2
METRIC
; #@! TA.AperFunction,Plated,PTH,ComponentDrill
T1C0.500
; #@! TA.AperFunction,Plated,PTH,ComponentDrill
T2C0.600
; #@! TA.AperFunction,Plated,PTH,ComponentDrill
T3C0.700
; #@! TA.AperFunction,Plated,PTH,ComponentDrill
T4C0.750
; #@! TA.AperFunction,Plated,PTH,ComponentDrill
T5C0.800
; #@! TA.AperFunction,Plated,PTH,ComponentDrill
T6C0.900
; #@! TA.AperFunction,Plated,PTH,ComponentDrill
T7C1.000
; #@! TA.AperFunction,Plated,PTH,ComponentDrill
T8C1.100
; #@! TA.AperFunction,Plated,PTH,ComponentDrill
T9C1.300
; #@! TA.AperFunction,Plated,PTH,ComponentDrill
T10C3.200
%
G90
G05
T1
X168.28Y-82.0
X168.28Y-83.0
X168.28Y-84.0
X168.28Y-85.0
X168.28Y-86.0
X176.0Y-82.0
X176.0Y-83.0
X176.0Y-84.0
X176.0Y-85.0
X176.0Y-86.0
X176.0Y-87.0
X184.0Y-82.0
X184.0Y-83.0
X184.0Y-84.0
X184.0Y-85.0
X184.0Y-86.0
X184.0Y-87.0
X184.0Y-88.0
T2
X115.5Y-48.5
X115.5Y-50.5
X129.5Y-48.5
X129.5Y-50.5
X155.5Y-47.5
X155.5Y-49.5
X161.0Y-66.0
X161.0Y-68.0
T3
X144.19Y-78.14
X144.19Y-80.14
X146.19Y-78.14
X146.19Y-80.14
X148.19Y-78.14
X148.19Y-80.14
T4
X138.45Y-71.52
X138.45Y-74.06
X138.45Y-76.6
X138.45Y-79.14
X138.45Y-81.68
T5
X115.5Y-64.75
X115.5Y-67.25
X135.4Y-65.17
X135.4Y-67.71
X135.4Y-70.25
X135.4Y-72.79
X135.4Y-75.33
X135.4Y-77.87
X135.4Y-80.41
X135.4Y-82.95
X135.4Y-85.49
X135.4Y-88.03
X135.4Y-90.57
X135.4Y-93.11
X135.4Y-95.65
X135.4Y-98.19
X135.4Y-100.73
X135.4Y-103.27
X135.4Y-105.81
X135.4Y-108.35
X135.4Y-110.89
X135.4Y-113.43
X135.4Y-115.97
X135.4Y-118.51
X135.4Y-121.05
X135.4Y-123.59
X137.94Y-110.89
X140.48Y-110.89
X143.02Y-110.89
X145.56Y-110.89
X148.1Y-67.71
X148.1Y-110.89
X150.64Y-65.17
X150.64Y-67.71
X150.64Y-70.25
X150.64Y-72.79
X150.64Y-75.33
X150.64Y-77.87
X150.64Y-80.41
X150.64Y-82.95
X150.64Y-85.49
X150.64Y-88.03
X150.64Y-90.57
X150.64Y-93.11
X150.64Y-95.65
X150.64Y-98.19
X150.64Y-100.73
X150.64Y-103.27
X150.64Y-105.81
X150.64Y-108.35
X150.64Y-110.89
X150.64Y-113.43
X150.64Y-115.97
X150.64Y-118.51
X150.64Y-121.05
X150.64Y-123.59
X182.0Y-68.0
X182.0Y-70.5
T6
X137.412Y-36.758
X138.782Y-33.917
X140.152Y-36.758
X141.522Y-33.917
X142.892Y-36.758
X144.262Y-33.917
X145.632Y-36.758
X147.002Y-33.917
X148.372Y-36.758
X162.5Y-48.0
X162.5Y-50.54
X162.5Y-53.08
X162.5Y-55.62
X182.82Y-48.0
X182.82Y-50.54
X182.82Y-55.62
T7
X133.655Y-148.16
X135.04Y-151.0
X136.425Y-148.16
X137.81Y-151.0
X139.195Y-148.16
X140.58Y-151.0
X141.965Y-148.16
X143.35Y-151.0
X144.735Y-148.16
X146.12Y-151.0
X147.505Y-148.16
X148.89Y-151.0
X150.275Y-148.16
X151.66Y-151.0
X153.045Y-148.16
T8
X108.5Y-56.0
X108.5Y-58.54
X108.5Y-61.08
X122.0Y-55.92
X122.0Y-58.46
X122.0Y-61.0
X171.0Y-65.42
X171.0Y-67.96
X171.0Y-70.5
T9
X111.5Y-78.0
X111.5Y-83.0
T10
X126.7Y-151.0
X130.397Y-35.337
X155.387Y-35.337
X160.0Y-151.0
M30
