%TF.GenerationSoftware,KiCad,Pcbnew,10.0.6*%
%TF.CreationDate,2026-09-15T15:41:58-04:00*%
%TF.ProjectId,Teensy-Sensor_Board,5465656e-7379-42d5-9365-6e736f725f42,rev?*%
%TF.SameCoordinates,Original*%
%TF.FileFunction,Legend,Top*%
%TF.FilePolarity,Positive*%
%FSLAX46Y46*%
G04 Gerber Fmt 4.6, Leading zero omitted, Abs format (unit mm)*
G04 Created by KiCad (PCBNEW 10.0.6) date 2026-09-15 15:41:58*
%MOMM*%
%LPD*%
G01*
G04 APERTURE LIST*
%ADD10C,0.150000*%
%ADD11C,0.100000*%
%ADD12C,0.200000*%
%ADD13C,0.127000*%
%ADD14C,0.120000*%
G04 APERTURE END LIST*
D10*
X154633416Y-40427319D02*
X154633416Y-41141604D01*
X154633416Y-41141604D02*
X154585797Y-41284461D01*
X154585797Y-41284461D02*
X154490559Y-41379700D01*
X154490559Y-41379700D02*
X154347702Y-41427319D01*
X154347702Y-41427319D02*
X154252464Y-41427319D01*
X155633416Y-41427319D02*
X155061988Y-41427319D01*
X155347702Y-41427319D02*
X155347702Y-40427319D01*
X155347702Y-40427319D02*
X155252464Y-40570176D01*
X155252464Y-40570176D02*
X155157226Y-40665414D01*
X155157226Y-40665414D02*
X155061988Y-40713033D01*
X117074819Y-80833333D02*
X117789104Y-80833333D01*
X117789104Y-80833333D02*
X117931961Y-80880952D01*
X117931961Y-80880952D02*
X118027200Y-80976190D01*
X118027200Y-80976190D02*
X118074819Y-81119047D01*
X118074819Y-81119047D02*
X118074819Y-81214285D01*
X117074819Y-80452380D02*
X117074819Y-79833333D01*
X117074819Y-79833333D02*
X117455771Y-80166666D01*
X117455771Y-80166666D02*
X117455771Y-80023809D01*
X117455771Y-80023809D02*
X117503390Y-79928571D01*
X117503390Y-79928571D02*
X117551009Y-79880952D01*
X117551009Y-79880952D02*
X117646247Y-79833333D01*
X117646247Y-79833333D02*
X117884342Y-79833333D01*
X117884342Y-79833333D02*
X117979580Y-79880952D01*
X117979580Y-79880952D02*
X118027200Y-79928571D01*
X118027200Y-79928571D02*
X118074819Y-80023809D01*
X118074819Y-80023809D02*
X118074819Y-80309523D01*
X118074819Y-80309523D02*
X118027200Y-80404761D01*
X118027200Y-80404761D02*
X117979580Y-80452380D01*
X113809580Y-66166666D02*
X113857200Y-66214285D01*
X113857200Y-66214285D02*
X113904819Y-66357142D01*
X113904819Y-66357142D02*
X113904819Y-66452380D01*
X113904819Y-66452380D02*
X113857200Y-66595237D01*
X113857200Y-66595237D02*
X113761961Y-66690475D01*
X113761961Y-66690475D02*
X113666723Y-66738094D01*
X113666723Y-66738094D02*
X113476247Y-66785713D01*
X113476247Y-66785713D02*
X113333390Y-66785713D01*
X113333390Y-66785713D02*
X113142914Y-66738094D01*
X113142914Y-66738094D02*
X113047676Y-66690475D01*
X113047676Y-66690475D02*
X112952438Y-66595237D01*
X112952438Y-66595237D02*
X112904819Y-66452380D01*
X112904819Y-66452380D02*
X112904819Y-66357142D01*
X112904819Y-66357142D02*
X112952438Y-66214285D01*
X112952438Y-66214285D02*
X113000057Y-66166666D01*
X112904819Y-65833332D02*
X112904819Y-65214285D01*
X112904819Y-65214285D02*
X113285771Y-65547618D01*
X113285771Y-65547618D02*
X113285771Y-65404761D01*
X113285771Y-65404761D02*
X113333390Y-65309523D01*
X113333390Y-65309523D02*
X113381009Y-65261904D01*
X113381009Y-65261904D02*
X113476247Y-65214285D01*
X113476247Y-65214285D02*
X113714342Y-65214285D01*
X113714342Y-65214285D02*
X113809580Y-65261904D01*
X113809580Y-65261904D02*
X113857200Y-65309523D01*
X113857200Y-65309523D02*
X113904819Y-65404761D01*
X113904819Y-65404761D02*
X113904819Y-65690475D01*
X113904819Y-65690475D02*
X113857200Y-65785713D01*
X113857200Y-65785713D02*
X113809580Y-65833332D01*
X112609580Y-49666666D02*
X112657200Y-49714285D01*
X112657200Y-49714285D02*
X112704819Y-49857142D01*
X112704819Y-49857142D02*
X112704819Y-49952380D01*
X112704819Y-49952380D02*
X112657200Y-50095237D01*
X112657200Y-50095237D02*
X112561961Y-50190475D01*
X112561961Y-50190475D02*
X112466723Y-50238094D01*
X112466723Y-50238094D02*
X112276247Y-50285713D01*
X112276247Y-50285713D02*
X112133390Y-50285713D01*
X112133390Y-50285713D02*
X111942914Y-50238094D01*
X111942914Y-50238094D02*
X111847676Y-50190475D01*
X111847676Y-50190475D02*
X111752438Y-50095237D01*
X111752438Y-50095237D02*
X111704819Y-49952380D01*
X111704819Y-49952380D02*
X111704819Y-49857142D01*
X111704819Y-49857142D02*
X111752438Y-49714285D01*
X111752438Y-49714285D02*
X111800057Y-49666666D01*
X111704819Y-48761904D02*
X111704819Y-49238094D01*
X111704819Y-49238094D02*
X112181009Y-49285713D01*
X112181009Y-49285713D02*
X112133390Y-49238094D01*
X112133390Y-49238094D02*
X112085771Y-49142856D01*
X112085771Y-49142856D02*
X112085771Y-48904761D01*
X112085771Y-48904761D02*
X112133390Y-48809523D01*
X112133390Y-48809523D02*
X112181009Y-48761904D01*
X112181009Y-48761904D02*
X112276247Y-48714285D01*
X112276247Y-48714285D02*
X112514342Y-48714285D01*
X112514342Y-48714285D02*
X112609580Y-48761904D01*
X112609580Y-48761904D02*
X112657200Y-48809523D01*
X112657200Y-48809523D02*
X112704819Y-48904761D01*
X112704819Y-48904761D02*
X112704819Y-49142856D01*
X112704819Y-49142856D02*
X112657200Y-49238094D01*
X112657200Y-49238094D02*
X112609580Y-49285713D01*
X180309580Y-69416666D02*
X180357200Y-69464285D01*
X180357200Y-69464285D02*
X180404819Y-69607142D01*
X180404819Y-69607142D02*
X180404819Y-69702380D01*
X180404819Y-69702380D02*
X180357200Y-69845237D01*
X180357200Y-69845237D02*
X180261961Y-69940475D01*
X180261961Y-69940475D02*
X180166723Y-69988094D01*
X180166723Y-69988094D02*
X179976247Y-70035713D01*
X179976247Y-70035713D02*
X179833390Y-70035713D01*
X179833390Y-70035713D02*
X179642914Y-69988094D01*
X179642914Y-69988094D02*
X179547676Y-69940475D01*
X179547676Y-69940475D02*
X179452438Y-69845237D01*
X179452438Y-69845237D02*
X179404819Y-69702380D01*
X179404819Y-69702380D02*
X179404819Y-69607142D01*
X179404819Y-69607142D02*
X179452438Y-69464285D01*
X179452438Y-69464285D02*
X179500057Y-69416666D01*
X179500057Y-69035713D02*
X179452438Y-68988094D01*
X179452438Y-68988094D02*
X179404819Y-68892856D01*
X179404819Y-68892856D02*
X179404819Y-68654761D01*
X179404819Y-68654761D02*
X179452438Y-68559523D01*
X179452438Y-68559523D02*
X179500057Y-68511904D01*
X179500057Y-68511904D02*
X179595295Y-68464285D01*
X179595295Y-68464285D02*
X179690533Y-68464285D01*
X179690533Y-68464285D02*
X179833390Y-68511904D01*
X179833390Y-68511904D02*
X180404819Y-69083332D01*
X180404819Y-69083332D02*
X180404819Y-68464285D01*
X126609580Y-49666666D02*
X126657200Y-49714285D01*
X126657200Y-49714285D02*
X126704819Y-49857142D01*
X126704819Y-49857142D02*
X126704819Y-49952380D01*
X126704819Y-49952380D02*
X126657200Y-50095237D01*
X126657200Y-50095237D02*
X126561961Y-50190475D01*
X126561961Y-50190475D02*
X126466723Y-50238094D01*
X126466723Y-50238094D02*
X126276247Y-50285713D01*
X126276247Y-50285713D02*
X126133390Y-50285713D01*
X126133390Y-50285713D02*
X125942914Y-50238094D01*
X125942914Y-50238094D02*
X125847676Y-50190475D01*
X125847676Y-50190475D02*
X125752438Y-50095237D01*
X125752438Y-50095237D02*
X125704819Y-49952380D01*
X125704819Y-49952380D02*
X125704819Y-49857142D01*
X125704819Y-49857142D02*
X125752438Y-49714285D01*
X125752438Y-49714285D02*
X125800057Y-49666666D01*
X126038152Y-48809523D02*
X126704819Y-48809523D01*
X125657200Y-49047618D02*
X126371485Y-49285713D01*
X126371485Y-49285713D02*
X126371485Y-48666666D01*
X112054819Y-59301904D02*
X112864342Y-59301904D01*
X112864342Y-59301904D02*
X112959580Y-59254285D01*
X112959580Y-59254285D02*
X113007200Y-59206666D01*
X113007200Y-59206666D02*
X113054819Y-59111428D01*
X113054819Y-59111428D02*
X113054819Y-58920952D01*
X113054819Y-58920952D02*
X113007200Y-58825714D01*
X113007200Y-58825714D02*
X112959580Y-58778095D01*
X112959580Y-58778095D02*
X112864342Y-58730476D01*
X112864342Y-58730476D02*
X112054819Y-58730476D01*
X112150057Y-58301904D02*
X112102438Y-58254285D01*
X112102438Y-58254285D02*
X112054819Y-58159047D01*
X112054819Y-58159047D02*
X112054819Y-57920952D01*
X112054819Y-57920952D02*
X112102438Y-57825714D01*
X112102438Y-57825714D02*
X112150057Y-57778095D01*
X112150057Y-57778095D02*
X112245295Y-57730476D01*
X112245295Y-57730476D02*
X112340533Y-57730476D01*
X112340533Y-57730476D02*
X112483390Y-57778095D01*
X112483390Y-57778095D02*
X113054819Y-58349523D01*
X113054819Y-58349523D02*
X113054819Y-57730476D01*
X154442857Y-79454819D02*
X154776190Y-80454819D01*
X154776190Y-80454819D02*
X155109523Y-79454819D01*
X155442857Y-79931009D02*
X155776190Y-79931009D01*
X155919047Y-80454819D02*
X155442857Y-80454819D01*
X155442857Y-80454819D02*
X155442857Y-79454819D01*
X155442857Y-79454819D02*
X155919047Y-79454819D01*
X156347619Y-80454819D02*
X156347619Y-79454819D01*
X156347619Y-79454819D02*
X156680952Y-80169104D01*
X156680952Y-80169104D02*
X157014285Y-79454819D01*
X157014285Y-79454819D02*
X157014285Y-80454819D01*
X157966666Y-80454819D02*
X157490476Y-80454819D01*
X157490476Y-80454819D02*
X157490476Y-79454819D01*
X158728571Y-79454819D02*
X158538095Y-79454819D01*
X158538095Y-79454819D02*
X158442857Y-79502438D01*
X158442857Y-79502438D02*
X158395238Y-79550057D01*
X158395238Y-79550057D02*
X158300000Y-79692914D01*
X158300000Y-79692914D02*
X158252381Y-79883390D01*
X158252381Y-79883390D02*
X158252381Y-80264342D01*
X158252381Y-80264342D02*
X158300000Y-80359580D01*
X158300000Y-80359580D02*
X158347619Y-80407200D01*
X158347619Y-80407200D02*
X158442857Y-80454819D01*
X158442857Y-80454819D02*
X158633333Y-80454819D01*
X158633333Y-80454819D02*
X158728571Y-80407200D01*
X158728571Y-80407200D02*
X158776190Y-80359580D01*
X158776190Y-80359580D02*
X158823809Y-80264342D01*
X158823809Y-80264342D02*
X158823809Y-80026247D01*
X158823809Y-80026247D02*
X158776190Y-79931009D01*
X158776190Y-79931009D02*
X158728571Y-79883390D01*
X158728571Y-79883390D02*
X158633333Y-79835771D01*
X158633333Y-79835771D02*
X158442857Y-79835771D01*
X158442857Y-79835771D02*
X158347619Y-79883390D01*
X158347619Y-79883390D02*
X158300000Y-79931009D01*
X158300000Y-79931009D02*
X158252381Y-80026247D01*
X159442857Y-79454819D02*
X159538095Y-79454819D01*
X159538095Y-79454819D02*
X159633333Y-79502438D01*
X159633333Y-79502438D02*
X159680952Y-79550057D01*
X159680952Y-79550057D02*
X159728571Y-79645295D01*
X159728571Y-79645295D02*
X159776190Y-79835771D01*
X159776190Y-79835771D02*
X159776190Y-80073866D01*
X159776190Y-80073866D02*
X159728571Y-80264342D01*
X159728571Y-80264342D02*
X159680952Y-80359580D01*
X159680952Y-80359580D02*
X159633333Y-80407200D01*
X159633333Y-80407200D02*
X159538095Y-80454819D01*
X159538095Y-80454819D02*
X159442857Y-80454819D01*
X159442857Y-80454819D02*
X159347619Y-80407200D01*
X159347619Y-80407200D02*
X159300000Y-80359580D01*
X159300000Y-80359580D02*
X159252381Y-80264342D01*
X159252381Y-80264342D02*
X159204762Y-80073866D01*
X159204762Y-80073866D02*
X159204762Y-79835771D01*
X159204762Y-79835771D02*
X159252381Y-79645295D01*
X159252381Y-79645295D02*
X159300000Y-79550057D01*
X159300000Y-79550057D02*
X159347619Y-79502438D01*
X159347619Y-79502438D02*
X159442857Y-79454819D01*
X160109524Y-79454819D02*
X160776190Y-79454819D01*
X160776190Y-79454819D02*
X160347619Y-80454819D01*
X161347619Y-79454819D02*
X161442857Y-79454819D01*
X161442857Y-79454819D02*
X161538095Y-79502438D01*
X161538095Y-79502438D02*
X161585714Y-79550057D01*
X161585714Y-79550057D02*
X161633333Y-79645295D01*
X161633333Y-79645295D02*
X161680952Y-79835771D01*
X161680952Y-79835771D02*
X161680952Y-80073866D01*
X161680952Y-80073866D02*
X161633333Y-80264342D01*
X161633333Y-80264342D02*
X161585714Y-80359580D01*
X161585714Y-80359580D02*
X161538095Y-80407200D01*
X161538095Y-80407200D02*
X161442857Y-80454819D01*
X161442857Y-80454819D02*
X161347619Y-80454819D01*
X161347619Y-80454819D02*
X161252381Y-80407200D01*
X161252381Y-80407200D02*
X161204762Y-80359580D01*
X161204762Y-80359580D02*
X161157143Y-80264342D01*
X161157143Y-80264342D02*
X161109524Y-80073866D01*
X161109524Y-80073866D02*
X161109524Y-79835771D01*
X161109524Y-79835771D02*
X161157143Y-79645295D01*
X161157143Y-79645295D02*
X161204762Y-79550057D01*
X161204762Y-79550057D02*
X161252381Y-79502438D01*
X161252381Y-79502438D02*
X161347619Y-79454819D01*
X162109524Y-80073866D02*
X162871429Y-80073866D01*
X163347619Y-80454819D02*
X163347619Y-79454819D01*
X163347619Y-79454819D02*
X163728571Y-79454819D01*
X163728571Y-79454819D02*
X163823809Y-79502438D01*
X163823809Y-79502438D02*
X163871428Y-79550057D01*
X163871428Y-79550057D02*
X163919047Y-79645295D01*
X163919047Y-79645295D02*
X163919047Y-79788152D01*
X163919047Y-79788152D02*
X163871428Y-79883390D01*
X163871428Y-79883390D02*
X163823809Y-79931009D01*
X163823809Y-79931009D02*
X163728571Y-79978628D01*
X163728571Y-79978628D02*
X163347619Y-79978628D01*
X164347619Y-80454819D02*
X164347619Y-79788152D01*
X164347619Y-79454819D02*
X164300000Y-79502438D01*
X164300000Y-79502438D02*
X164347619Y-79550057D01*
X164347619Y-79550057D02*
X164395238Y-79502438D01*
X164395238Y-79502438D02*
X164347619Y-79454819D01*
X164347619Y-79454819D02*
X164347619Y-79550057D01*
X164823809Y-79788152D02*
X164823809Y-80454819D01*
X164823809Y-79883390D02*
X164871428Y-79835771D01*
X164871428Y-79835771D02*
X164966666Y-79788152D01*
X164966666Y-79788152D02*
X165109523Y-79788152D01*
X165109523Y-79788152D02*
X165204761Y-79835771D01*
X165204761Y-79835771D02*
X165252380Y-79931009D01*
X165252380Y-79931009D02*
X165252380Y-80454819D01*
X165680952Y-80407200D02*
X165776190Y-80454819D01*
X165776190Y-80454819D02*
X165966666Y-80454819D01*
X165966666Y-80454819D02*
X166061904Y-80407200D01*
X166061904Y-80407200D02*
X166109523Y-80311961D01*
X166109523Y-80311961D02*
X166109523Y-80264342D01*
X166109523Y-80264342D02*
X166061904Y-80169104D01*
X166061904Y-80169104D02*
X165966666Y-80121485D01*
X165966666Y-80121485D02*
X165823809Y-80121485D01*
X165823809Y-80121485D02*
X165728571Y-80073866D01*
X165728571Y-80073866D02*
X165680952Y-79978628D01*
X165680952Y-79978628D02*
X165680952Y-79931009D01*
X165680952Y-79931009D02*
X165728571Y-79835771D01*
X165728571Y-79835771D02*
X165823809Y-79788152D01*
X165823809Y-79788152D02*
X165966666Y-79788152D01*
X165966666Y-79788152D02*
X166061904Y-79835771D01*
X167061904Y-80454819D02*
X166490476Y-80454819D01*
X166776190Y-80454819D02*
X166776190Y-79454819D01*
X166776190Y-79454819D02*
X166680952Y-79597676D01*
X166680952Y-79597676D02*
X166585714Y-79692914D01*
X166585714Y-79692914D02*
X166490476Y-79740533D01*
X152769819Y-67836904D02*
X153579342Y-67836904D01*
X153579342Y-67836904D02*
X153674580Y-67789285D01*
X153674580Y-67789285D02*
X153722200Y-67741666D01*
X153722200Y-67741666D02*
X153769819Y-67646428D01*
X153769819Y-67646428D02*
X153769819Y-67455952D01*
X153769819Y-67455952D02*
X153722200Y-67360714D01*
X153722200Y-67360714D02*
X153674580Y-67313095D01*
X153674580Y-67313095D02*
X153579342Y-67265476D01*
X153579342Y-67265476D02*
X152769819Y-67265476D01*
X153103152Y-66360714D02*
X153769819Y-66360714D01*
X152722200Y-66598809D02*
X153436485Y-66836904D01*
X153436485Y-66836904D02*
X153436485Y-66217857D01*
D11*
X173421904Y-52852580D02*
X173421904Y-52043057D01*
X173421904Y-52043057D02*
X173374285Y-51947819D01*
X173374285Y-51947819D02*
X173326666Y-51900200D01*
X173326666Y-51900200D02*
X173231428Y-51852580D01*
X173231428Y-51852580D02*
X173040952Y-51852580D01*
X173040952Y-51852580D02*
X172945714Y-51900200D01*
X172945714Y-51900200D02*
X172898095Y-51947819D01*
X172898095Y-51947819D02*
X172850476Y-52043057D01*
X172850476Y-52043057D02*
X172850476Y-52852580D01*
X171898095Y-52852580D02*
X172374285Y-52852580D01*
X172374285Y-52852580D02*
X172421904Y-52376390D01*
X172421904Y-52376390D02*
X172374285Y-52424009D01*
X172374285Y-52424009D02*
X172279047Y-52471628D01*
X172279047Y-52471628D02*
X172040952Y-52471628D01*
X172040952Y-52471628D02*
X171945714Y-52424009D01*
X171945714Y-52424009D02*
X171898095Y-52376390D01*
X171898095Y-52376390D02*
X171850476Y-52281152D01*
X171850476Y-52281152D02*
X171850476Y-52043057D01*
X171850476Y-52043057D02*
X171898095Y-51947819D01*
X171898095Y-51947819D02*
X171945714Y-51900200D01*
X171945714Y-51900200D02*
X172040952Y-51852580D01*
X172040952Y-51852580D02*
X172279047Y-51852580D01*
X172279047Y-51852580D02*
X172374285Y-51900200D01*
X172374285Y-51900200D02*
X172421904Y-51947819D01*
D10*
X170485714Y-78769104D02*
X170961904Y-78769104D01*
X170390476Y-79054819D02*
X170723809Y-78054819D01*
X170723809Y-78054819D02*
X171057142Y-79054819D01*
X171390476Y-79054819D02*
X171390476Y-78054819D01*
X171390476Y-78054819D02*
X171628571Y-78054819D01*
X171628571Y-78054819D02*
X171771428Y-78102438D01*
X171771428Y-78102438D02*
X171866666Y-78197676D01*
X171866666Y-78197676D02*
X171914285Y-78292914D01*
X171914285Y-78292914D02*
X171961904Y-78483390D01*
X171961904Y-78483390D02*
X171961904Y-78626247D01*
X171961904Y-78626247D02*
X171914285Y-78816723D01*
X171914285Y-78816723D02*
X171866666Y-78911961D01*
X171866666Y-78911961D02*
X171771428Y-79007200D01*
X171771428Y-79007200D02*
X171628571Y-79054819D01*
X171628571Y-79054819D02*
X171390476Y-79054819D01*
X172247619Y-78054819D02*
X172819047Y-78054819D01*
X172533333Y-79054819D02*
X172533333Y-78054819D01*
X173057143Y-78054819D02*
X173723809Y-78054819D01*
X173723809Y-78054819D02*
X173295238Y-79054819D01*
X174533333Y-78388152D02*
X174533333Y-79054819D01*
X174295238Y-78007200D02*
X174057143Y-78721485D01*
X174057143Y-78721485D02*
X174676190Y-78721485D01*
X175580952Y-79054819D02*
X175009524Y-79054819D01*
X175295238Y-79054819D02*
X175295238Y-78054819D01*
X175295238Y-78054819D02*
X175200000Y-78197676D01*
X175200000Y-78197676D02*
X175104762Y-78292914D01*
X175104762Y-78292914D02*
X175009524Y-78340533D01*
X176200000Y-78054819D02*
X176295238Y-78054819D01*
X176295238Y-78054819D02*
X176390476Y-78102438D01*
X176390476Y-78102438D02*
X176438095Y-78150057D01*
X176438095Y-78150057D02*
X176485714Y-78245295D01*
X176485714Y-78245295D02*
X176533333Y-78435771D01*
X176533333Y-78435771D02*
X176533333Y-78673866D01*
X176533333Y-78673866D02*
X176485714Y-78864342D01*
X176485714Y-78864342D02*
X176438095Y-78959580D01*
X176438095Y-78959580D02*
X176390476Y-79007200D01*
X176390476Y-79007200D02*
X176295238Y-79054819D01*
X176295238Y-79054819D02*
X176200000Y-79054819D01*
X176200000Y-79054819D02*
X176104762Y-79007200D01*
X176104762Y-79007200D02*
X176057143Y-78959580D01*
X176057143Y-78959580D02*
X176009524Y-78864342D01*
X176009524Y-78864342D02*
X175961905Y-78673866D01*
X175961905Y-78673866D02*
X175961905Y-78435771D01*
X175961905Y-78435771D02*
X176009524Y-78245295D01*
X176009524Y-78245295D02*
X176057143Y-78150057D01*
X176057143Y-78150057D02*
X176104762Y-78102438D01*
X176104762Y-78102438D02*
X176200000Y-78054819D01*
X176961905Y-78673866D02*
X177723810Y-78673866D01*
X178200000Y-79054819D02*
X178200000Y-78054819D01*
X178200000Y-78054819D02*
X178580952Y-78054819D01*
X178580952Y-78054819D02*
X178676190Y-78102438D01*
X178676190Y-78102438D02*
X178723809Y-78150057D01*
X178723809Y-78150057D02*
X178771428Y-78245295D01*
X178771428Y-78245295D02*
X178771428Y-78388152D01*
X178771428Y-78388152D02*
X178723809Y-78483390D01*
X178723809Y-78483390D02*
X178676190Y-78531009D01*
X178676190Y-78531009D02*
X178580952Y-78578628D01*
X178580952Y-78578628D02*
X178200000Y-78578628D01*
X179200000Y-79054819D02*
X179200000Y-78388152D01*
X179200000Y-78054819D02*
X179152381Y-78102438D01*
X179152381Y-78102438D02*
X179200000Y-78150057D01*
X179200000Y-78150057D02*
X179247619Y-78102438D01*
X179247619Y-78102438D02*
X179200000Y-78054819D01*
X179200000Y-78054819D02*
X179200000Y-78150057D01*
X179676190Y-78388152D02*
X179676190Y-79054819D01*
X179676190Y-78483390D02*
X179723809Y-78435771D01*
X179723809Y-78435771D02*
X179819047Y-78388152D01*
X179819047Y-78388152D02*
X179961904Y-78388152D01*
X179961904Y-78388152D02*
X180057142Y-78435771D01*
X180057142Y-78435771D02*
X180104761Y-78531009D01*
X180104761Y-78531009D02*
X180104761Y-79054819D01*
X180533333Y-79007200D02*
X180628571Y-79054819D01*
X180628571Y-79054819D02*
X180819047Y-79054819D01*
X180819047Y-79054819D02*
X180914285Y-79007200D01*
X180914285Y-79007200D02*
X180961904Y-78911961D01*
X180961904Y-78911961D02*
X180961904Y-78864342D01*
X180961904Y-78864342D02*
X180914285Y-78769104D01*
X180914285Y-78769104D02*
X180819047Y-78721485D01*
X180819047Y-78721485D02*
X180676190Y-78721485D01*
X180676190Y-78721485D02*
X180580952Y-78673866D01*
X180580952Y-78673866D02*
X180533333Y-78578628D01*
X180533333Y-78578628D02*
X180533333Y-78531009D01*
X180533333Y-78531009D02*
X180580952Y-78435771D01*
X180580952Y-78435771D02*
X180676190Y-78388152D01*
X180676190Y-78388152D02*
X180819047Y-78388152D01*
X180819047Y-78388152D02*
X180914285Y-78435771D01*
X181914285Y-79054819D02*
X181342857Y-79054819D01*
X181628571Y-79054819D02*
X181628571Y-78054819D01*
X181628571Y-78054819D02*
X181533333Y-78197676D01*
X181533333Y-78197676D02*
X181438095Y-78292914D01*
X181438095Y-78292914D02*
X181342857Y-78340533D01*
X152609580Y-48666666D02*
X152657200Y-48714285D01*
X152657200Y-48714285D02*
X152704819Y-48857142D01*
X152704819Y-48857142D02*
X152704819Y-48952380D01*
X152704819Y-48952380D02*
X152657200Y-49095237D01*
X152657200Y-49095237D02*
X152561961Y-49190475D01*
X152561961Y-49190475D02*
X152466723Y-49238094D01*
X152466723Y-49238094D02*
X152276247Y-49285713D01*
X152276247Y-49285713D02*
X152133390Y-49285713D01*
X152133390Y-49285713D02*
X151942914Y-49238094D01*
X151942914Y-49238094D02*
X151847676Y-49190475D01*
X151847676Y-49190475D02*
X151752438Y-49095237D01*
X151752438Y-49095237D02*
X151704819Y-48952380D01*
X151704819Y-48952380D02*
X151704819Y-48857142D01*
X151704819Y-48857142D02*
X151752438Y-48714285D01*
X151752438Y-48714285D02*
X151800057Y-48666666D01*
X151704819Y-47809523D02*
X151704819Y-47999999D01*
X151704819Y-47999999D02*
X151752438Y-48095237D01*
X151752438Y-48095237D02*
X151800057Y-48142856D01*
X151800057Y-48142856D02*
X151942914Y-48238094D01*
X151942914Y-48238094D02*
X152133390Y-48285713D01*
X152133390Y-48285713D02*
X152514342Y-48285713D01*
X152514342Y-48285713D02*
X152609580Y-48238094D01*
X152609580Y-48238094D02*
X152657200Y-48190475D01*
X152657200Y-48190475D02*
X152704819Y-48095237D01*
X152704819Y-48095237D02*
X152704819Y-47904761D01*
X152704819Y-47904761D02*
X152657200Y-47809523D01*
X152657200Y-47809523D02*
X152609580Y-47761904D01*
X152609580Y-47761904D02*
X152514342Y-47714285D01*
X152514342Y-47714285D02*
X152276247Y-47714285D01*
X152276247Y-47714285D02*
X152181009Y-47761904D01*
X152181009Y-47761904D02*
X152133390Y-47809523D01*
X152133390Y-47809523D02*
X152085771Y-47904761D01*
X152085771Y-47904761D02*
X152085771Y-48095237D01*
X152085771Y-48095237D02*
X152133390Y-48190475D01*
X152133390Y-48190475D02*
X152181009Y-48238094D01*
X152181009Y-48238094D02*
X152276247Y-48285713D01*
X125554819Y-59221904D02*
X126364342Y-59221904D01*
X126364342Y-59221904D02*
X126459580Y-59174285D01*
X126459580Y-59174285D02*
X126507200Y-59126666D01*
X126507200Y-59126666D02*
X126554819Y-59031428D01*
X126554819Y-59031428D02*
X126554819Y-58840952D01*
X126554819Y-58840952D02*
X126507200Y-58745714D01*
X126507200Y-58745714D02*
X126459580Y-58698095D01*
X126459580Y-58698095D02*
X126364342Y-58650476D01*
X126364342Y-58650476D02*
X125554819Y-58650476D01*
X126554819Y-57650476D02*
X126554819Y-58221904D01*
X126554819Y-57936190D02*
X125554819Y-57936190D01*
X125554819Y-57936190D02*
X125697676Y-58031428D01*
X125697676Y-58031428D02*
X125792914Y-58126666D01*
X125792914Y-58126666D02*
X125840533Y-58221904D01*
X164609580Y-67166666D02*
X164657200Y-67214285D01*
X164657200Y-67214285D02*
X164704819Y-67357142D01*
X164704819Y-67357142D02*
X164704819Y-67452380D01*
X164704819Y-67452380D02*
X164657200Y-67595237D01*
X164657200Y-67595237D02*
X164561961Y-67690475D01*
X164561961Y-67690475D02*
X164466723Y-67738094D01*
X164466723Y-67738094D02*
X164276247Y-67785713D01*
X164276247Y-67785713D02*
X164133390Y-67785713D01*
X164133390Y-67785713D02*
X163942914Y-67738094D01*
X163942914Y-67738094D02*
X163847676Y-67690475D01*
X163847676Y-67690475D02*
X163752438Y-67595237D01*
X163752438Y-67595237D02*
X163704819Y-67452380D01*
X163704819Y-67452380D02*
X163704819Y-67357142D01*
X163704819Y-67357142D02*
X163752438Y-67214285D01*
X163752438Y-67214285D02*
X163800057Y-67166666D01*
X164704819Y-66214285D02*
X164704819Y-66785713D01*
X164704819Y-66499999D02*
X163704819Y-66499999D01*
X163704819Y-66499999D02*
X163847676Y-66595237D01*
X163847676Y-66595237D02*
X163942914Y-66690475D01*
X163942914Y-66690475D02*
X163990533Y-66785713D01*
X166354819Y-68721904D02*
X167164342Y-68721904D01*
X167164342Y-68721904D02*
X167259580Y-68674285D01*
X167259580Y-68674285D02*
X167307200Y-68626666D01*
X167307200Y-68626666D02*
X167354819Y-68531428D01*
X167354819Y-68531428D02*
X167354819Y-68340952D01*
X167354819Y-68340952D02*
X167307200Y-68245714D01*
X167307200Y-68245714D02*
X167259580Y-68198095D01*
X167259580Y-68198095D02*
X167164342Y-68150476D01*
X167164342Y-68150476D02*
X166354819Y-68150476D01*
X166354819Y-67769523D02*
X166354819Y-67150476D01*
X166354819Y-67150476D02*
X166735771Y-67483809D01*
X166735771Y-67483809D02*
X166735771Y-67340952D01*
X166735771Y-67340952D02*
X166783390Y-67245714D01*
X166783390Y-67245714D02*
X166831009Y-67198095D01*
X166831009Y-67198095D02*
X166926247Y-67150476D01*
X166926247Y-67150476D02*
X167164342Y-67150476D01*
X167164342Y-67150476D02*
X167259580Y-67198095D01*
X167259580Y-67198095D02*
X167307200Y-67245714D01*
X167307200Y-67245714D02*
X167354819Y-67340952D01*
X167354819Y-67340952D02*
X167354819Y-67626666D01*
X167354819Y-67626666D02*
X167307200Y-67721904D01*
X167307200Y-67721904D02*
X167259580Y-67769523D01*
X174395238Y-91654819D02*
X174395238Y-90654819D01*
X174395238Y-90654819D02*
X174728571Y-91369104D01*
X174728571Y-91369104D02*
X175061904Y-90654819D01*
X175061904Y-90654819D02*
X175061904Y-91654819D01*
X175490476Y-91607200D02*
X175633333Y-91654819D01*
X175633333Y-91654819D02*
X175871428Y-91654819D01*
X175871428Y-91654819D02*
X175966666Y-91607200D01*
X175966666Y-91607200D02*
X176014285Y-91559580D01*
X176014285Y-91559580D02*
X176061904Y-91464342D01*
X176061904Y-91464342D02*
X176061904Y-91369104D01*
X176061904Y-91369104D02*
X176014285Y-91273866D01*
X176014285Y-91273866D02*
X175966666Y-91226247D01*
X175966666Y-91226247D02*
X175871428Y-91178628D01*
X175871428Y-91178628D02*
X175680952Y-91131009D01*
X175680952Y-91131009D02*
X175585714Y-91083390D01*
X175585714Y-91083390D02*
X175538095Y-91035771D01*
X175538095Y-91035771D02*
X175490476Y-90940533D01*
X175490476Y-90940533D02*
X175490476Y-90845295D01*
X175490476Y-90845295D02*
X175538095Y-90750057D01*
X175538095Y-90750057D02*
X175585714Y-90702438D01*
X175585714Y-90702438D02*
X175680952Y-90654819D01*
X175680952Y-90654819D02*
X175919047Y-90654819D01*
X175919047Y-90654819D02*
X176061904Y-90702438D01*
X176966666Y-90654819D02*
X176490476Y-90654819D01*
X176490476Y-90654819D02*
X176442857Y-91131009D01*
X176442857Y-91131009D02*
X176490476Y-91083390D01*
X176490476Y-91083390D02*
X176585714Y-91035771D01*
X176585714Y-91035771D02*
X176823809Y-91035771D01*
X176823809Y-91035771D02*
X176919047Y-91083390D01*
X176919047Y-91083390D02*
X176966666Y-91131009D01*
X176966666Y-91131009D02*
X177014285Y-91226247D01*
X177014285Y-91226247D02*
X177014285Y-91464342D01*
X177014285Y-91464342D02*
X176966666Y-91559580D01*
X176966666Y-91559580D02*
X176919047Y-91607200D01*
X176919047Y-91607200D02*
X176823809Y-91654819D01*
X176823809Y-91654819D02*
X176585714Y-91654819D01*
X176585714Y-91654819D02*
X176490476Y-91607200D01*
X176490476Y-91607200D02*
X176442857Y-91559580D01*
X177871428Y-90654819D02*
X177680952Y-90654819D01*
X177680952Y-90654819D02*
X177585714Y-90702438D01*
X177585714Y-90702438D02*
X177538095Y-90750057D01*
X177538095Y-90750057D02*
X177442857Y-90892914D01*
X177442857Y-90892914D02*
X177395238Y-91083390D01*
X177395238Y-91083390D02*
X177395238Y-91464342D01*
X177395238Y-91464342D02*
X177442857Y-91559580D01*
X177442857Y-91559580D02*
X177490476Y-91607200D01*
X177490476Y-91607200D02*
X177585714Y-91654819D01*
X177585714Y-91654819D02*
X177776190Y-91654819D01*
X177776190Y-91654819D02*
X177871428Y-91607200D01*
X177871428Y-91607200D02*
X177919047Y-91559580D01*
X177919047Y-91559580D02*
X177966666Y-91464342D01*
X177966666Y-91464342D02*
X177966666Y-91226247D01*
X177966666Y-91226247D02*
X177919047Y-91131009D01*
X177919047Y-91131009D02*
X177871428Y-91083390D01*
X177871428Y-91083390D02*
X177776190Y-91035771D01*
X177776190Y-91035771D02*
X177585714Y-91035771D01*
X177585714Y-91035771D02*
X177490476Y-91083390D01*
X177490476Y-91083390D02*
X177442857Y-91131009D01*
X177442857Y-91131009D02*
X177395238Y-91226247D01*
X178919047Y-91654819D02*
X178347619Y-91654819D01*
X178633333Y-91654819D02*
X178633333Y-90654819D01*
X178633333Y-90654819D02*
X178538095Y-90797676D01*
X178538095Y-90797676D02*
X178442857Y-90892914D01*
X178442857Y-90892914D02*
X178347619Y-90940533D01*
X179871428Y-91654819D02*
X179300000Y-91654819D01*
X179585714Y-91654819D02*
X179585714Y-90654819D01*
X179585714Y-90654819D02*
X179490476Y-90797676D01*
X179490476Y-90797676D02*
X179395238Y-90892914D01*
X179395238Y-90892914D02*
X179300000Y-90940533D01*
X180300000Y-91273866D02*
X181061905Y-91273866D01*
X181538095Y-91654819D02*
X181538095Y-90654819D01*
X181538095Y-90654819D02*
X181919047Y-90654819D01*
X181919047Y-90654819D02*
X182014285Y-90702438D01*
X182014285Y-90702438D02*
X182061904Y-90750057D01*
X182061904Y-90750057D02*
X182109523Y-90845295D01*
X182109523Y-90845295D02*
X182109523Y-90988152D01*
X182109523Y-90988152D02*
X182061904Y-91083390D01*
X182061904Y-91083390D02*
X182014285Y-91131009D01*
X182014285Y-91131009D02*
X181919047Y-91178628D01*
X181919047Y-91178628D02*
X181538095Y-91178628D01*
X182538095Y-91654819D02*
X182538095Y-90988152D01*
X182538095Y-90654819D02*
X182490476Y-90702438D01*
X182490476Y-90702438D02*
X182538095Y-90750057D01*
X182538095Y-90750057D02*
X182585714Y-90702438D01*
X182585714Y-90702438D02*
X182538095Y-90654819D01*
X182538095Y-90654819D02*
X182538095Y-90750057D01*
X183014285Y-90988152D02*
X183014285Y-91654819D01*
X183014285Y-91083390D02*
X183061904Y-91035771D01*
X183061904Y-91035771D02*
X183157142Y-90988152D01*
X183157142Y-90988152D02*
X183299999Y-90988152D01*
X183299999Y-90988152D02*
X183395237Y-91035771D01*
X183395237Y-91035771D02*
X183442856Y-91131009D01*
X183442856Y-91131009D02*
X183442856Y-91654819D01*
X183871428Y-91607200D02*
X183966666Y-91654819D01*
X183966666Y-91654819D02*
X184157142Y-91654819D01*
X184157142Y-91654819D02*
X184252380Y-91607200D01*
X184252380Y-91607200D02*
X184299999Y-91511961D01*
X184299999Y-91511961D02*
X184299999Y-91464342D01*
X184299999Y-91464342D02*
X184252380Y-91369104D01*
X184252380Y-91369104D02*
X184157142Y-91321485D01*
X184157142Y-91321485D02*
X184014285Y-91321485D01*
X184014285Y-91321485D02*
X183919047Y-91273866D01*
X183919047Y-91273866D02*
X183871428Y-91178628D01*
X183871428Y-91178628D02*
X183871428Y-91131009D01*
X183871428Y-91131009D02*
X183919047Y-91035771D01*
X183919047Y-91035771D02*
X184014285Y-90988152D01*
X184014285Y-90988152D02*
X184157142Y-90988152D01*
X184157142Y-90988152D02*
X184252380Y-91035771D01*
X185252380Y-91654819D02*
X184680952Y-91654819D01*
X184966666Y-91654819D02*
X184966666Y-90654819D01*
X184966666Y-90654819D02*
X184871428Y-90797676D01*
X184871428Y-90797676D02*
X184776190Y-90892914D01*
X184776190Y-90892914D02*
X184680952Y-90940533D01*
X143016666Y-144814819D02*
X143016666Y-145529104D01*
X143016666Y-145529104D02*
X142969047Y-145671961D01*
X142969047Y-145671961D02*
X142873809Y-145767200D01*
X142873809Y-145767200D02*
X142730952Y-145814819D01*
X142730952Y-145814819D02*
X142635714Y-145814819D01*
X143445238Y-144910057D02*
X143492857Y-144862438D01*
X143492857Y-144862438D02*
X143588095Y-144814819D01*
X143588095Y-144814819D02*
X143826190Y-144814819D01*
X143826190Y-144814819D02*
X143921428Y-144862438D01*
X143921428Y-144862438D02*
X143969047Y-144910057D01*
X143969047Y-144910057D02*
X144016666Y-145005295D01*
X144016666Y-145005295D02*
X144016666Y-145100533D01*
X144016666Y-145100533D02*
X143969047Y-145243390D01*
X143969047Y-145243390D02*
X143397619Y-145814819D01*
X143397619Y-145814819D02*
X144016666Y-145814819D01*
%TO.C,J1*%
D12*
X148471750Y-38937500D02*
G75*
G02*
X148271750Y-38937500I-100000J0D01*
G01*
X148271750Y-38937500D02*
G75*
G02*
X148471750Y-38937500I100000J0D01*
G01*
D13*
X127486750Y-38437500D02*
X158296750Y-38437500D01*
X127486750Y-25837500D02*
X127486750Y-38437500D01*
X158296750Y-38437500D02*
X158296750Y-25837500D01*
%TO.C,J3*%
D14*
X107380000Y-75380000D02*
X116620000Y-75380000D01*
X107380000Y-77700000D02*
X107380000Y-75380000D01*
X107380000Y-85620000D02*
X107380000Y-78300000D01*
X109000000Y-75380000D02*
X109000000Y-85620000D01*
X116620000Y-75380000D02*
X116620000Y-85620000D01*
X116620000Y-85620000D02*
X107380000Y-85620000D01*
X115400000Y-78000000D02*
G75*
G02*
X113600000Y-78000000I-900000J0D01*
G01*
X113600000Y-78000000D02*
G75*
G02*
X115400000Y-78000000I900000J0D01*
G01*
X115400000Y-83000000D02*
G75*
G02*
X113600000Y-83000000I-900000J0D01*
G01*
X113600000Y-83000000D02*
G75*
G02*
X115400000Y-83000000I900000J0D01*
G01*
X107380000Y-78000000D02*
X106770000Y-78440000D01*
X106770000Y-77560000D01*
X107380000Y-78000000D01*
G36*
X107380000Y-78000000D02*
G01*
X106770000Y-78440000D01*
X106770000Y-77560000D01*
X107380000Y-78000000D01*
G37*
%TO.C,C3*%
X114580000Y-66765000D02*
X114580000Y-65235000D01*
X116420000Y-65235000D02*
X116420000Y-66765000D01*
%TO.C,C5*%
X113420000Y-49460000D02*
X117580000Y-49460000D01*
X113420000Y-49500000D02*
X117580000Y-49500000D01*
X113422000Y-49420000D02*
X117578000Y-49420000D01*
X113423000Y-49380000D02*
X117577000Y-49380000D01*
X113426000Y-49340000D02*
X117574000Y-49340000D01*
X113429000Y-49300000D02*
X114660000Y-49300000D01*
X113434000Y-49260000D02*
X114660000Y-49260000D01*
X113439000Y-49220000D02*
X114660000Y-49220000D01*
X113444000Y-49180000D02*
X114660000Y-49180000D01*
X113451000Y-49140000D02*
X114660000Y-49140000D01*
X113458000Y-49100000D02*
X114660000Y-49100000D01*
X113466000Y-49060000D02*
X114660000Y-49060000D01*
X113475000Y-49020000D02*
X114660000Y-49020000D01*
X113485000Y-48980000D02*
X114660000Y-48980000D01*
X113495000Y-48940000D02*
X114660000Y-48940000D01*
X113507000Y-48900000D02*
X114660000Y-48900000D01*
X113519000Y-48860000D02*
X114660000Y-48860000D01*
X113532000Y-48820000D02*
X114660000Y-48820000D01*
X113546000Y-48780000D02*
X114660000Y-48780000D01*
X113561000Y-48740000D02*
X114660000Y-48740000D01*
X113577000Y-48700000D02*
X114660000Y-48700000D01*
X113594000Y-48660000D02*
X114660000Y-48660000D01*
X113611000Y-48620000D02*
X114660000Y-48620000D01*
X113630000Y-48580000D02*
X114660000Y-48580000D01*
X113650000Y-48540000D02*
X114660000Y-48540000D01*
X113671000Y-48500000D02*
X114660000Y-48500000D01*
X113693000Y-48460000D02*
X114660000Y-48460000D01*
X113716000Y-48420000D02*
X114660000Y-48420000D01*
X113740000Y-48380000D02*
X114660000Y-48380000D01*
X113766000Y-48340000D02*
X114660000Y-48340000D01*
X113792000Y-48300000D02*
X114660000Y-48300000D01*
X113820000Y-48260000D02*
X114660000Y-48260000D01*
X113850000Y-48220000D02*
X114660000Y-48220000D01*
X113881000Y-48180000D02*
X114660000Y-48180000D01*
X113914000Y-48140000D02*
X114660000Y-48140000D01*
X113948000Y-48100000D02*
X114660000Y-48100000D01*
X113984000Y-48060000D02*
X114660000Y-48060000D01*
X114022000Y-48020000D02*
X114660000Y-48020000D01*
X114062000Y-47980000D02*
X114660000Y-47980000D01*
X114104000Y-47940000D02*
X114660000Y-47940000D01*
X114105000Y-51569801D02*
X114505000Y-51569801D01*
X114149000Y-47900000D02*
X114660000Y-47900000D01*
X114197000Y-47860000D02*
X114660000Y-47860000D01*
X114247000Y-47820000D02*
X114660000Y-47820000D01*
X114301000Y-47780000D02*
X114660000Y-47780000D01*
X114305000Y-51769801D02*
X114305000Y-51369801D01*
X114358000Y-47740000D02*
X114660000Y-47740000D01*
X114420000Y-47700000D02*
X114660000Y-47700000D01*
X114487000Y-47660000D02*
X116513000Y-47660000D01*
X114560000Y-47620000D02*
X116440000Y-47620000D01*
X114641000Y-47580000D02*
X116359000Y-47580000D01*
X114732000Y-47540000D02*
X116268000Y-47540000D01*
X114837000Y-47500000D02*
X116163000Y-47500000D01*
X114963000Y-47460000D02*
X116037000Y-47460000D01*
X115130000Y-47420000D02*
X115870000Y-47420000D01*
X116340000Y-47700000D02*
X116580000Y-47700000D01*
X116340000Y-47740000D02*
X116642000Y-47740000D01*
X116340000Y-47780000D02*
X116699000Y-47780000D01*
X116340000Y-47820000D02*
X116753000Y-47820000D01*
X116340000Y-47860000D02*
X116803000Y-47860000D01*
X116340000Y-47900000D02*
X116851000Y-47900000D01*
X116340000Y-47940000D02*
X116896000Y-47940000D01*
X116340000Y-47980000D02*
X116938000Y-47980000D01*
X116340000Y-48020000D02*
X116978000Y-48020000D01*
X116340000Y-48060000D02*
X117016000Y-48060000D01*
X116340000Y-48100000D02*
X117052000Y-48100000D01*
X116340000Y-48140000D02*
X117086000Y-48140000D01*
X116340000Y-48180000D02*
X117119000Y-48180000D01*
X116340000Y-48220000D02*
X117150000Y-48220000D01*
X116340000Y-48260000D02*
X117180000Y-48260000D01*
X116340000Y-48300000D02*
X117208000Y-48300000D01*
X116340000Y-48340000D02*
X117234000Y-48340000D01*
X116340000Y-48380000D02*
X117260000Y-48380000D01*
X116340000Y-48420000D02*
X117284000Y-48420000D01*
X116340000Y-48460000D02*
X117307000Y-48460000D01*
X116340000Y-48500000D02*
X117329000Y-48500000D01*
X116340000Y-48540000D02*
X117350000Y-48540000D01*
X116340000Y-48580000D02*
X117370000Y-48580000D01*
X116340000Y-48620000D02*
X117389000Y-48620000D01*
X116340000Y-48660000D02*
X117406000Y-48660000D01*
X116340000Y-48700000D02*
X117423000Y-48700000D01*
X116340000Y-48740000D02*
X117439000Y-48740000D01*
X116340000Y-48780000D02*
X117454000Y-48780000D01*
X116340000Y-48820000D02*
X117468000Y-48820000D01*
X116340000Y-48860000D02*
X117481000Y-48860000D01*
X116340000Y-48900000D02*
X117493000Y-48900000D01*
X116340000Y-48940000D02*
X117505000Y-48940000D01*
X116340000Y-48980000D02*
X117515000Y-48980000D01*
X116340000Y-49020000D02*
X117525000Y-49020000D01*
X116340000Y-49060000D02*
X117534000Y-49060000D01*
X116340000Y-49100000D02*
X117542000Y-49100000D01*
X116340000Y-49140000D02*
X117549000Y-49140000D01*
X116340000Y-49180000D02*
X117556000Y-49180000D01*
X116340000Y-49220000D02*
X117561000Y-49220000D01*
X116340000Y-49260000D02*
X117566000Y-49260000D01*
X116340000Y-49300000D02*
X117571000Y-49300000D01*
X117620000Y-49500000D02*
G75*
G02*
X113380000Y-49500000I-2120000J0D01*
G01*
X113380000Y-49500000D02*
G75*
G02*
X117620000Y-49500000I2120000J0D01*
G01*
%TO.C,C2*%
X181080000Y-70015000D02*
X181080000Y-68485000D01*
X182920000Y-68485000D02*
X182920000Y-70015000D01*
%TO.C,C4*%
X127420000Y-49460000D02*
X131580000Y-49460000D01*
X127420000Y-49500000D02*
X131580000Y-49500000D01*
X127422000Y-49420000D02*
X131578000Y-49420000D01*
X127423000Y-49380000D02*
X131577000Y-49380000D01*
X127426000Y-49340000D02*
X131574000Y-49340000D01*
X127429000Y-49300000D02*
X128660000Y-49300000D01*
X127434000Y-49260000D02*
X128660000Y-49260000D01*
X127439000Y-49220000D02*
X128660000Y-49220000D01*
X127444000Y-49180000D02*
X128660000Y-49180000D01*
X127451000Y-49140000D02*
X128660000Y-49140000D01*
X127458000Y-49100000D02*
X128660000Y-49100000D01*
X127466000Y-49060000D02*
X128660000Y-49060000D01*
X127475000Y-49020000D02*
X128660000Y-49020000D01*
X127485000Y-48980000D02*
X128660000Y-48980000D01*
X127495000Y-48940000D02*
X128660000Y-48940000D01*
X127507000Y-48900000D02*
X128660000Y-48900000D01*
X127519000Y-48860000D02*
X128660000Y-48860000D01*
X127532000Y-48820000D02*
X128660000Y-48820000D01*
X127546000Y-48780000D02*
X128660000Y-48780000D01*
X127561000Y-48740000D02*
X128660000Y-48740000D01*
X127577000Y-48700000D02*
X128660000Y-48700000D01*
X127594000Y-48660000D02*
X128660000Y-48660000D01*
X127611000Y-48620000D02*
X128660000Y-48620000D01*
X127630000Y-48580000D02*
X128660000Y-48580000D01*
X127650000Y-48540000D02*
X128660000Y-48540000D01*
X127671000Y-48500000D02*
X128660000Y-48500000D01*
X127693000Y-48460000D02*
X128660000Y-48460000D01*
X127716000Y-48420000D02*
X128660000Y-48420000D01*
X127740000Y-48380000D02*
X128660000Y-48380000D01*
X127766000Y-48340000D02*
X128660000Y-48340000D01*
X127792000Y-48300000D02*
X128660000Y-48300000D01*
X127820000Y-48260000D02*
X128660000Y-48260000D01*
X127850000Y-48220000D02*
X128660000Y-48220000D01*
X127881000Y-48180000D02*
X128660000Y-48180000D01*
X127914000Y-48140000D02*
X128660000Y-48140000D01*
X127948000Y-48100000D02*
X128660000Y-48100000D01*
X127984000Y-48060000D02*
X128660000Y-48060000D01*
X128022000Y-48020000D02*
X128660000Y-48020000D01*
X128062000Y-47980000D02*
X128660000Y-47980000D01*
X128104000Y-47940000D02*
X128660000Y-47940000D01*
X128105000Y-51569801D02*
X128505000Y-51569801D01*
X128149000Y-47900000D02*
X128660000Y-47900000D01*
X128197000Y-47860000D02*
X128660000Y-47860000D01*
X128247000Y-47820000D02*
X128660000Y-47820000D01*
X128301000Y-47780000D02*
X128660000Y-47780000D01*
X128305000Y-51769801D02*
X128305000Y-51369801D01*
X128358000Y-47740000D02*
X128660000Y-47740000D01*
X128420000Y-47700000D02*
X128660000Y-47700000D01*
X128487000Y-47660000D02*
X130513000Y-47660000D01*
X128560000Y-47620000D02*
X130440000Y-47620000D01*
X128641000Y-47580000D02*
X130359000Y-47580000D01*
X128732000Y-47540000D02*
X130268000Y-47540000D01*
X128837000Y-47500000D02*
X130163000Y-47500000D01*
X128963000Y-47460000D02*
X130037000Y-47460000D01*
X129130000Y-47420000D02*
X129870000Y-47420000D01*
X130340000Y-47700000D02*
X130580000Y-47700000D01*
X130340000Y-47740000D02*
X130642000Y-47740000D01*
X130340000Y-47780000D02*
X130699000Y-47780000D01*
X130340000Y-47820000D02*
X130753000Y-47820000D01*
X130340000Y-47860000D02*
X130803000Y-47860000D01*
X130340000Y-47900000D02*
X130851000Y-47900000D01*
X130340000Y-47940000D02*
X130896000Y-47940000D01*
X130340000Y-47980000D02*
X130938000Y-47980000D01*
X130340000Y-48020000D02*
X130978000Y-48020000D01*
X130340000Y-48060000D02*
X131016000Y-48060000D01*
X130340000Y-48100000D02*
X131052000Y-48100000D01*
X130340000Y-48140000D02*
X131086000Y-48140000D01*
X130340000Y-48180000D02*
X131119000Y-48180000D01*
X130340000Y-48220000D02*
X131150000Y-48220000D01*
X130340000Y-48260000D02*
X131180000Y-48260000D01*
X130340000Y-48300000D02*
X131208000Y-48300000D01*
X130340000Y-48340000D02*
X131234000Y-48340000D01*
X130340000Y-48380000D02*
X131260000Y-48380000D01*
X130340000Y-48420000D02*
X131284000Y-48420000D01*
X130340000Y-48460000D02*
X131307000Y-48460000D01*
X130340000Y-48500000D02*
X131329000Y-48500000D01*
X130340000Y-48540000D02*
X131350000Y-48540000D01*
X130340000Y-48580000D02*
X131370000Y-48580000D01*
X130340000Y-48620000D02*
X131389000Y-48620000D01*
X130340000Y-48660000D02*
X131406000Y-48660000D01*
X130340000Y-48700000D02*
X131423000Y-48700000D01*
X130340000Y-48740000D02*
X131439000Y-48740000D01*
X130340000Y-48780000D02*
X131454000Y-48780000D01*
X130340000Y-48820000D02*
X131468000Y-48820000D01*
X130340000Y-48860000D02*
X131481000Y-48860000D01*
X130340000Y-48900000D02*
X131493000Y-48900000D01*
X130340000Y-48940000D02*
X131505000Y-48940000D01*
X130340000Y-48980000D02*
X131515000Y-48980000D01*
X130340000Y-49020000D02*
X131525000Y-49020000D01*
X130340000Y-49060000D02*
X131534000Y-49060000D01*
X130340000Y-49100000D02*
X131542000Y-49100000D01*
X130340000Y-49140000D02*
X131549000Y-49140000D01*
X130340000Y-49180000D02*
X131556000Y-49180000D01*
X130340000Y-49220000D02*
X131561000Y-49220000D01*
X130340000Y-49260000D02*
X131566000Y-49260000D01*
X130340000Y-49300000D02*
X131571000Y-49300000D01*
X131620000Y-49500000D02*
G75*
G02*
X127380000Y-49500000I-2120000J0D01*
G01*
X127380000Y-49500000D02*
G75*
G02*
X131620000Y-49500000I2120000J0D01*
G01*
%TO.C,U2*%
X107140000Y-53430000D02*
X111760000Y-53430000D01*
X107140000Y-63650000D02*
X107140000Y-53430000D01*
X110380000Y-53430000D02*
X110380000Y-63650000D01*
X111760000Y-53430000D02*
X111760000Y-63650000D01*
X111760000Y-56690000D02*
X110380000Y-56690000D01*
X111760000Y-60390000D02*
X110380000Y-60390000D01*
X111760000Y-63650000D02*
X107140000Y-63650000D01*
%TO.C,VEML6070-Pins1*%
X167535000Y-81265000D02*
X168280000Y-81265000D01*
X167535000Y-82000000D02*
X167535000Y-81265000D01*
X167535000Y-82735000D02*
X167535000Y-86610000D01*
X167535000Y-82735000D02*
X167594435Y-82735000D01*
X167535000Y-86610000D02*
X167869970Y-86610000D01*
X168690030Y-86610000D02*
X169025000Y-86610000D01*
X168965565Y-82735000D02*
X169025000Y-82735000D01*
X169025000Y-82735000D02*
X169025000Y-86610000D01*
%TO.C,U4*%
D13*
X134130000Y-63900000D02*
X138990000Y-63900000D01*
X134130000Y-124860000D02*
X134130000Y-63900000D01*
X138990000Y-63200000D02*
X147050000Y-63200000D01*
X138990000Y-63900000D02*
X138990000Y-63200000D01*
X147050000Y-63900000D02*
X147050000Y-63200000D01*
X151910000Y-63900000D02*
X147050000Y-63900000D01*
X151910000Y-63900000D02*
X151910000Y-124860000D01*
X151910000Y-124860000D02*
X134130000Y-124860000D01*
D12*
X133620000Y-70250000D02*
G75*
G02*
X133420000Y-70250000I-100000J0D01*
G01*
X133420000Y-70250000D02*
G75*
G02*
X133620000Y-70250000I100000J0D01*
G01*
%TO.C,U5*%
D11*
X161960000Y-45110000D02*
X183360000Y-45110000D01*
X183360000Y-58510000D01*
X161960000Y-58510000D01*
X161960000Y-45110000D01*
%TO.C,ADT7410-Pins1*%
D14*
X175255000Y-81265000D02*
X176000000Y-81265000D01*
X175255000Y-82000000D02*
X175255000Y-81265000D01*
X175255000Y-82735000D02*
X175255000Y-87610000D01*
X175255000Y-82735000D02*
X175314435Y-82735000D01*
X175255000Y-87610000D02*
X175589970Y-87610000D01*
X176410030Y-87610000D02*
X176745000Y-87610000D01*
X176685565Y-82735000D02*
X176745000Y-82735000D01*
X176745000Y-82735000D02*
X176745000Y-87610000D01*
%TO.C,C6*%
X153420000Y-48460000D02*
X157580000Y-48460000D01*
X153420000Y-48500000D02*
X157580000Y-48500000D01*
X153422000Y-48420000D02*
X157578000Y-48420000D01*
X153423000Y-48380000D02*
X157577000Y-48380000D01*
X153426000Y-48340000D02*
X157574000Y-48340000D01*
X153429000Y-48300000D02*
X154660000Y-48300000D01*
X153434000Y-48260000D02*
X154660000Y-48260000D01*
X153439000Y-48220000D02*
X154660000Y-48220000D01*
X153444000Y-48180000D02*
X154660000Y-48180000D01*
X153451000Y-48140000D02*
X154660000Y-48140000D01*
X153458000Y-48100000D02*
X154660000Y-48100000D01*
X153466000Y-48060000D02*
X154660000Y-48060000D01*
X153475000Y-48020000D02*
X154660000Y-48020000D01*
X153485000Y-47980000D02*
X154660000Y-47980000D01*
X153495000Y-47940000D02*
X154660000Y-47940000D01*
X153507000Y-47900000D02*
X154660000Y-47900000D01*
X153519000Y-47860000D02*
X154660000Y-47860000D01*
X153532000Y-47820000D02*
X154660000Y-47820000D01*
X153546000Y-47780000D02*
X154660000Y-47780000D01*
X153561000Y-47740000D02*
X154660000Y-47740000D01*
X153577000Y-47700000D02*
X154660000Y-47700000D01*
X153594000Y-47660000D02*
X154660000Y-47660000D01*
X153611000Y-47620000D02*
X154660000Y-47620000D01*
X153630000Y-47580000D02*
X154660000Y-47580000D01*
X153650000Y-47540000D02*
X154660000Y-47540000D01*
X153671000Y-47500000D02*
X154660000Y-47500000D01*
X153693000Y-47460000D02*
X154660000Y-47460000D01*
X153716000Y-47420000D02*
X154660000Y-47420000D01*
X153740000Y-47380000D02*
X154660000Y-47380000D01*
X153766000Y-47340000D02*
X154660000Y-47340000D01*
X153792000Y-47300000D02*
X154660000Y-47300000D01*
X153820000Y-47260000D02*
X154660000Y-47260000D01*
X153850000Y-47220000D02*
X154660000Y-47220000D01*
X153881000Y-47180000D02*
X154660000Y-47180000D01*
X153914000Y-47140000D02*
X154660000Y-47140000D01*
X153948000Y-47100000D02*
X154660000Y-47100000D01*
X153984000Y-47060000D02*
X154660000Y-47060000D01*
X154022000Y-47020000D02*
X154660000Y-47020000D01*
X154062000Y-46980000D02*
X154660000Y-46980000D01*
X154104000Y-46940000D02*
X154660000Y-46940000D01*
X154105000Y-50569801D02*
X154505000Y-50569801D01*
X154149000Y-46900000D02*
X154660000Y-46900000D01*
X154197000Y-46860000D02*
X154660000Y-46860000D01*
X154247000Y-46820000D02*
X154660000Y-46820000D01*
X154301000Y-46780000D02*
X154660000Y-46780000D01*
X154305000Y-50769801D02*
X154305000Y-50369801D01*
X154358000Y-46740000D02*
X154660000Y-46740000D01*
X154420000Y-46700000D02*
X154660000Y-46700000D01*
X154487000Y-46660000D02*
X156513000Y-46660000D01*
X154560000Y-46620000D02*
X156440000Y-46620000D01*
X154641000Y-46580000D02*
X156359000Y-46580000D01*
X154732000Y-46540000D02*
X156268000Y-46540000D01*
X154837000Y-46500000D02*
X156163000Y-46500000D01*
X154963000Y-46460000D02*
X156037000Y-46460000D01*
X155130000Y-46420000D02*
X155870000Y-46420000D01*
X156340000Y-46700000D02*
X156580000Y-46700000D01*
X156340000Y-46740000D02*
X156642000Y-46740000D01*
X156340000Y-46780000D02*
X156699000Y-46780000D01*
X156340000Y-46820000D02*
X156753000Y-46820000D01*
X156340000Y-46860000D02*
X156803000Y-46860000D01*
X156340000Y-46900000D02*
X156851000Y-46900000D01*
X156340000Y-46940000D02*
X156896000Y-46940000D01*
X156340000Y-46980000D02*
X156938000Y-46980000D01*
X156340000Y-47020000D02*
X156978000Y-47020000D01*
X156340000Y-47060000D02*
X157016000Y-47060000D01*
X156340000Y-47100000D02*
X157052000Y-47100000D01*
X156340000Y-47140000D02*
X157086000Y-47140000D01*
X156340000Y-47180000D02*
X157119000Y-47180000D01*
X156340000Y-47220000D02*
X157150000Y-47220000D01*
X156340000Y-47260000D02*
X157180000Y-47260000D01*
X156340000Y-47300000D02*
X157208000Y-47300000D01*
X156340000Y-47340000D02*
X157234000Y-47340000D01*
X156340000Y-47380000D02*
X157260000Y-47380000D01*
X156340000Y-47420000D02*
X157284000Y-47420000D01*
X156340000Y-47460000D02*
X157307000Y-47460000D01*
X156340000Y-47500000D02*
X157329000Y-47500000D01*
X156340000Y-47540000D02*
X157350000Y-47540000D01*
X156340000Y-47580000D02*
X157370000Y-47580000D01*
X156340000Y-47620000D02*
X157389000Y-47620000D01*
X156340000Y-47660000D02*
X157406000Y-47660000D01*
X156340000Y-47700000D02*
X157423000Y-47700000D01*
X156340000Y-47740000D02*
X157439000Y-47740000D01*
X156340000Y-47780000D02*
X157454000Y-47780000D01*
X156340000Y-47820000D02*
X157468000Y-47820000D01*
X156340000Y-47860000D02*
X157481000Y-47860000D01*
X156340000Y-47900000D02*
X157493000Y-47900000D01*
X156340000Y-47940000D02*
X157505000Y-47940000D01*
X156340000Y-47980000D02*
X157515000Y-47980000D01*
X156340000Y-48020000D02*
X157525000Y-48020000D01*
X156340000Y-48060000D02*
X157534000Y-48060000D01*
X156340000Y-48100000D02*
X157542000Y-48100000D01*
X156340000Y-48140000D02*
X157549000Y-48140000D01*
X156340000Y-48180000D02*
X157556000Y-48180000D01*
X156340000Y-48220000D02*
X157561000Y-48220000D01*
X156340000Y-48260000D02*
X157566000Y-48260000D01*
X156340000Y-48300000D02*
X157571000Y-48300000D01*
X157620000Y-48500000D02*
G75*
G02*
X153380000Y-48500000I-2120000J0D01*
G01*
X153380000Y-48500000D02*
G75*
G02*
X157620000Y-48500000I2120000J0D01*
G01*
%TO.C,U1*%
X120640000Y-53350000D02*
X125260000Y-53350000D01*
X120640000Y-63570000D02*
X120640000Y-53350000D01*
X123880000Y-53350000D02*
X123880000Y-63570000D01*
X125260000Y-53350000D02*
X125260000Y-63570000D01*
X125260000Y-56610000D02*
X123880000Y-56610000D01*
X125260000Y-60310000D02*
X123880000Y-60310000D01*
X125260000Y-63570000D02*
X120640000Y-63570000D01*
%TO.C,C1*%
X160160000Y-67200000D02*
X158929000Y-67200000D01*
X160160000Y-67240000D02*
X158934000Y-67240000D01*
X160160000Y-67280000D02*
X158939000Y-67280000D01*
X160160000Y-67320000D02*
X158944000Y-67320000D01*
X160160000Y-67360000D02*
X158951000Y-67360000D01*
X160160000Y-67400000D02*
X158958000Y-67400000D01*
X160160000Y-67440000D02*
X158966000Y-67440000D01*
X160160000Y-67480000D02*
X158975000Y-67480000D01*
X160160000Y-67520000D02*
X158985000Y-67520000D01*
X160160000Y-67560000D02*
X158995000Y-67560000D01*
X160160000Y-67600000D02*
X159007000Y-67600000D01*
X160160000Y-67640000D02*
X159019000Y-67640000D01*
X160160000Y-67680000D02*
X159032000Y-67680000D01*
X160160000Y-67720000D02*
X159046000Y-67720000D01*
X160160000Y-67760000D02*
X159061000Y-67760000D01*
X160160000Y-67800000D02*
X159077000Y-67800000D01*
X160160000Y-67840000D02*
X159094000Y-67840000D01*
X160160000Y-67880000D02*
X159111000Y-67880000D01*
X160160000Y-67920000D02*
X159130000Y-67920000D01*
X160160000Y-67960000D02*
X159150000Y-67960000D01*
X160160000Y-68000000D02*
X159171000Y-68000000D01*
X160160000Y-68040000D02*
X159193000Y-68040000D01*
X160160000Y-68080000D02*
X159216000Y-68080000D01*
X160160000Y-68120000D02*
X159240000Y-68120000D01*
X160160000Y-68160000D02*
X159266000Y-68160000D01*
X160160000Y-68200000D02*
X159292000Y-68200000D01*
X160160000Y-68240000D02*
X159320000Y-68240000D01*
X160160000Y-68280000D02*
X159350000Y-68280000D01*
X160160000Y-68320000D02*
X159381000Y-68320000D01*
X160160000Y-68360000D02*
X159414000Y-68360000D01*
X160160000Y-68400000D02*
X159448000Y-68400000D01*
X160160000Y-68440000D02*
X159484000Y-68440000D01*
X160160000Y-68480000D02*
X159522000Y-68480000D01*
X160160000Y-68520000D02*
X159562000Y-68520000D01*
X160160000Y-68560000D02*
X159604000Y-68560000D01*
X160160000Y-68600000D02*
X159649000Y-68600000D01*
X160160000Y-68640000D02*
X159697000Y-68640000D01*
X160160000Y-68680000D02*
X159747000Y-68680000D01*
X160160000Y-68720000D02*
X159801000Y-68720000D01*
X160160000Y-68760000D02*
X159858000Y-68760000D01*
X160160000Y-68800000D02*
X159920000Y-68800000D01*
X161370000Y-69080000D02*
X160630000Y-69080000D01*
X161537000Y-69040000D02*
X160463000Y-69040000D01*
X161663000Y-69000000D02*
X160337000Y-69000000D01*
X161768000Y-68960000D02*
X160232000Y-68960000D01*
X161859000Y-68920000D02*
X160141000Y-68920000D01*
X161940000Y-68880000D02*
X160060000Y-68880000D01*
X162013000Y-68840000D02*
X159987000Y-68840000D01*
X162080000Y-68800000D02*
X161840000Y-68800000D01*
X162142000Y-68760000D02*
X161840000Y-68760000D01*
X162195000Y-64730199D02*
X162195000Y-65130199D01*
X162199000Y-68720000D02*
X161840000Y-68720000D01*
X162253000Y-68680000D02*
X161840000Y-68680000D01*
X162303000Y-68640000D02*
X161840000Y-68640000D01*
X162351000Y-68600000D02*
X161840000Y-68600000D01*
X162395000Y-64930199D02*
X161995000Y-64930199D01*
X162396000Y-68560000D02*
X161840000Y-68560000D01*
X162438000Y-68520000D02*
X161840000Y-68520000D01*
X162478000Y-68480000D02*
X161840000Y-68480000D01*
X162516000Y-68440000D02*
X161840000Y-68440000D01*
X162552000Y-68400000D02*
X161840000Y-68400000D01*
X162586000Y-68360000D02*
X161840000Y-68360000D01*
X162619000Y-68320000D02*
X161840000Y-68320000D01*
X162650000Y-68280000D02*
X161840000Y-68280000D01*
X162680000Y-68240000D02*
X161840000Y-68240000D01*
X162708000Y-68200000D02*
X161840000Y-68200000D01*
X162734000Y-68160000D02*
X161840000Y-68160000D01*
X162760000Y-68120000D02*
X161840000Y-68120000D01*
X162784000Y-68080000D02*
X161840000Y-68080000D01*
X162807000Y-68040000D02*
X161840000Y-68040000D01*
X162829000Y-68000000D02*
X161840000Y-68000000D01*
X162850000Y-67960000D02*
X161840000Y-67960000D01*
X162870000Y-67920000D02*
X161840000Y-67920000D01*
X162889000Y-67880000D02*
X161840000Y-67880000D01*
X162906000Y-67840000D02*
X161840000Y-67840000D01*
X162923000Y-67800000D02*
X161840000Y-67800000D01*
X162939000Y-67760000D02*
X161840000Y-67760000D01*
X162954000Y-67720000D02*
X161840000Y-67720000D01*
X162968000Y-67680000D02*
X161840000Y-67680000D01*
X162981000Y-67640000D02*
X161840000Y-67640000D01*
X162993000Y-67600000D02*
X161840000Y-67600000D01*
X163005000Y-67560000D02*
X161840000Y-67560000D01*
X163015000Y-67520000D02*
X161840000Y-67520000D01*
X163025000Y-67480000D02*
X161840000Y-67480000D01*
X163034000Y-67440000D02*
X161840000Y-67440000D01*
X163042000Y-67400000D02*
X161840000Y-67400000D01*
X163049000Y-67360000D02*
X161840000Y-67360000D01*
X163056000Y-67320000D02*
X161840000Y-67320000D01*
X163061000Y-67280000D02*
X161840000Y-67280000D01*
X163066000Y-67240000D02*
X161840000Y-67240000D01*
X163071000Y-67200000D02*
X161840000Y-67200000D01*
X163074000Y-67160000D02*
X158926000Y-67160000D01*
X163077000Y-67120000D02*
X158923000Y-67120000D01*
X163078000Y-67080000D02*
X158922000Y-67080000D01*
X163080000Y-67000000D02*
X158920000Y-67000000D01*
X163080000Y-67040000D02*
X158920000Y-67040000D01*
X163120000Y-67000000D02*
G75*
G02*
X158880000Y-67000000I-2120000J0D01*
G01*
X158880000Y-67000000D02*
G75*
G02*
X163120000Y-67000000I2120000J0D01*
G01*
%TO.C,U3*%
X167740000Y-62850000D02*
X172360000Y-62850000D01*
X167740000Y-66110000D02*
X169120000Y-66110000D01*
X167740000Y-69810000D02*
X169120000Y-69810000D01*
X167740000Y-73070000D02*
X167740000Y-62850000D01*
X169120000Y-73070000D02*
X169120000Y-62850000D01*
X172360000Y-62850000D02*
X172360000Y-73070000D01*
X172360000Y-73070000D02*
X167740000Y-73070000D01*
%TO.C,MS5611-Pins1*%
X183255000Y-81265000D02*
X184000000Y-81265000D01*
X183255000Y-82000000D02*
X183255000Y-81265000D01*
X183255000Y-82735000D02*
X183255000Y-88610000D01*
X183255000Y-82735000D02*
X183314435Y-82735000D01*
X183255000Y-88610000D02*
X183589970Y-88610000D01*
X184410030Y-88610000D02*
X184745000Y-88610000D01*
X184685565Y-82735000D02*
X184745000Y-82735000D01*
X184745000Y-82735000D02*
X184745000Y-88610000D01*
%TO.C,J2*%
X123690000Y-146300000D02*
X163010000Y-146300000D01*
X123690000Y-155880000D02*
X123690000Y-146300000D01*
X133405000Y-145405662D02*
X133905000Y-145405662D01*
X133655000Y-145838675D02*
X133405000Y-145405662D01*
X133905000Y-145405662D02*
X133655000Y-145838675D01*
X163010000Y-146300000D02*
X163010000Y-155880000D01*
%TD*%
M02*
